<?xml version="1.0" encoding="UTF-8"?> <!-- Creator: CorelDRAW 2019 (64-Bit) --> <svg xmlns="http://www.w3.org/2000/svg" xmlns:xlink="http://www.w3.org/1999/xlink" xmlns:xodm="http://www.corel.com/coreldraw/odm/2003" xml:space="preserve" width="22.2965cm" height="7.75592cm" style="shape-rendering:geometricPrecision; text-rendering:geometricPrecision; image-rendering:optimizeQuality; fill-rule:evenodd; clip-rule:evenodd" viewBox="0 0 30583.49 10638.57"> <defs> <style type="text/css"> <![CDATA[ .fil0 {fill:#FCF0E4} .fil1 {fill:#FCF0E4;fill-rule:nonzero} ]]> </style> </defs> <g id="Слой_x0020_1"> <metadata id="CorelCorpID_0Corel-Layer"></metadata> <g id="_1994153900304"> <path class="fil0" d="M15221.28 10638.57c241.33,-73.58 969.62,-1299.41 450.1,-1558.51 -92.3,-46.01 -212.49,-50.79 -290.08,20.04 -77.61,70.82 -79.57,146.97 -129.55,177.04 -50.04,30.08 -91.26,-126 -140.5,-172.02 -49.28,-46.06 -184.35,-67.79 -245.06,-50.13 -658.26,191.4 62.78,1427.81 355.1,1583.58z"></path> <path class="fil0" d="M17042.47 10328.49c201.61,-151.68 466.72,-1552.69 -110.09,-1618.46 -102.46,-11.67 -217.05,24.95 -265.73,118.06 -48.71,93.1 -24.51,165.31 -61.18,210.67 -36.75,45.37 -128.85,-87.2 -190.88,-113.6 -62.05,-26.43 -196.42,-0.66 -247.42,36.69 -553.11,405 547.34,1320.23 875.3,1366.64z"></path> <path class="fil0" d="M18647.78 9414.23c137.56,-211.5 -92.48,-1618.68 -657,-1483.2 -100.27,24.06 -195.42,97.66 -209.33,201.81 -13.94,104.14 33.52,163.74 14.55,218.89 -18.98,55.2 -150.9,-37.87 -218.21,-41.47 -67.36,-3.61 -184.79,66.57 -219.95,119.12 -381.24,569.75 965.89,1053.4 1289.93,984.85z"></path> <path class="fil0" d="M19843.57 8006.06c56.94,-245.79 -640.52,-1489.44 -1124.66,-1169.06 -86,56.92 -150.24,158.62 -127.69,261.25 22.54,102.63 87.51,142.39 88.56,200.7 1.03,58.38 -154.77,16.03 -219.23,35.68 -64.52,19.64 -150.88,125.75 -165.96,187.15 -163.37,665.78 1267.93,659.53 1548.99,484.28z"></path> <path class="fil0" d="M19874.89 2686.77c-184.39,-172.21 -1610.14,-190.02 -1574.75,389.44 6.3,102.93 62.23,209.43 162.39,241.21 100.13,31.8 167.07,-4.58 218.1,23.66 51.07,28.28 -63.49,142.04 -78.72,207.7 -15.27,65.7 33.47,193.54 79.1,237.29 494.9,474.38 1205.12,-768.27 1193.87,-1099.3z"></path> <path class="fil0" d="M18695.76 1264.61c-232.18,-98.76 -1578.04,372.15 -1346.58,904.56 41.11,94.58 130.12,175.51 235.09,171.12 104.99,-4.38 155.44,-61.45 213.03,-52.36 57.67,9.12 -11.07,155.19 -2.92,222.1 8.13,66.95 97.64,170.42 155.48,195.92 627.31,276.5 869.68,-1134.12 745.9,-1441.34z"></path> <path class="fil0" d="M17101.33 331.51c-251.95,-13.4 -1355.58,889.42 -955.99,1310.56 70.97,74.81 182.29,120.43 279.44,80.39 97.14,-40.01 125.04,-110.9 182.28,-122.05 57.31,-11.17 42.66,149.61 73.21,209.7 30.55,60.13 150.03,126.74 213.12,130.91 684.04,45.29 429.33,-1363.17 207.95,-1609.52z"></path> <path class="fil0" d="M15283.91 0c-241.33,73.58 -969.62,1299.41 -450.1,1558.49 92.3,46.03 212.51,50.82 290.08,-20.03 77.61,-70.82 79.57,-146.99 129.55,-177.03 50.04,-30.09 91.26,125.99 140.51,172.01 49.27,46.06 184.33,67.79 245.04,50.13 658.28,-191.4 -62.78,-1427.81 -355.08,-1583.58z"></path> <path class="fil0" d="M13462.73 310.08c-201.62,151.69 -466.71,1552.68 110.08,1618.45 102.45,11.69 217.05,-24.94 265.75,-118.03 48.69,-93.1 24.5,-165.33 61.18,-210.66 36.73,-45.39 128.84,87.18 190.88,113.57 62.04,26.43 196.4,0.66 247.39,-36.69 553.13,-405 -547.34,-1320.23 -875.28,-1366.64z"></path> <path class="fil0" d="M11857.42 1224.34c-137.58,211.5 92.48,1618.67 656.99,1483.19 100.27,-24.05 195.44,-97.65 209.34,-201.8 13.92,-104.14 -33.52,-163.74 -14.55,-218.88 18.98,-55.21 150.9,37.86 218.21,41.44 67.35,3.62 184.78,-66.54 219.93,-119.09 381.24,-569.76 -965.88,-1053.42 -1289.92,-984.86z"></path> <path class="fil0" d="M10661.62 2632.51c-56.95,245.8 640.5,1489.43 1124.65,1169.05 85.99,-56.9 150.25,-158.62 127.69,-261.23 -22.52,-102.63 -87.5,-142.39 -88.54,-200.7 -1.04,-58.36 154.77,-16.03 219.22,-35.69 64.54,-19.63 150.9,-125.73 165.94,-187.14 163.39,-665.78 -1267.92,-659.53 -1548.96,-484.28z"></path> <path class="fil0" d="M10630.31 7951.81c184.38,172.21 1610.14,190 1574.73,-389.46 -6.28,-102.93 -62.23,-209.43 -162.38,-241.21 -100.15,-31.8 -167.07,4.58 -218.1,-23.66 -51.07,-28.28 63.49,-142.04 78.71,-207.7 15.28,-65.7 -33.46,-193.54 -79.09,-237.29 -494.9,-474.38 -1205.14,768.29 -1193.87,1099.31z"></path> <path class="fil0" d="M11809.44 9373.95c232.17,98.77 1578.02,-372.13 1346.57,-904.56 -41.11,-94.56 -130.1,-175.51 -235.09,-171.12 -104.97,4.38 -155.44,61.45 -213.03,52.36 -57.67,-9.12 11.08,-155.19 2.92,-222.1 -8.12,-66.95 -97.61,-170.42 -155.47,-195.92 -627.31,-276.5 -869.68,1134.12 -745.9,1441.34z"></path> <path class="fil0" d="M13403.85 10307.06c251.95,13.4 1355.57,-889.42 955.99,-1310.56 -70.97,-74.81 -182.29,-120.43 -279.44,-80.39 -97.14,40.01 -125.04,110.9 -182.28,122.06 -57.31,11.15 -42.65,-149.62 -73.21,-209.71 -30.53,-60.13 -150.02,-126.76 -213.1,-130.93 -684.04,-45.28 -429.33,1363.18 -207.96,1609.53z"></path> <path class="fil0" d="M14184.33 638.94c0,0 256.37,164.46 321.52,328.56 14.25,35.88 37.45,57.01 37.94,31.67 2.1,-107.29 57.5,-306.6 195.02,-448.18 -98.98,-223.51 -306.88,-295.86 -328.17,-290.67 -21.27,5.2 -193.68,157.96 -226.31,378.62z"></path> <path class="fil0" d="M12648.02 1286.56c0,0 297.14,66.87 414.49,198.78 25.66,28.85 54.69,40.77 46.49,16.78 -34.73,-101.53 -50.83,-307.76 29.98,-487.85 -169.47,-176.19 -389.57,-173.05 -407.8,-160.9 -18.22,12.15 -127.98,214.67 -83.16,433.19z"></path> <path class="fil0" d="M11425.84 2420.57c0,0 302.1,-38.79 457.48,45.03 33.99,18.33 65.33,19.6 49.44,-0.14 -67.36,-83.53 -153.04,-271.81 -138.69,-468.69 -219.49,-107.59 -425.26,-29.37 -438.22,-11.71 -12.98,17.64 -46.84,245.49 70,435.51z"></path> <path class="fil0" d="M10611.98 3887.23c0,0 276.17,-128.43 449.65,-95.59 37.94,7.19 68.2,-1.1 47.06,-15.09 -89.49,-59.22 -228.14,-212.73 -274.06,-404.71 -241.78,-36.09 -414.2,100.76 -421.21,121.52 -7.02,20.74 29.68,248.15 198.56,393.88z"></path> <path class="fil0" d="M11733.49 8584.49c0,0 14.24,-304.24 123.78,-442.71 23.95,-30.29 30.64,-60.93 8.44,-48.69 -93.95,51.82 -294.25,103.51 -485.64,55.18 -144.08,197.49 -102.78,413.7 -87.64,429.54 15.12,15.84 233.64,88.76 441.06,6.68z"></path> <path class="fil0" d="M13062.51 9591.17c0,0 -90.68,-290.77 -35.1,-458.33 12.14,-36.65 7.94,-67.75 -8.74,-48.65 -70.55,80.85 -241.1,197.9 -437.48,217.94 -67.84,234.86 44.92,423.9 64.56,433.63 19.63,9.7 249.9,3.48 416.75,-144.59z"></path> <path class="fil0" d="M14655.67 10082.6c0,0 -184.65,-242.22 -189.74,-418.69 -1.11,-38.6 -15.69,-66.38 -24.84,-42.73 -38.65,100.09 -158.88,268.44 -336.55,354.43 16.57,243.9 187.19,382.97 208.97,385.38 21.77,2.4 236.04,-82.19 342.16,-278.39z"></path> <path class="fil0" d="M16320.83 9999.49c0,0 -256.35,-164.46 -321.49,-328.54 -14.25,-35.88 -37.46,-57.01 -37.97,-31.66 -2.08,107.28 -57.47,306.58 -195.02,448.17 98.99,223.51 306.88,295.86 328.19,290.67 21.26,-5.18 193.68,-157.96 226.3,-378.64z"></path> <path class="fil0" d="M17857.17 9351.87c0,0 -297.14,-66.86 -414.49,-198.77 -25.66,-28.85 -54.7,-40.75 -46.5,-16.76 34.74,101.52 50.85,307.76 -29.98,487.85 169.47,176.18 389.57,173.04 407.8,160.88 18.22,-12.14 127.98,-214.67 83.18,-433.2z"></path> <path class="fil0" d="M19079.33 8217.86c0,0 -302.08,38.8 -457.45,-45.02 -33.99,-18.33 -65.35,-19.59 -49.45,0.15 67.38,83.52 153.04,271.8 138.69,468.69 219.49,107.58 425.26,29.35 438.23,11.7 12.98,-17.64 46.83,-245.5 -70.02,-435.52z"></path> <path class="fil0" d="M20485.62 6273.81c-30.56,-250.44 -1111.31,-1180.54 -1456.67,-713.9 -61.34,82.9 -86.92,200.44 -30.63,289.16 56.28,88.73 130.93,103.89 151.86,158.32 20.95,54.5 -139.95,67.99 -193.8,108.51 -53.92,40.52 -98.79,169.76 -91.93,232.62 74.17,681.5 1417.02,186.09 1621.18,-74.71z"></path> <path class="fil0" d="M20496.5 4426.45c-114.37,-224.9 -1448.06,-729.26 -1612.99,-172.64 -29.29,98.88 -13.13,218.08 70.11,282.21 83.23,64.13 158.57,52.84 196.85,96.83 38.31,44.04 -108.24,111.75 -145.01,168.25 -36.8,56.51 -34.74,193.31 -6.82,250.04 302.81,615.03 1395.22,-309.78 1497.86,-624.69z"></path> <path class="fil0" d="M10019.56 4364.75c30.56,250.45 1111.31,1180.54 1456.67,713.89 61.34,-82.88 86.94,-200.43 30.63,-289.15 -56.27,-88.73 -130.91,-103.88 -151.84,-158.32 -20.95,-54.5 139.95,-67.99 193.79,-108.53 53.93,-40.51 98.8,-169.74 91.93,-232.59 -74.17,-681.51 -1417,-186.11 -1621.18,74.7z"></path> <path class="fil0" d="M10008.68 6212.12c114.37,224.9 1448.06,729.26 1612.99,172.64 29.29,-98.88 13.14,-218.1 -70.11,-282.21 -83.22,-64.13 -158.55,-52.84 -196.85,-96.83 -38.31,-44.04 108.25,-111.75 145,-168.26 36.82,-56.5 34.77,-193.3 6.83,-250 -302.8,-615.06 -1395.22,309.75 -1497.86,624.66z"></path> <path class="fil0" d="M10457.92 5558.53c0,0 206.48,-223.91 379.39,-259.57 37.83,-7.8 62.64,-26.98 37.78,-31.88 -105.29,-20.68 -291.95,-109.86 -407.5,-269.89 -237.31,58.67 -344.65,250.85 -343.23,272.72 1.41,21.85 121.93,218.16 333.56,288.63z"></path> <path class="fil0" d="M10828.93 7183.97c0,0 117.44,-281.03 267.72,-373.68 32.88,-20.26 49.64,-46.77 24.59,-42.88 -106.02,16.58 -311.92,-3.37 -475.23,-114.23 -202.94,136.3 -238.07,353.6 -229.27,373.66 8.81,20.05 189.21,163.31 412.19,157.14z"></path> <path class="fil0" d="M19839.95 6734.23c0,0 -270.6,139.77 -445.27,114.15 -38.21,-5.6 -68.1,3.94 -46.4,17.05 91.87,55.43 236.76,203.08 290.6,392.98 243.07,26.03 409.66,-117.85 415.84,-138.88 6.13,-21.01 -39.97,-246.72 -214.76,-385.3z"></path> <path class="fil0" d="M20047.26 5079.93c0,0 -206.48,223.9 -379.39,259.56 -37.8,7.8 -62.64,26.99 -37.76,31.89 105.28,20.67 291.95,109.84 407.48,269.89 237.33,-58.68 344.66,-250.86 343.25,-272.73 -1.41,-21.84 -121.93,-218.16 -333.58,-288.61z"></path> <path class="fil0" d="M19676.26 3454.48c0,0 -117.44,281.01 -267.72,373.67 -32.87,20.26 -49.63,46.79 -24.58,42.88 106.02,-16.58 311.9,3.37 475.22,114.25 202.94,-136.3 238.08,-353.62 229.27,-373.67 -8.81,-20.05 -189.19,-163.32 -412.19,-157.12z"></path> <path class="fil0" d="M18771.71 2053.97c0,0 -14.25,304.22 -123.78,442.69 -23.95,30.29 -30.63,60.94 -8.45,48.69 93.95,-51.84 294.26,-103.51 485.65,-55.17 144.07,-197.49 102.77,-413.71 87.64,-429.55 -15.13,-15.83 -233.65,-88.76 -441.06,-6.67z"></path> <path class="fil0" d="M17442.68 1047.27c0,0 90.67,290.77 35.1,458.33 -12.14,36.66 -7.94,67.76 8.72,48.65 70.56,-80.83 241.11,-197.9 437.49,-217.94 67.83,-234.86 -44.92,-423.9 -64.58,-433.63 -19.61,-9.7 -249.9,-3.48 -416.74,144.59z"></path> <path class="fil0" d="M15849.51 555.84c0,0 184.65,242.22 189.73,418.69 1.14,38.6 15.72,66.38 24.85,42.73 38.64,-100.09 158.88,-268.44 336.55,-354.43 -16.58,-243.88 -187.19,-382.97 -208.97,-385.38 -21.75,-2.4 -236.02,82.19 -342.16,278.39z"></path> </g> <path class="fil1" d="M18705.92 5319.3c0,953.59 -386.54,1816.91 -1011.47,2441.85 -624.92,624.92 -1488.25,1011.46 -2441.85,1011.46 -953.6,0 -1816.93,-386.54 -2441.86,-1011.46 -624.93,-624.93 -1011.46,-1488.26 -1011.46,-2441.85 0,-953.6 386.52,-1816.93 1011.46,-2441.86 624.93,-624.93 1488.26,-1011.47 2441.86,-1011.47 953.6,0 1816.93,386.52 2441.85,1011.46 624.93,624.93 1011.47,1488.28 1011.47,2441.88zm-1143.81 2309.51c591.05,-591.05 956.63,-1407.59 956.63,-2309.51 0,-901.93 -365.58,-1718.48 -956.63,-2309.54 -591.04,-591.04 -1407.58,-956.62 -2309.51,-956.62 -901.93,0 -1718.47,365.58 -2309.52,956.63 -591.05,591.05 -956.62,1407.59 -956.62,2309.52 0,901.91 365.56,1718.46 956.62,2309.5 591.05,591.05 1407.59,956.63 2309.52,956.63 901.93,0 1718.47,-365.58 2309.51,-956.62z"></path> <g id="_1994153915184"> <circle class="fil0" cx="7920.11" cy="5305.38" r="404.02"></circle> <g> <path class="fil0" d="M9160.71 4145.91c-1417.7,-271.28 -1560.71,725.01 -2324.57,716.14 -924.44,-10.56 -955.6,-1133.44 -367.07,-1392.27 528.23,-232.29 799.03,338.98 638.69,553.81 -190.95,256.72 -561.77,102.5 -507.98,-145.33 53.96,-247.61 230.66,-166.99 230.66,-166.99 0,0 -368.44,-163.26 -494.86,203.93 -126.41,367.28 352.59,691.46 784.12,507.35 285.57,-121.85 1280.3,-991.05 2041.02,-276.64z"></path> <path class="fil0" d="M9160.7 6540.8c-1420.56,257.23 -1554.1,-740.29 -2317.97,-739.43 -924.34,1.21 -966.27,1123.84 -379.62,1388.42 525.42,237.77 801.78,-330.98 643.34,-547.08 -188.78,-258.44 -560.66,-108.24 -509.04,140.12 51.37,248.22 228.34,169.14 228.34,169.14 0,0 -369.71,159.73 -492.4,-208.64 -122.96,-368.49 358.77,-688.03 788.5,-499.67 284.43,125.1 1271.22,1004.23 2038.85,297.14z"></path> </g> <path class="fil0" d="M10424.2 7551.27c0,0 -447.33,1272.53 -1859.19,1152.27 -1411.56,-120.2 -1383.32,-1556.08 -700.22,-1796.9 583.7,-205.5 910.58,285.81 696.85,603.66 -213.76,317.65 -887.51,-11.67 -494.08,-360.32 -400.8,186.81 -374.36,839.24 53.26,1066.28 547.34,290.63 1598.49,205.22 2303.38,-664.99z"></path> <path class="fil0" d="M10424.2 3087.33c0,0 -447.33,-1272.53 -1859.19,-1152.27 -1411.56,120.2 -1383.32,1556.06 -700.22,1796.9 583.7,205.5 910.58,-285.81 696.85,-603.66 -213.76,-317.65 -887.51,11.67 -494.08,360.32 -400.8,-186.81 -374.36,-839.24 53.26,-1066.28 547.34,-290.63 1598.49,-205.22 2303.38,664.99z"></path> <path class="fil0" d="M9699.14 3384.02c-301.05,310.07 -319.5,787.6 -76.74,1156.87 -131.82,-44.04 -257.09,-114.88 -364.77,-215.04 -401.76,-372.94 -418.57,-993.39 -37.53,-1386.35 380.58,-393.19 1014.42,-409.64 1416.14,-36.73 107.72,99.91 187.18,218.49 239.08,344.37 -389.88,-217.2 -875.76,-173.89 -1176.18,136.88z"></path> <path class="fil0" d="M9563.18 7335.38c-301.05,-310.07 -319.49,-787.61 -76.73,-1156.88 -131.83,44.06 -257.09,114.88 -364.77,215.05 -401.78,372.94 -418.57,993.39 -37.54,1386.33 380.58,393.2 1014.42,409.65 1416.14,36.75 107.72,-99.91 187.18,-218.51 239.08,-344.37 -389.88,217.2 -875.76,173.89 -1176.18,-136.88z"></path> <path class="fil0" d="M956.3 5476.44c133.88,0 242.36,-108.51 242.36,-242.29 0,-133.77 -108.49,-242.43 -242.36,-242.43 -133.94,0 -242.36,108.66 -242.36,242.43 0,133.78 108.42,242.29 242.36,242.29z"></path> <path class="fil0" d="M6030.82 5467.85c89.75,0 162.46,-72.74 162.46,-162.42 0,-89.68 -72.71,-162.52 -162.46,-162.52 -89.79,0 -162.47,72.84 -162.47,162.52 0,89.68 72.68,162.42 162.47,162.42z"></path> <path class="fil0" d="M555.49 5355.22c66.91,0 121.13,-54.24 121.13,-121.1 0,-66.87 -54.22,-121.19 -121.13,-121.19 -66.96,0 -121.15,54.32 -121.15,121.19 0,66.87 54.18,121.1 121.15,121.1z"></path> <path class="fil0" d="M121.13 5355.22c66.92,0 121.15,-54.24 121.15,-121.1 0,-66.87 -54.22,-121.19 -121.15,-121.19 -66.95,0 -121.15,54.32 -121.15,121.19 0,66.87 54.19,121.1 121.15,121.1z"></path> <path class="fil0" d="M5194.72 4668.01c-308.86,432.86 -462.64,611.9 -720.21,656.47 26.14,-0.03 26.14,0.22 0,0.22 257.54,45.03 411.35,223.69 720.21,656.73 308.43,432.56 907.8,425.63 907.8,425.63 0,0 109.25,-93.96 364.75,-351.48 -772.29,-4.76 -820.12,-627.1 -827.53,-730.88 7.41,-104 37.64,-696.14 810.68,-700.05 -227.31,-221.92 -369.5,-369.54 -369.5,-369.54 0,0 -577.78,-19.9 -886.21,412.9z"></path> <path class="fil0" d="M7096.32 5579.45c154.5,0 279.68,-122.71 279.68,-273.98 0,-151.27 -125.18,-274.16 -279.68,-274.16 -154.57,0 -279.67,122.89 -279.67,274.16 0,151.27 125.1,273.98 279.67,273.98z"></path> <path class="fil0" d="M6505.72 5498.19c108.69,0 196.75,-86.32 196.75,-192.75 0,-106.41 -88.06,-192.86 -196.75,-192.86 -108.75,0 -196.75,86.44 -196.75,192.86 0,106.43 88.01,192.75 196.75,192.75z"></path> <g> <path class="fil0" d="M2774.77 5256.09c0,0 -201.54,-432.45 -616.57,-376.58 -415.05,55.79 -683.16,359.24 -883.86,371.13 199.73,24.5 451.22,343.93 862.55,425.45 411.31,81.46 635.82,-337.73 635.82,-337.73 -372.55,156.74 -709.8,-60.13 -847.98,-67.45 138.39,1.34 486.63,-194.46 850.04,-14.83z"></path> <path class="fil0" d="M4887.45 4775.14c133.89,0 242.37,-108.51 242.37,-242.29 0,-133.77 -108.49,-242.44 -242.37,-242.44 -133.94,0 -242.36,108.68 -242.36,242.44 0,133.78 108.42,242.29 242.36,242.29z"></path> <path class="fil0" d="M4908.82 6270.69c133.88,0 242.36,-108.51 242.36,-242.28 0,-133.78 -108.49,-242.44 -242.36,-242.44 -133.94,0 -242.36,108.66 -242.36,242.44 0,133.77 108.42,242.28 242.36,242.28z"></path> <path class="fil0" d="M3837.66 5974.3c0,0 -471.33,-77.21 -673.83,381.85 -202.46,458.96 248.42,694.12 439.29,522.81 163.01,-146.43 65.91,-331.45 -69.15,-319.05 -135,12.45 -147.15,277.72 28,214.72 -126.13,92.78 -324.33,-26.28 -322.22,-197.7 2.7,-219.43 207.81,-531.48 597.91,-602.63z"></path> <path class="fil0" d="M3968.26 4736.21c0,0 -471.33,77.21 -673.83,-381.86 -202.47,-458.96 248.42,-694.12 439.29,-522.81 163.01,146.44 65.91,331.46 -69.16,319.05 -135,-12.44 -147.14,-277.71 28.01,-214.71 -126.13,-92.78 -324.33,26.27 -322.22,197.69 2.7,219.43 207.81,531.48 597.91,602.64z"></path> <path class="fil0" d="M3596.78 5836.57c0,0 -588.6,-345.54 -1034.17,-95.55 -445.78,249.92 -385.15,745.37 -31.4,699.44 382.63,-49.79 418.25,-632.93 1065.57,-603.89z"></path> <path class="fil0" d="M3596.78 4795.02c0,0 -588.6,345.54 -1034.17,95.55 -445.78,-249.92 -385.15,-745.37 -31.4,-699.43 382.63,49.78 418.25,632.92 1065.57,603.88z"></path> <g> <path class="fil0" d="M4164.42 5548.38c0,0 -859.27,-62.82 -1235.97,-200.35 -376.72,-137.52 1225.75,-243.75 1225.75,-243.75 0,0 89.53,74.8 224.69,219.63l-214.47 224.46z"></path> <path class="fil0" d="M3442.73 5741.35c0,0 207.66,89.8 333.22,71.88 125.56,-17.93 321.52,-20.77 409.91,-186.11 88.39,-165.35 226.05,-252.77 345.63,-216.89 119.58,35.87 304.44,139.79 334.34,247.41 29.89,107.63 -185.37,-95.66 -287.02,-47.83 -101.64,47.83 -137.52,65.77 -125.56,137.52 11.96,71.75 185.35,131.54 185.35,131.54 0,0 -113.6,203.31 -460.41,179.39 -346.8,-23.92 -735.46,-316.91 -735.46,-316.91z"></path> <path class="fil0" d="M3429.89 4899.79c0,0 207.67,-89.8 333.23,-71.88 125.55,17.93 321.51,20.77 409.9,186.12 88.39,165.34 226.07,252.76 345.65,216.87 119.58,-35.87 304.43,-139.79 334.33,-247.41 29.9,-107.63 -185.37,95.67 -287.01,47.83 -101.65,-47.83 -137.52,-65.77 -125.58,-137.52 11.96,-71.75 185.37,-131.54 185.37,-131.54 0,0 -113.62,-203.31 -460.41,-179.39 -346.81,23.92 -735.48,316.91 -735.48,316.91z"></path> </g> </g> <g> <path class="fil0" d="M10022.77 4645.57c0,0 -383.34,-280.48 -838.23,-29.86 -454.91,250.62 -699.24,713.06 -831.01,714.72 -10.41,0.12 -11.62,0.43 -5.05,0.85 0.47,0.11 1.8,0.18 4.24,0.25 2.67,0.15 6.12,0.29 9.99,0.45 133.04,14.05 376.85,467.19 825.46,714.35 454.91,250.62 838.26,-29.86 838.26,-29.86 -1106.07,-118.77 -1116.72,-1253.31 -3.65,-1370.9z"></path> <circle class="fil0" transform="matrix(1.16991E-14 -0.441733 0.441733 1.16991E-14 9668.37 5309.73)" r="644.79"></circle> </g> </g> <g id="_1994153927856"> <circle class="fil0" cx="22663.38" cy="5305.37" r="404.02"></circle> <g> <path class="fil0" d="M21422.76 4145.9c1417.72,-271.28 1560.73,725.01 2324.58,716.14 924.42,-10.56 955.6,-1133.44 367.07,-1392.27 -528.24,-232.28 -799.04,338.98 -638.69,553.81 190.95,256.72 561.77,102.5 507.97,-145.33 -53.95,-247.61 -230.65,-166.99 -230.65,-166.99 0,0 368.44,-163.26 494.84,203.93 126.43,367.28 -352.57,691.46 -784.1,507.37 -285.57,-121.86 -1280.3,-991.05 -2041.03,-276.65z"></path> <path class="fil0" d="M21422.79 6540.78c1420.56,257.23 1554.1,-740.28 2317.97,-739.43 924.34,1.21 966.27,1123.84 379.62,1388.42 -525.42,237.78 -801.78,-330.98 -643.34,-547.08 188.78,-258.42 560.66,-108.24 509.04,140.12 -51.37,248.22 -228.36,169.14 -228.36,169.14 0,0 369.72,159.73 492.42,-208.64 122.96,-368.49 -358.77,-688.03 -788.5,-499.67 -284.43,125.1 -1271.22,1004.23 -2038.85,297.14z"></path> </g> <path class="fil0" d="M20159.29 7551.25c0,0 447.33,1272.53 1859.19,1152.27 1411.56,-120.2 1383.32,-1556.08 700.22,-1796.9 -583.7,-205.5 -910.58,285.81 -696.85,603.66 213.75,317.65 887.51,-11.67 494.08,-360.32 400.8,186.81 374.34,839.24 -53.26,1066.28 -547.34,290.63 -1598.49,205.22 -2303.38,-664.99z"></path> <path class="fil0" d="M20159.29 3087.31c0,0 447.33,-1272.53 1859.19,-1152.27 1411.56,120.2 1383.32,1556.08 700.22,1796.9 -583.7,205.5 -910.58,-285.81 -696.85,-603.66 213.75,-317.65 887.51,11.67 494.08,360.32 400.8,-186.81 374.34,-839.24 -53.26,-1066.28 -547.34,-290.63 -1598.49,-205.22 -2303.38,664.99z"></path> <path class="fil0" d="M20884.35 3384.01c301.05,310.07 319.5,787.61 76.73,1156.88 131.83,-44.06 257.09,-114.89 364.78,-215.05 401.76,-372.94 418.57,-993.39 37.53,-1386.35 -380.58,-393.19 -1014.42,-409.64 -1416.14,-36.73 -107.72,99.91 -187.18,218.49 -239.08,344.37 389.88,-217.2 875.76,-173.89 1176.18,136.88z"></path> <path class="fil0" d="M21020.31 7335.36c301.05,-310.07 319.49,-787.61 76.73,-1156.88 131.82,44.06 257.09,114.89 364.77,215.05 401.76,372.94 418.57,993.39 37.54,1386.35 -380.6,393.19 -1014.42,409.64 -1416.14,36.73 -107.72,-99.91 -187.18,-218.49 -239.08,-344.37 389.88,217.2 875.76,173.89 1176.18,-136.88z"></path> <path class="fil0" d="M29627.19 5476.42c-133.88,0 -242.36,-108.51 -242.36,-242.28 0,-133.78 108.49,-242.44 242.36,-242.44 133.94,0 242.36,108.66 242.36,242.44 0,133.77 -108.42,242.28 -242.36,242.28z"></path> <path class="fil0" d="M24552.67 5467.83c-89.75,0 -162.46,-72.74 -162.46,-162.42 0,-89.67 72.71,-162.52 162.46,-162.52 89.79,0 162.47,72.85 162.47,162.52 0,89.68 -72.68,162.42 -162.47,162.42z"></path> <path class="fil0" d="M30028.01 5355.21c-66.91,0 -121.15,-54.24 -121.15,-121.1 0,-66.87 54.24,-121.19 121.15,-121.19 66.96,0 121.15,54.32 121.15,121.19 0,66.87 -54.18,121.1 -121.15,121.1z"></path> <path class="fil0" d="M30462.36 5355.21c-66.92,0 -121.15,-54.24 -121.15,-121.1 0,-66.87 54.22,-121.19 121.15,-121.19 66.95,0 121.13,54.32 121.13,121.19 0,66.87 -54.18,121.1 -121.13,121.1z"></path> <path class="fil0" d="M25388.77 4668.01c308.86,432.84 462.64,611.9 720.21,656.45 -26.16,-0.03 -26.16,0.22 0,0.22 -257.54,45.05 -411.35,223.69 -720.21,656.73 -308.45,432.56 -907.81,425.63 -907.81,425.63 0,0 -109.24,-93.96 -364.75,-351.48 772.31,-4.76 820.12,-627.1 827.54,-730.88 -7.42,-103.99 -37.64,-696.14 -810.68,-700.05 227.31,-221.92 369.5,-369.54 369.5,-369.54 0,0 577.76,-19.9 886.21,412.91z"></path> <path class="fil0" d="M23487.17 5579.43c-154.5,0 -279.68,-122.7 -279.68,-273.98 0,-151.27 125.18,-274.14 279.68,-274.14 154.56,0 279.67,122.87 279.67,274.14 0,151.28 -125.11,273.98 -279.67,273.98z"></path> <path class="fil0" d="M24077.77 5498.18c-108.69,0 -196.75,-86.32 -196.75,-192.75 0,-106.41 88.06,-192.86 196.75,-192.86 108.75,0 196.75,86.44 196.75,192.86 0,106.43 -88.01,192.75 -196.75,192.75z"></path> <g> <path class="fil0" d="M27808.72 5256.08c0,0 201.53,-432.45 616.55,-376.58 415.07,55.8 683.17,359.24 883.88,371.13 -199.73,24.51 -451.22,343.93 -862.56,425.45 -411.3,81.46 -635.81,-337.73 -635.81,-337.73 372.55,156.74 709.8,-60.13 847.98,-67.45 -138.39,1.34 -486.63,-194.46 -850.04,-14.83z"></path> <path class="fil0" d="M25696.02 4775.13c-133.88,0 -242.36,-108.51 -242.36,-242.29 0,-133.77 108.49,-242.43 242.36,-242.43 133.96,0 242.37,108.66 242.37,242.43 0,133.78 -108.42,242.29 -242.37,242.29z"></path> <path class="fil0" d="M25674.67 6270.67c-133.89,0 -242.36,-108.51 -242.36,-242.28 0,-133.78 108.47,-242.44 242.36,-242.44 133.94,0 242.36,108.66 242.36,242.44 0,133.77 -108.42,242.28 -242.36,242.28z"></path> <path class="fil0" d="M26745.83 5974.28c0,0 471.33,-77.21 673.83,381.85 202.46,458.96 -248.42,694.12 -439.3,522.81 -163,-146.43 -65.9,-331.45 69.16,-319.05 135,12.45 147.15,277.72 -28,214.72 126.13,92.78 324.32,-26.28 322.22,-197.7 -2.7,-219.43 -207.81,-531.48 -597.91,-602.63z"></path> <path class="fil0" d="M26615.23 4736.2c0,0 471.33,77.21 673.83,-381.86 202.46,-458.95 -248.42,-694.12 -439.29,-522.81 -163.01,146.44 -65.91,331.46 69.15,319.05 135,-12.44 147.15,-277.71 -28,-214.71 126.13,-92.78 324.33,26.27 322.22,197.69 -2.7,219.43 -207.81,531.48 -597.91,602.64z"></path> <path class="fil0" d="M26986.71 5836.55c0,0 588.6,-345.54 1034.16,-95.55 445.79,249.93 385.15,745.37 31.41,699.44 -382.63,-49.79 -418.25,-632.93 -1065.57,-603.89z"></path> <path class="fil0" d="M26986.71 4795c0,0 588.6,345.54 1034.16,95.55 445.79,-249.92 385.15,-745.35 31.41,-699.43 -382.63,49.78 -418.25,632.92 -1065.57,603.88z"></path> <g> <path class="fil0" d="M26419.07 5548.37c0,0 859.27,-62.81 1235.97,-200.35 376.7,-137.52 -1225.75,-243.75 -1225.75,-243.75 0,0 -89.53,74.81 -224.69,219.63l214.47 224.46z"></path> <path class="fil0" d="M27140.76 5741.33c0,0 -207.66,89.8 -333.22,71.88 -125.56,-17.93 -321.52,-20.77 -409.91,-186.11 -88.39,-165.35 -226.07,-252.77 -345.63,-216.89 -119.58,35.88 -304.44,139.79 -334.34,247.41 -29.89,107.63 185.37,-95.66 287.02,-47.83 101.64,47.83 137.52,65.77 125.56,137.52 -11.96,71.75 -185.37,131.56 -185.37,131.56 0,0 113.62,203.3 460.41,179.37 346.81,-23.91 735.48,-316.91 735.48,-316.91z"></path> <path class="fil0" d="M27153.59 4899.77c0,0 -207.66,-89.8 -333.22,-71.88 -125.55,17.93 -321.51,20.77 -409.9,186.12 -88.39,165.34 -226.07,252.76 -345.65,216.87 -119.58,-35.87 -304.44,-139.77 -334.33,-247.41 -29.9,-107.63 185.35,95.67 287.01,47.83 101.65,-47.83 137.52,-65.77 125.56,-137.52 -11.95,-71.75 -185.35,-131.54 -185.35,-131.54 0,0 113.6,-203.31 460.41,-179.39 346.8,23.92 735.46,316.91 735.46,316.91z"></path> </g> </g> <g> <path class="fil0" d="M20560.72 4645.56c0,0 383.34,-280.48 838.23,-29.86 454.91,250.62 699.24,713.06 831.01,714.72 10.4,0.12 11.62,0.43 5.05,0.85 -0.47,0.11 -1.8,0.18 -4.24,0.25 -2.67,0.15 -6.12,0.3 -9.99,0.45 -133.04,14.05 -376.85,467.19 -825.46,714.35 -454.91,250.62 -838.26,-29.86 -838.26,-29.86 1106.07,-118.77 1116.72,-1253.31 3.65,-1370.9z"></path> <circle class="fil0" transform="matrix(-1.16991E-14 -0.441733 -0.441733 1.16991E-14 20915.1 5309.72)" r="644.79"></circle> </g> </g> <g id="_1994153938064"> <path class="fil1" d="M16178.4 4506.42c0.93,9.07 -3.8,-2.1 2.07,10.88 1.78,3.95 3.47,5.5 6.17,9.26 2.11,27.57 101.13,172.49 120.72,195.81 26.06,31.01 43.33,56.5 71.38,86.48 295.66,316.1 571.25,276.52 857.49,528.49 104.8,92.24 207.99,200.96 216.26,427.33 12.4,-18.85 13.35,-82.48 13.46,-103.67 1.08,-217.66 -92.46,-395.7 -209.23,-547.09 -55.98,-72.58 -137.26,-145.97 -210.4,-210.59 -185.34,-163.78 -464.52,-456.4 -527.64,-742.24 -26.69,-120.93 -19.81,-298.67 34.51,-381.16 24.13,-36.62 66.14,-75.87 112.79,-96.41 168.26,-74.14 230.11,71 245.65,66.38 -1.63,8.37 -3.2,7.12 3.8,4.86 -2.17,9.09 -3.59,7.45 4.21,5.03 -2.03,8.98 -3.66,7.71 3.88,5.01 -2.37,9.56 -4.09,8.3 3.95,5.17 -2.63,9.86 -4.43,7.65 4.17,7.65 3.99,14.81 27.98,44.84 36.05,57.27 78.24,120.69 105.06,168.73 211.31,267.74 30.37,28.3 45.66,48.72 82.78,66.72 36.16,17.37 -16.09,-78.73 -28.71,-129.6 -20.75,-83.7 1.98,-137.61 34.96,-187.77 33.17,-50.42 -241.56,-116.55 -124.55,-343.08 4.4,2.35 39.39,58.23 46.72,68.42 18.19,25.32 33.89,45.39 54.36,67.72 55.53,69.01 339.41,100.61 310.88,48.6 -0.21,-297.13 -364.25,-625.84 -729.84,-643.03 -93.56,-1.25 -200.69,18.38 -283.37,46.24 -50.19,16.91 -200.29,84.08 -219.77,117.76 -8.79,1.84 -8.27,-1.52 -5.76,6.89 -12.92,-0.29 -7.37,-3.65 -7.71,5.83 -7.42,-1.81 -6.61,-4.02 -4.57,4.2 -8.57,-2.55 -8.18,-5.34 -4.91,4.13 -9.01,-3.53 -7.97,-6.16 -5.65,4.4 -11.66,-1.45 -5.86,-3.32 -6.32,6.16 -8.15,-2.44 -7.68,-4.97 -4.58,4.06 -8.71,-3.51 -7.46,-5.9 -5.66,4.43 -10.67,-0.88 -5.72,-3.43 -6.15,6.15 -7.91,-2.44 -6.9,-4.49 -4.47,4.53 -8.49,-2.8 -7.75,-5.17 -4.61,4.4 -8.68,-3.46 -7.75,-5.56 -4.38,4.47 -9.29,-4.01 -8.15,-6.01 -4.46,4.77 -18.11,4.76 -35.2,30.97 -47.5,46.51 -12.55,15.83 -33.41,41.22 -42.32,63.45 -6.39,1.81 -2.62,-1.08 -10.38,10.63 -4.29,6.49 -6.1,10.51 -10.08,17.64 -45.37,81.56 -76.28,162.83 -95.66,261.04 -12.15,61.63 -18.67,125.91 -19.82,191.31 -1.84,103.05 10.34,148.46 10.88,198.58l29.02 154.82c11.18,14.87 28.41,90.97 37.12,114.29l12.92 33.81c0.52,1.39 2.1,5.32 2.63,6.71l27.63 74.34 30.74 54.29zm317.28 1000.39c116.48,17.98 237.68,-1.29 338.73,-35.7 -0.97,-0.53 -2.39,-0.92 -3.11,-1.08 -20.3,-4.62 -96.3,17.37 -184.05,10.34 -57.9,-4.64 -114.47,-18.82 -164.89,-39.12 -153.71,-61.89 -312.34,-230.78 -406.77,-363.59 -8.87,0.44 -6.02,1.82 -2.04,-8.57l-11.6 -11.73c-6.68,-9.26 -2.8,-3.5 -6.17,-11.88l-2.48 -6.54c-7.27,0.05 -5.25,1.52 -2.35,-7.06l-6.98 -0.07 1.87 -4.51c-8.39,3.4 -5.4,4.33 -6.39,-7.11 -17.9,-8.85 -191.43,-327.49 -212.9,-373.81 -142.56,-102.31 -386.78,-1152.26 -914.19,-1480.02 -176.18,-109.49 -364.8,-146.59 -595.58,-105.02 -100.45,18.09 -196.81,47.64 -285.47,84.73l-186.78 92.34c-20.45,11.91 -39.93,27.04 -56.44,36.51 41.22,-5.29 107.55,-39.86 230.78,-51.62 88.05,-8.41 178.08,-5.87 263.48,8.2 165.2,27.23 304.76,90.46 412.57,169.31 60.67,44.36 112.81,91.34 160.09,138.36 113.77,113.15 231.73,290.56 320.07,436.74 124.08,205.33 236.87,415.01 355.99,624.81l15.97 25.33c216.5,344.23 506.86,812.54 948.66,880.75zm875.41 -1417.02c34.92,127.81 178.7,425.94 122.11,531.34l7.87 1.51c20.93,-3.22 44.88,-42.48 53.11,-71.23 16.72,-58.42 -56.12,-525.58 -52.12,-629.94 -107.83,-10.93 -173.2,13.68 -130.97,168.32zm112.53 441.75l2.88 -6.38c9.41,-39.53 -25.09,-112.28 -37.64,-145.52 -12.84,-32.44 -30.71,-68.36 -45.7,-101.65 -11.22,-24.9 -38.46,-80.48 -45.13,-106.94l-11.97 -27.12c-49.74,-142.39 -8.6,-281.32 171.54,-248.78l4.65 170.75c82.42,-6.5 155.59,-323.44 83.12,-333.4 13.52,-1.82 -167.12,81.57 -347.4,-27.82 -18.79,-20.49 -35.21,-36.88 -51.9,-60.12 -6.71,-9.35 -36.82,-62.63 -40.85,-64.78 -18.93,36.64 51.45,237.2 149.69,188.67 17.83,81.46 9.07,78.9 -20.14,123.29 -30.27,46.02 -51.12,95.5 -32.07,172.28 38.01,153.28 207.73,315.99 220.92,467.52zm-955.46 1405.51c77.69,9.7 441.27,-91.34 530.42,-139.64 -11.12,-6.64 -205.57,-17.93 -238.08,-21.99 -175.66,-21.95 -363.56,-67.27 -528.07,-137.65 -28.54,-12.22 -63.52,-32.01 -89.31,-39.07 -3.47,-6.67 5.16,-6.78 -9.44,-5.2 -10.04,-13.04 -23.22,-12.1 -36.94,-19.19 -9.55,-4.95 -22.04,-12.32 -34.55,-18.92 -14.46,-7.64 -19.01,-10.52 -33.32,-18.64 -6.8,-3.88 -12.44,-8.42 -15.42,-10.55 -8.18,-5.83 -0.6,-1.36 -8.89,-5.98 -5.17,-2.89 -1.59,-1.98 -11.95,-4.98 -44.48,-30.75 -88.34,-56.1 -129.07,-87.22 -22.65,-17.31 -43.36,-34.09 -62.31,-49.06 -20.47,-16.17 -38.42,-35.14 -57.64,-46.87 -327.51,-267.41 -363.08,-355.1 -682.26,-924.12 -59.94,-106.88 -110.42,-192.69 -164.74,-293.14 -11.76,-21.73 -8.13,-27.35 -22.45,-39.45 -68.39,-135.04 -238.33,-371.13 -358.54,-467.48 -460.96,-369.47 -998.08,-112.98 -1398.99,234.72 -39.12,33.92 -188.01,172.56 -204.38,204.69 66.8,-3.31 67.61,-16.12 169.5,-11.29 53.52,2.54 112.74,11.36 161.64,24.18 101.27,26.57 184.63,60.02 269.57,108.49 -52.62,0.64 -94.06,-7.59 -150.65,0.52 -22.87,3.28 -43.87,8.05 -66.07,14.64 -9.64,2.85 -19.79,6.06 -28.91,9.22 -13.32,4.6 -20.15,6.91 -29.35,18.26 316.69,18.13 615.61,166.7 802.81,422.34 26.99,36.86 153.34,229.59 175.81,246.06 8.98,23.92 43.89,59.61 60.57,79.58 15.98,19.15 47.06,64.65 66.77,75.88 3.69,19.37 76.42,91.75 94.01,110.23 17.75,18.65 31.82,33.21 49.92,53.23 177.54,196.38 470.1,412.42 704.13,527.5 22.52,11.08 50.05,32.48 71.12,31.32l11.23 7.93c64.45,37.46 300.42,112.26 360.56,127.22 97.18,24.17 331.09,69.09 426.23,63l69.5 5.39c32.29,0.85 102.94,8.13 127.58,-4.6 19.74,6.93 133.56,0.59 147.62,-10.63 37.64,5.77 56.42,-4.51 62.33,-8.75zm-1981.49 -224.52c43.41,-5.46 83.21,-14.42 126.25,-21.12 2.96,-21.38 -56.76,-131.87 -68.13,-151.28 -23.87,-40.81 -63.55,-106.67 -85.55,-129.99 2.06,-7.59 2.61,-4.47 -5.28,-6.78l-3.51 -5.62 -3.94 -5.12 -3.47 -5.65 -3.94 -5.1 -3.55 -5.57 -4.05 -4.98 -3.8 -5.24 -4.09 -5.01 -4.14 -4.7 -4.27 -5.02 -4.09 -4.57 -4.06 -5.1 -4.38 -4.51 -4.12 -5.02 -4.32 -4.61 -4.61 -4.31 -4.39 -4.57 -4.73 -4.21c-20.68,-34.11 -105.95,-92.9 -145.92,-120.93l-22.21 -15.05c-12.77,-4.09 -34.79,-17.71 -48.01,-24.18 -157.99,-77.43 -270.08,-50.42 -425.7,-38.49 -474.8,36.39 -936.51,12.96 -1392.25,-143.9 -23.99,-8.26 -86.87,-35.79 -102.33,-36.38l119.16 98.13c75.84,59.08 176.38,135.73 255.65,186.99l136.65 84.29c-8.35,6.95 1.23,2.52 -10.6,4.81l-28.24 -5.43c-11.1,-3.22 -21.95,-6.31 -33.02,-9.56 -73.88,-21.66 -149.48,-55.06 -201.98,-70.39 23.46,20.47 62.27,37.57 91.34,53.91 416.96,234.46 928.62,402.09 1394.11,441.36 176.41,14.88 344.81,14.9 519.49,-7.09z"></path> <path class="fil1" d="M16057.86 6238.27l-6.83 1 -2.65 -1.07c-28.96,2.67 -73.97,5.75 -98.75,-4.5l-69.96 -4.36c-14.07,1.85 -55.36,1.22 -69.41,-6.43 -184.74,-0.14 -675.42,-87.14 -855.73,-120.79 -609.09,-113.68 -1297.28,-128.06 -1905.4,-43.62 -157.44,21.86 -308.05,44.62 -463.32,73.04 -79.06,14.47 -374.62,77.57 -434.78,104.26 34.59,0.21 75.51,-11.74 112.01,-16.17 518.61,-63.03 781.69,-60.05 1312.51,-32.43 393.24,20.45 1047.22,134 1444.53,223.39 149.75,33.69 289.23,60.78 443.91,81.09 719.7,94.52 1504.34,-50.89 2156.95,-415.52 59.67,-33.33 116.8,-66.03 169.73,-101.01 20.59,-13.61 145.74,-90.38 156.15,-114.03 -26.05,6.9 -73.52,35.58 -98.38,48.52 -77.23,40.22 -226.9,103.09 -306.39,129.54 -390.75,130.02 -544.02,149.58 -950.36,190.29 -84.51,8.48 -176.96,11.19 -266.38,11.86 -63.14,0.48 -214.49,8.16 -267.48,-3.07z"></path> </g> <path class="fil0" d="M13648.07 7062.32c0,0 -61.04,-104.45 226.72,-150.87 287.78,-46.42 470.89,-81.23 636.58,-81.23 165.68,0 409.86,23.21 654.03,29.01 516.24,12.26 1388.45,210.25 1883.58,63.82 78.49,-23.21 209.29,-52.22 218.01,-17.41 8.72,34.81 4.84,133.6 -148.25,168.28 -850.13,192.53 -1183.6,26.98 -1813.81,-92.85 -122.08,-23.21 -540.66,-40.62 -610.42,-34.81 -69.76,5.8 -174.41,23.21 -174.41,23.21 0,0 348.82,0 427.29,69.63 78.49,69.64 252.89,110.25 453.46,145.07 69.02,11.99 1520.51,66.99 828.43,220.5 -156.97,34.81 -374.97,58.02 -540.66,52.22 -165.7,-5.8 -374.97,-29.01 -436.03,-34.81 -61.04,-5.8 -113.35,11.6 -113.35,11.6 0,0 200.57,69.63 279.05,75.43 78.47,5.8 174.39,58.04 331.37,63.84 156.96,5.8 348.8,17.41 348.8,17.41 0,0 165.7,63.82 26.17,116.04 -139.53,52.22 -331.38,75.43 -392.42,75.43 -61.04,0 -261.6,0 -392.41,0 -130.8,0 -200.57,-5.8 -200.57,23.21 0,29.02 52.32,46.43 148.24,46.43 95.93,0 357.54,-23.21 374.97,5.8 17.45,29.01 122.09,98.64 -17.43,127.65 -139.53,29.01 -279.05,110.25 -331.37,145.07 -52.33,34.81 -52.33,98.64 -52.33,156.66 0,58.04 87.21,116.06 26.16,127.66 -61.04,11.6 -165.68,-34.81 -183.12,-116.06 -17.45,-81.23 -87.21,-156.66 0,-214.68 87.2,-58.04 279.05,-121.86 279.05,-121.86 0,0 -26.17,-40.62 -104.64,-34.81 -78.49,5.8 -497.07,75.43 -549.38,11.6 -52.33,-63.82 -165.68,-191.49 -61.04,-214.69 104.64,-23.21 340.09,-17.41 444.74,-17.41 104.63,0 462.17,69.63 531.93,5.8 69.76,-63.82 -218.01,-116.04 -340.09,-139.25 -122.08,-23.22 -235.45,-34.83 -427.29,-34.83 -191.86,0 -540.66,17.42 -540.66,17.42 0,0 -69.76,-40.63 -43.61,-87.05 26.16,-46.42 52.32,-87.03 279.05,-110.24 226.72,-23.21 453.45,-23.21 566.82,-23.21 113.35,0 374.97,40.62 374.97,0 0,-40.63 -165.68,-81.24 -436.01,-127.66 -734.47,-126.11 -461.48,-136.18 -1194.68,-98.64 -113.37,5.8 -235.45,-46.42 -235.45,-46.42z"></path> </g> </svg> 