<?xml version="1.0" encoding="UTF-8"?> <!-- Creator: CorelDRAW 2019 (64-Bit) --> <svg xmlns="http://www.w3.org/2000/svg" xmlns:xlink="http://www.w3.org/1999/xlink" xmlns:xodm="http://www.corel.com/coreldraw/odm/2003" xml:space="preserve" width="20.4805cm" height="9.17755cm" style="shape-rendering:geometricPrecision; text-rendering:geometricPrecision; image-rendering:optimizeQuality; fill-rule:evenodd; clip-rule:evenodd" viewBox="0 0 5164.13 2314.11"> <defs> <style type="text/css"> <![CDATA[ .fil0 {fill:#FCF0E4} ]]> </style> </defs> <g id="Слой_x0020_1"> <metadata id="CorelCorpID_0Corel-Layer"></metadata> <path class="fil0" d="M3113.15 1208.78c-9.64,287.25 -245.49,517.17 -535.09,517.17 -289.6,0 -525.45,-229.91 -535.09,-517.17l1070.19 0z"></path> <rect class="fil0" x="1981.92" y="1197.21" width="1200.29" height="22.21"></rect> <ellipse class="fil0" cx="2586.24" cy="1253.44" rx="506.06" ry="11.46"></ellipse> <path class="fil0" d="M2979.82 1301.47c80.37,18.55 122.85,-2.26 125.53,7.46 2.68,9.72 -46.32,45.24 -115.82,27.73 -69.5,-17.52 -122.85,2.26 -125.53,-7.46 -2.68,-9.72 35.45,-46.28 115.82,-27.73z"></path> <path class="fil0" d="M2218.28 1299.18c101.19,18.55 154.68,-2.26 158.06,7.46 3.38,9.72 -58.33,45.24 -145.83,27.73 -87.51,-17.52 -154.68,2.26 -158.06,-7.46 -3.38,-9.72 44.64,-46.28 145.83,-27.73z"></path> <path class="fil0" d="M2605.45 1298.33c162.34,23.07 248.15,-2.81 253.57,9.28 5.42,12.08 -93.57,56.26 -233.96,34.48 -140.38,-21.78 -248.15,2.81 -253.57,-9.28 -5.41,-12.08 71.62,-57.55 233.96,-34.48z"></path> <path class="fil0" d="M2314.43 1424.46c59.38,18.55 90.76,-2.25 92.75,7.46 1.98,9.72 -34.22,45.24 -85.57,27.73 -51.35,-17.52 -90.76,2.26 -92.74,-7.46 -1.98,-9.72 26.19,-46.28 85.57,-27.73z"></path> <path class="fil0" d="M2819.42 1458.61c41.01,18.55 62.68,-2.26 64.05,7.46 1.37,9.72 -23.63,45.25 -59.09,27.73 -35.46,-17.52 -62.68,2.26 -64.05,-7.46 -1.37,-9.72 18.09,-46.28 59.1,-27.73z"></path> <path class="fil0" d="M2307.88 1394.62c0,0 -10.66,-18.24 39.59,-26.34 50.25,-8.11 82.23,-14.19 111.16,-14.19 28.93,0 71.57,4.05 114.21,5.07 90.15,2.14 242.45,36.72 328.91,11.15 13.7,-4.05 36.55,-9.12 38.07,-3.04 1.52,6.08 0.84,23.33 -25.89,29.38 -148.45,33.62 -206.68,4.71 -316.73,-16.21 -21.32,-4.05 -94.41,-7.09 -106.59,-6.08 -12.18,1.01 -30.45,4.05 -30.45,4.05 0,0 60.91,0 74.62,12.16 13.7,12.16 44.16,19.25 79.18,25.33 12.05,2.09 265.51,11.7 144.66,38.5 -27.41,6.08 -65.48,10.13 -94.41,9.12 -28.93,-1.01 -65.48,-5.07 -76.14,-6.08 -10.66,-1.01 -19.8,2.02 -19.8,2.02 0,0 35.02,12.16 48.73,13.17 13.71,1.01 30.46,10.13 57.87,11.15 27.41,1.01 60.91,3.04 60.91,3.04 0,0 28.93,11.14 4.57,20.27 -24.37,9.12 -57.87,13.17 -68.52,13.17 -10.66,0 -45.68,0 -68.52,0 -22.84,0 -35.02,-1.01 -35.02,4.05 0,5.07 9.14,8.11 25.89,8.11 16.75,0 62.43,-4.05 65.48,1.01 3.05,5.07 21.32,17.22 -3.05,22.29 -24.36,5.07 -48.73,19.25 -57.86,25.33 -9.14,6.08 -9.14,17.22 -9.14,27.36 0,10.13 15.23,20.27 4.57,22.29 -10.66,2.03 -28.93,-6.08 -31.98,-20.27 -3.05,-14.18 -15.23,-27.36 0,-37.49 15.23,-10.13 48.73,-21.28 48.73,-21.28 0,0 -4.57,-7.09 -18.27,-6.08 -13.7,1.01 -86.8,13.17 -95.93,2.02 -9.14,-11.14 -28.93,-33.43 -10.66,-37.49 18.27,-4.05 59.39,-3.04 77.66,-3.04 18.27,0 80.71,12.16 92.89,1.01 12.18,-11.15 -38.07,-20.27 -59.39,-24.32 -21.32,-4.05 -41.12,-6.08 -74.62,-6.08 -33.5,0 -94.41,3.04 -94.41,3.04 0,0 -12.18,-7.09 -7.61,-15.2 4.57,-8.1 9.14,-15.2 48.73,-19.25 39.59,-4.05 79.18,-4.05 98.98,-4.05 19.8,0 65.48,7.09 65.48,0 0,-7.09 -28.93,-14.19 -76.14,-22.29 -128.25,-22.02 -80.58,-23.78 -208.62,-17.23 -19.8,1.01 -41.12,-8.1 -41.12,-8.1z"></path> <g id="_2028801785744"> <path class="fil0" d="M2712.62 515.36c1.85,-9.43 3.97,-30.64 -15.43,-45.84 -23.78,-18.64 -54.8,-21.74 -64.62,-27.43 -9.82,-5.7 -50.63,-16.04 -51.19,-28.19 -0.55,12.2 -41.36,22.52 -51.19,28.23 -9.81,5.69 -40.83,8.79 -64.61,27.42 -19.54,15.32 -17.24,36.75 -15.39,46.06 -86.57,17.38 -167.09,51.55 -238.01,98.95 -5.32,-7.94 -18.83,-24.54 -43.36,-21.56 -30,3.64 -54.12,23.38 -65.08,26.3 -10.98,2.92 -47.15,24.47 -56.12,16.27 8.23,9.01 -13.32,45.17 -16.24,56.14 -2.91,10.97 -22.66,35.1 -26.3,65.1 -3,24.72 13.91,38.25 21.76,43.49 -47.26,71.01 -81.26,151.59 -98.48,238.21 -9.42,-1.85 -30.64,-3.96 -45.84,15.43 -18.63,23.78 -21.74,54.8 -27.43,64.62 -5.7,9.82 -16.04,50.63 -28.19,51.19 12.2,0.55 22.52,41.36 28.23,51.19 5.69,9.81 8.79,40.84 27.42,64.61 15.32,19.55 36.75,17.24 46.06,15.39 17.38,86.58 51.55,167.09 98.95,238.02 -7.94,5.32 -24.54,18.83 -21.56,43.36 3.64,30 23.38,54.12 26.3,65.08 2.91,10.98 24.47,47.14 16.27,56.12 9,-8.23 45.17,13.32 56.14,16.24 10.97,2.91 35.1,22.66 65.1,26.29 24.72,3 38.25,-13.9 43.49,-21.75 71.01,47.26 151.59,81.26 238.21,98.47 -1.84,9.42 -3.96,30.64 15.43,45.83 23.79,18.64 54.8,21.74 64.62,27.43 9.82,5.7 50.63,16.04 51.19,28.19 0.55,-12.2 41.36,-22.52 51.19,-28.23 9.81,-5.69 40.83,-8.79 64.61,-27.42 19.53,-15.31 17.25,-36.72 15.39,-46.05 86.58,-17.38 167.1,-51.55 238.02,-98.95 5.33,7.94 18.84,24.53 43.36,21.56 30,-3.64 54.12,-23.38 65.08,-26.3 10.98,-2.92 47.15,-24.47 56.12,-16.28 -8.23,-9 13.32,-45.16 16.24,-56.14 2.91,-10.97 22.66,-35.1 26.3,-65.1 3,-24.72 -13.88,-38.24 -21.75,-43.49 47.27,-71.01 81.27,-151.59 98.48,-238.21 9.42,1.84 30.64,3.96 45.83,-15.43 18.63,-23.79 21.74,-54.8 27.43,-64.62 5.69,-9.82 16.04,-50.63 28.19,-51.19 -12.2,-0.55 -22.52,-41.36 -28.23,-51.19 -5.69,-9.81 -8.79,-40.83 -27.42,-64.61 -15.31,-19.54 -36.72,-17.25 -46.05,-15.4 -17.38,-86.57 -51.55,-167.09 -98.96,-238.01 7.94,-5.32 24.53,-18.83 21.56,-43.36 -3.64,-30 -23.38,-54.12 -26.3,-65.09 -2.91,-10.98 -24.47,-47.14 -16.27,-56.12 -9,8.23 -45.17,-13.32 -56.14,-16.24 -10.97,-2.91 -35.1,-22.66 -65.1,-26.29 -24.72,-3 -38.26,13.9 -43.49,21.75 -71.01,-47.26 -151.58,-81.26 -238.21,-98.47zm-260.11 -0.2l0 0c41.92,-8.26 85.22,-12.63 129.56,-12.63 43.86,0 86.73,4.29 128.23,12.38 1.85,-9.3 7.91,-30 31.84,-36.67 29.11,-8.11 58.95,0.88 70.21,-0.62 11.25,-1.49 52.92,4.57 58.08,-6.48 -4.13,11.43 29.62,36.6 36.52,45.61 6.89,9.03 34.36,23.77 49.21,50.08 12.12,21.51 1.96,40.34 -3.33,48.3 71.98,48.28 134.04,110.2 182.45,182.07 7.86,-5.27 26.81,-15.66 48.48,-3.43 26.32,14.83 41.05,42.3 50.07,49.2 9.02,6.89 34.19,40.65 45.66,36.49 -11.02,5.16 -4.95,46.82 -6.45,58.08 -1.5,11.25 7.5,41.09 -0.62,70.2 -6.61,23.74 -27.03,29.89 -36.44,31.79 8.26,41.91 12.63,85.22 12.63,129.56 0,43.86 -4.28,86.73 -12.37,128.23 9.3,1.85 30,7.92 36.66,31.84 8.11,29.11 -0.89,58.95 0.62,70.2 1.49,11.26 -4.57,52.92 6.48,58.09 -11.43,-4.13 -36.6,29.62 -45.61,36.52 -9.03,6.89 -23.77,34.36 -50.08,49.21 -21.5,12.12 -40.33,1.96 -48.3,-3.33 -48.28,71.98 -110.19,134.03 -182.07,182.45 5.26,7.86 15.66,26.81 3.43,48.48 -14.83,26.32 -42.3,41.05 -49.2,50.07 -6.89,9.02 -40.65,34.19 -36.49,45.66 -5.16,-11.02 -46.82,-4.94 -58.08,-6.45 -11.25,-1.5 -41.09,7.5 -70.19,-0.62 -23.74,-6.61 -29.9,-27.02 -31.8,-36.43 -41.91,8.26 -85.22,12.63 -129.54,12.63 -43.88,0 -86.74,-4.28 -128.24,-12.38 -1.85,9.3 -7.92,30 -31.84,36.67 -29.11,8.11 -58.95,-0.88 -70.21,0.62 -11.25,1.5 -52.92,-4.57 -58.08,6.48 4.13,-11.43 -29.62,-36.6 -36.52,-45.61 -6.89,-9.03 -34.36,-23.77 -49.21,-50.08 -12.12,-21.51 -1.96,-40.34 3.33,-48.3 -71.97,-48.28 -134.04,-110.2 -182.44,-182.08 -7.86,5.26 -26.82,15.66 -48.49,3.44 -26.32,-14.83 -41.05,-42.3 -50.07,-49.2 -9.02,-6.89 -34.19,-40.65 -45.66,-36.49 11.02,-5.16 4.95,-46.82 6.45,-58.08 1.5,-11.25 -7.5,-41.09 0.62,-70.19 6.61,-23.74 27.04,-29.9 36.44,-31.79 -8.26,-41.92 -12.63,-85.22 -12.63,-129.54 0,-43.87 4.29,-86.75 12.39,-128.24 -9.3,-1.85 -30.01,-7.9 -36.68,-31.84 -8.11,-29.11 0.88,-58.95 -0.62,-70.2 -1.5,-11.25 4.57,-52.92 -6.48,-58.09 11.43,4.13 36.6,-29.62 45.61,-36.51 9.03,-6.89 23.77,-34.36 50.08,-49.21 21.51,-12.12 40.35,-1.96 48.31,3.33 48.28,-71.97 110.19,-134.03 182.07,-182.45 -5.26,-7.85 -15.67,-26.8 -3.44,-48.48 14.83,-26.32 42.3,-41.05 49.2,-50.07 6.89,-9.02 40.65,-34.19 36.49,-45.66 5.16,11.02 46.82,4.94 58.08,6.45 11.25,1.5 41.09,-7.5 70.2,0.62 23.74,6.61 29.9,27.04 31.79,36.44z"></path> <path class="fil0" d="M2804.07 648.41c0,0 8.44,-48.4 -22.42,-75.49 -30.86,-27.09 -73.05,-31.13 -86.42,-32.9 -13.36,-1.79 -61.93,-8.93 -73.02,-11.67 -11.09,-2.74 -35.1,-9.9 -36.4,-25.82 -1.31,15.96 -25.31,23.12 -36.4,25.86 -11.1,2.74 -59.66,9.88 -73.02,11.66 -13.37,1.78 -55.57,5.81 -86.42,32.91 -30.86,27.09 -22.42,75.48 -22.42,75.48l0.11 0c66.1,-27.26 138.51,-42.33 214.44,-42.33 75.89,0 148.26,15.06 214.33,42.3l7.66 0zm-433.2 -4.48l0 0 -5.4 5.41c-136.73,57.06 -246.15,166.51 -303.19,303.24l-0.05 0.06c0,0 -40.18,-28.25 -37.52,-69.24 2.67,-40.98 29.65,-73.66 37.84,-84.38 8.19,-10.7 37.47,-50.1 43.39,-59.88 5.91,-9.78 17.82,-31.82 7.45,-44.02 12.18,10.33 34.22,-1.58 44.01,-7.49 9.77,-5.91 49.16,-35.2 59.88,-43.39 10.71,-8.19 43.4,-35.18 84.37,-37.84 40.98,-2.66 69.23,37.52 69.23,37.52zm-309.47 303.15l0 0c0,0 -48.4,-8.44 -75.49,22.42 -27.1,30.86 -31.13,73.05 -32.91,86.42 -1.79,13.36 -8.93,61.93 -11.67,73.02 -2.74,11.09 -9.9,35.1 -25.82,36.4 15.96,1.31 23.12,25.32 25.87,36.41 2.74,11.1 9.88,59.66 11.66,73.02 1.78,13.37 5.81,55.57 32.91,86.42 27.09,30.86 75.48,22.42 75.48,22.42l0 -0.1c-27.26,-66.1 -42.33,-138.5 -42.33,-214.42 0,-75.89 15.06,-148.27 42.3,-214.34l0 -7.67zm-4.49 433.2l0 0 5.4 5.39c57.05,136.74 166.52,246.16 303.26,303.21l0.05 0.04c0,0 -28.25,40.18 -69.23,37.52 -40.98,-2.67 -73.66,-29.65 -84.38,-37.83 -10.7,-8.19 -50.1,-37.48 -59.89,-43.39 -9.78,-5.91 -31.82,-17.82 -44.02,-7.45 10.33,-12.18 -1.59,-34.22 -7.49,-44.01 -5.91,-9.77 -35.2,-49.16 -43.39,-59.88 -8.19,-10.71 -35.18,-43.4 -37.83,-84.37 -2.67,-40.99 37.52,-69.23 37.52,-69.23zm303.15 309.47l0 0c0,0 -8.44,48.4 22.42,75.49 30.86,27.09 73.05,31.13 86.42,32.91 13.36,1.78 61.93,8.93 73.02,11.66 11.09,2.74 35.1,9.91 36.4,25.83 1.31,-15.96 25.31,-23.12 36.4,-25.86 11.1,-2.74 59.66,-9.88 73.02,-11.66 13.38,-1.78 55.57,-5.81 86.42,-32.91 30.86,-27.09 22.42,-75.48 22.42,-75.48l-0.07 0c-66.11,27.26 -138.53,42.34 -214.46,42.34 -75.9,0 -148.28,-15.06 -214.36,-42.31l-7.65 0zm433.2 4.48l0 0 5.37 -5.38c136.76,-57.07 246.19,-166.53 303.24,-303.29l0.03 -0.04c0,0 40.18,28.25 37.53,69.23 -2.67,40.98 -29.65,73.66 -37.83,84.38 -8.19,10.7 -37.48,50.1 -43.39,59.89 -5.91,9.78 -17.82,31.82 -7.45,44.03 -12.18,-10.34 -34.22,1.57 -44.01,7.48 -9.77,5.91 -49.16,35.19 -59.88,43.39 -10.71,8.19 -43.4,35.17 -84.37,37.83 -40.98,2.66 -69.23,-37.52 -69.23,-37.52zm309.47 -303.15l0 0c0,0 48.4,8.44 75.49,-22.42 27.1,-30.86 31.13,-73.05 32.91,-86.42 1.79,-13.36 8.93,-61.93 11.67,-73.02 2.74,-11.09 9.9,-35.09 25.82,-36.4 -15.95,-1.31 -23.12,-25.31 -25.86,-36.4 -2.74,-11.1 -9.88,-59.66 -11.66,-73.02 -1.78,-13.38 -5.81,-55.57 -32.91,-86.42 -27.09,-30.86 -75.48,-22.42 -75.48,-22.42l0 0.07c27.27,66.11 42.34,138.53 42.34,214.47 0,75.9 -15.06,148.28 -42.31,214.36l0 7.63zm4.49 -433.19l0 0 -5.38 -5.38c-57.07,-136.74 -166.52,-246.18 -303.27,-303.22l-0.05 -0.05c0,0 28.25,-40.18 69.24,-37.53 40.98,2.67 73.66,29.65 84.37,37.84 10.7,8.19 50.1,37.47 59.89,43.39 9.78,5.91 31.82,17.82 44.03,7.45 -10.34,12.18 1.57,34.22 7.48,44.01 5.91,9.77 35.2,49.16 43.4,59.88 8.19,10.71 35.18,43.4 37.83,84.37 2.67,40.98 -37.52,69.23 -37.52,69.23z"></path> </g> <path class="fil0" d="M2724.69 2055.45c0,0 58.36,59.08 6.21,129.18 -52.15,70.11 -148.37,107.76 -148.71,128.07 -0.03,1.6 -0.09,1.79 -0.18,0.78 -0.02,-0.07 -0.04,-0.28 -0.05,-0.65 -0.03,-0.41 -0.06,-0.94 -0.09,-1.54 -2.92,-20.5 -97.21,-58.08 -148.64,-127.21 -52.15,-70.11 6.21,-129.19 6.21,-129.19 0,0 10.46,37.29 67.97,52.29 42.89,11.19 66.7,16.28 76.04,18.14 10.85,-2.23 34.11,-7.37 73.27,-17.58 57.51,-15 67.97,-52.29 67.97,-52.29z"></path> <path class="fil0" d="M2724.69 258.66c0,0 58.36,-59.08 6.21,-129.18 -52.15,-70.11 -148.37,-107.76 -148.71,-128.07 -0.03,-1.6 -0.09,-1.79 -0.18,-0.78 -0.02,0.07 -0.04,0.28 -0.05,0.65 -0.03,0.41 -0.06,0.94 -0.09,1.54 -2.92,20.5 -97.21,58.08 -148.64,127.21 -52.15,70.11 6.21,129.19 6.21,129.19 0,0 10.46,-37.29 67.97,-52.29 42.89,-11.19 66.7,-16.28 76.04,-18.14 10.85,2.23 34.11,7.37 73.27,17.58 57.51,15 67.97,52.29 67.97,52.29z"></path> <g id="_2028801787408"> <g> <path class="fil0" d="M198.98 1208.23c27.86,0 50.43,-22.58 50.43,-50.41 0,-27.83 -22.57,-50.45 -50.43,-50.45 -27.87,0 -50.43,22.61 -50.43,50.45 0,27.83 22.56,50.41 50.43,50.41z"></path> <path class="fil0" d="M1532.61 1184.93c13.92,0 25.21,-11.29 25.21,-25.2 0,-13.91 -11.28,-25.21 -25.21,-25.21 -13.93,0 -25.21,11.3 -25.21,25.21 0,13.91 11.28,25.2 25.21,25.2z"></path> <path class="fil0" d="M115.58 1183.01c13.92,0 25.21,-11.29 25.21,-25.2 0,-13.91 -11.28,-25.21 -25.21,-25.21 -13.93,0 -25.21,11.3 -25.21,25.21 0,13.91 11.28,25.2 25.21,25.2z"></path> <path class="fil0" d="M25.21 1183.01c13.92,0 25.21,-11.29 25.21,-25.2 0,-13.91 -11.28,-25.21 -25.21,-25.21 -13.93,0 -25.21,11.3 -25.21,25.21 0,13.91 11.28,25.2 25.21,25.2z"></path> <path class="fil0" d="M1064.42 1074.9c-44.33,62.12 -66.4,87.82 -103.37,94.22 3.75,-0.01 3.75,0.03 0,0.03 36.97,6.46 59.04,32.1 103.37,94.25 44.27,62.08 130.29,61.09 130.29,61.09 0,0 15.68,-13.48 52.35,-50.44 -110.84,-0.68 -117.71,-90 -118.77,-104.9 1.06,-14.93 5.4,-99.91 116.35,-100.47 -32.63,-31.85 -53.03,-53.04 -53.03,-53.04 0,0 -82.92,-2.86 -127.19,59.26z"></path> <path class="fil0" d="M1251.53 1073.92c-44.33,62.12 -66.4,87.82 -103.37,94.22 3.75,-0.01 3.75,0.03 0,0.03 36.96,6.46 59.04,32.1 103.37,94.25 44.27,62.08 130.29,61.09 130.29,61.09 0,0 15.68,-13.48 52.35,-50.44 -110.84,-0.68 -117.71,-90 -118.77,-104.9 1.06,-14.93 5.4,-99.91 116.35,-100.47 -32.62,-31.85 -53.03,-53.04 -53.03,-53.04 0,0 -82.92,-2.86 -127.19,59.26z"></path> <g> <path class="fil0" d="M1851.38 923.47c-294.99,-56.45 -324.75,150.86 -483.68,149.01 -192.35,-2.2 -198.83,-235.84 -76.38,-289.7 109.91,-48.33 166.26,70.53 132.9,115.23 -39.73,53.42 -116.89,21.33 -105.7,-30.24 11.23,-51.52 47.99,-34.75 47.99,-34.75 0,0 -76.66,-33.97 -102.97,42.43 -26.3,76.42 73.36,143.87 163.15,105.57 59.42,-25.35 266.4,-206.21 424.68,-57.56z"></path> <path class="fil0" d="M1851.38 1421.78c-295.58,53.52 -323.37,-154.03 -482.31,-153.86 -192.33,0.25 -201.06,233.84 -78.99,288.9 109.33,49.47 166.83,-68.87 133.86,-113.84 -39.28,-53.77 -116.66,-22.52 -105.92,29.16 10.69,51.65 47.51,35.19 47.51,35.19 0,0 -76.93,33.24 -102.46,-43.41 -25.59,-76.67 74.65,-143.16 164.07,-103.97 59.18,26.03 264.51,208.95 424.23,61.83z"></path> </g> <g> <path class="fil0" d="M2091.35 620.45c0,0 -133.68,-201.35 35.93,-390.27 169.58,-188.88 371.86,-29.83 332.56,93.85 -33.63,105.66 -139.18,99.36 -161.56,34.48 -22.35,-64.86 97.48,-125.66 104.87,-31.76 16.55,-77.48 -79.6,-144.14 -158.23,-107.5 -100.65,46.9 -201.91,206.44 -153.57,401.18z"></path> <path class="fil0" d="M2088.68 1717.7c0,0 -133.68,201.35 35.93,390.27 169.58,188.88 371.86,29.83 332.56,-93.85 -33.63,-105.66 -139.18,-99.36 -161.56,-34.48 -22.35,64.86 97.48,125.66 104.87,31.76 16.55,77.48 -79.6,144.14 -158.23,107.5 -100.65,-46.9 -201.91,-206.44 -153.57,-401.18z"></path> </g> <path class="fil0" d="M1859.34 1658.43c-62.64,-64.51 -66.48,-163.88 -15.97,-240.71 -27.43,9.17 -53.49,23.9 -75.9,44.74 -83.6,77.6 -87.09,206.7 -7.81,288.46 79.19,81.81 211.08,85.24 294.66,7.65 22.41,-20.79 38.94,-45.46 49.75,-71.66 -81.12,45.2 -182.22,36.18 -244.73,-28.48z"></path> <path class="fil0" d="M1864.76 679.71c-62.64,64.51 -66.48,163.88 -15.97,240.71 -27.43,-9.17 -53.49,-23.9 -75.9,-44.74 -83.6,-77.6 -87.09,-206.7 -7.81,-288.46 79.19,-81.81 211.07,-85.24 294.66,-7.65 22.41,20.79 38.95,45.46 49.75,71.66 -81.12,-45.2 -182.22,-36.18 -244.73,28.48z"></path> <path class="fil0" d="M1418.37 1224.91c32.14,0 58.19,-25.53 58.19,-57.01 0,-31.47 -26.05,-57.04 -58.19,-57.04 -32.16,0 -58.2,25.57 -58.2,57.04 0,31.48 26.03,57.01 58.2,57.01z"></path> <g> <path class="fil0" d="M577.36 1157.34c0,0 -41.93,-89.98 -128.29,-78.36 -86.36,11.61 -142.15,74.75 -183.91,77.22 41.56,5.1 93.89,71.56 179.47,88.52 85.58,16.95 132.3,-70.27 132.3,-70.27 -77.52,32.62 -147.69,-12.51 -176.44,-14.03 28.8,0.28 101.26,-40.46 176.87,-3.09z"></path> <path class="fil0" d="M1016.95 1057.26c27.86,0 50.43,-22.58 50.43,-50.41 0,-27.83 -22.57,-50.45 -50.43,-50.45 -27.87,0 -50.43,22.61 -50.43,50.45 0,27.83 22.56,50.41 50.43,50.41z"></path> <path class="fil0" d="M1021.4 1368.45c27.86,0 50.43,-22.58 50.43,-50.41 0,-27.83 -22.57,-50.45 -50.43,-50.45 -27.87,0 -50.43,22.61 -50.43,50.45 0,27.83 22.56,50.41 50.43,50.41z"></path> <path class="fil0" d="M798.52 1306.78c0,0 -98.07,-16.06 -140.21,79.45 -42.13,95.5 51.69,144.43 91.41,108.78 33.92,-30.47 13.71,-68.97 -14.39,-66.39 -28.09,2.59 -30.62,57.79 5.83,44.68 -26.24,19.3 -67.49,-5.47 -67.05,-41.14 0.56,-45.66 43.24,-110.59 124.41,-125.39z"></path> <path class="fil0" d="M825.69 1049.16c0,0 -98.07,16.06 -140.21,-79.45 -42.13,-95.5 51.69,-144.43 91.41,-108.78 33.92,30.47 13.71,68.97 -14.39,66.38 -28.09,-2.59 -30.62,-57.78 5.83,-44.68 -26.24,-19.3 -67.49,5.47 -67.05,41.14 0.56,45.66 43.24,110.59 124.41,125.39z"></path> <path class="fil0" d="M748.4 1278.12c0,0 -122.47,-71.9 -215.18,-19.88 -92.76,52 -80.14,155.09 -6.54,145.53 79.62,-10.36 87.03,-131.69 221.72,-125.65z"></path> <path class="fil0" d="M748.4 1061.4c0,0 -122.47,71.9 -215.18,19.88 -92.76,-52 -80.14,-155.09 -6.54,-145.53 79.62,10.36 87.03,131.69 221.72,125.65z"></path> <g> <path class="fil0" d="M866.51 1218.15c0,0 -178.79,-13.07 -257.17,-41.69 -78.38,-28.62 255.05,-50.72 255.05,-50.72 0,0 18.63,15.57 46.75,45.7l-44.63 46.7z"></path> <path class="fil0" d="M716.34 1258.31c0,0 43.21,18.68 69.33,14.95 26.13,-3.73 66.9,-4.32 85.29,-38.73 18.39,-34.41 47.04,-52.59 71.92,-45.13 24.88,7.47 63.34,29.09 69.57,51.48 6.22,22.4 -38.57,-19.91 -59.72,-9.95 -21.15,9.95 -28.61,13.68 -26.13,28.61 2.49,14.93 38.57,27.37 38.57,27.37 0,0 -23.64,42.3 -95.8,37.32 -72.16,-4.97 -153.03,-65.94 -153.03,-65.94z"></path> <path class="fil0" d="M713.67 1083.2c0,0 43.21,-18.69 69.34,-14.95 26.13,3.73 66.9,4.32 85.29,38.73 18.39,34.4 47.04,52.59 71.92,45.13 24.88,-7.46 63.35,-29.09 69.57,-51.48 6.22,-22.4 -38.57,19.91 -59.72,9.95 -21.15,-9.95 -28.61,-13.69 -26.13,-28.62 2.49,-14.93 38.57,-27.37 38.57,-27.37 0,0 -23.64,-42.3 -95.8,-37.33 -72.16,4.98 -153.03,65.94 -153.03,65.94z"></path> </g> </g> <g> <path class="fil0" d="M1843.37 1208.72c0,0 -26.69,49.27 -91.98,43.15 -76.1,-6.9 -102.76,-88.56 -162.6,-91.67 59.85,-3.11 86.5,-84.77 162.6,-91.67 65.29,-6.12 91.98,43.15 91.98,43.15l0 97.04z"></path> <path class="fil0" d="M1694.22 1274.8c0,0 69.06,32.66 115.61,-0.47 46.52,-33.24 34.26,-88.56 -4.39,-79.51 -41.78,9.81 -39.24,76.21 -111.22,79.99z"></path> <path class="fil0" d="M1699.65 1044.64c0,0 69.06,-32.66 115.61,0.47 46.52,33.24 34.26,88.56 -4.39,79.51 -41.78,-9.81 -39.24,-76.21 -111.22,-79.99z"></path> </g> </g> <g> <path class="fil0" d="M4965.15 1208.23c-27.86,0 -50.43,-22.58 -50.43,-50.41 0,-27.83 22.57,-50.45 50.43,-50.45 27.87,0 50.43,22.61 50.43,50.45 0,27.83 -22.56,50.41 -50.43,50.41z"></path> <path class="fil0" d="M3631.52 1184.93c-13.92,0 -25.21,-11.29 -25.21,-25.2 0,-13.91 11.28,-25.21 25.21,-25.21 13.93,0 25.21,11.3 25.21,25.21 0,13.91 -11.28,25.2 -25.21,25.2z"></path> <path class="fil0" d="M5048.55 1183.01c-13.92,0 -25.21,-11.29 -25.21,-25.2 0,-13.91 11.28,-25.21 25.21,-25.21 13.93,0 25.21,11.3 25.21,25.21 0,13.91 -11.28,25.2 -25.21,25.2z"></path> <path class="fil0" d="M5138.92 1183.01c-13.92,0 -25.21,-11.29 -25.21,-25.2 0,-13.91 11.28,-25.21 25.21,-25.21 13.93,0 25.21,11.3 25.21,25.21 0,13.91 -11.28,25.2 -25.21,25.2z"></path> <path class="fil0" d="M4099.71 1074.89c44.33,62.12 66.4,87.82 103.37,94.22 -3.75,-0.01 -3.75,0.03 0,0.03 -36.97,6.46 -59.04,32.1 -103.37,94.25 -44.27,62.08 -130.29,61.09 -130.29,61.09 0,0 -15.68,-13.48 -52.35,-50.44 110.84,-0.68 117.71,-90 118.77,-104.9 -1.06,-14.93 -5.4,-99.91 -116.35,-100.47 32.63,-31.85 53.03,-53.04 53.03,-53.04 0,0 82.92,-2.86 127.19,59.26z"></path> <path class="fil0" d="M3912.6 1073.91c44.33,62.12 66.4,87.82 103.37,94.22 -3.75,-0.01 -3.75,0.03 0,0.03 -36.96,6.46 -59.04,32.1 -103.37,94.25 -44.27,62.08 -130.29,61.09 -130.29,61.09 0,0 -15.68,-13.48 -52.35,-50.44 110.84,-0.68 117.71,-90 118.77,-104.9 -1.06,-14.93 -5.4,-99.91 -116.35,-100.47 32.62,-31.85 53.03,-53.04 53.03,-53.04 0,0 82.92,-2.86 127.19,59.26z"></path> <g> <path class="fil0" d="M3312.75 923.46c294.99,-56.45 324.75,150.86 483.68,149.01 192.35,-2.2 198.83,-235.84 76.38,-289.7 -109.91,-48.33 -166.26,70.53 -132.9,115.23 39.73,53.42 116.89,21.33 105.7,-30.24 -11.23,-51.52 -47.99,-34.75 -47.99,-34.75 0,0 76.66,-33.97 102.97,42.43 26.3,76.42 -73.36,143.87 -163.15,105.57 -59.42,-25.35 -266.4,-206.21 -424.68,-57.56z"></path> <path class="fil0" d="M3312.75 1421.77c295.58,53.52 323.37,-154.03 482.31,-153.86 192.33,0.25 201.06,233.84 78.99,288.9 -109.33,49.47 -166.83,-68.87 -133.86,-113.84 39.28,-53.77 116.66,-22.52 105.92,29.16 -10.69,51.65 -47.51,35.19 -47.51,35.19 0,0 76.93,33.24 102.46,-43.41 25.59,-76.67 -74.65,-143.16 -164.07,-103.97 -59.18,26.03 -264.51,208.95 -424.23,61.83z"></path> </g> <g> <path class="fil0" d="M3072.78 620.45c0,0 133.68,-201.35 -35.93,-390.27 -169.58,-188.88 -371.86,-29.83 -332.56,93.85 33.63,105.66 139.18,99.36 161.56,34.48 22.35,-64.86 -97.48,-125.66 -104.87,-31.76 -16.55,-77.48 79.6,-144.14 158.23,-107.5 100.65,46.9 201.91,206.44 153.57,401.18z"></path> <path class="fil0" d="M3075.45 1717.7c0,0 133.68,201.35 -35.93,390.27 -169.58,188.88 -371.86,29.83 -332.56,-93.85 33.63,-105.66 139.18,-99.36 161.56,-34.48 22.35,64.86 -97.48,125.66 -104.87,31.76 -16.55,77.48 79.6,144.14 158.23,107.5 100.65,-46.9 201.91,-206.44 153.57,-401.18z"></path> </g> <path class="fil0" d="M3304.79 1658.43c62.64,-64.51 66.48,-163.88 15.97,-240.71 27.43,9.17 53.49,23.9 75.9,44.74 83.6,77.6 87.09,206.7 7.81,288.46 -79.19,81.81 -211.08,85.24 -294.66,7.65 -22.41,-20.79 -38.94,-45.46 -49.75,-71.66 81.12,45.2 182.22,36.18 244.73,-28.48z"></path> <path class="fil0" d="M3299.38 679.71c62.64,64.51 66.48,163.88 15.97,240.71 27.43,-9.17 53.49,-23.9 75.9,-44.74 83.6,-77.6 87.09,-206.7 7.81,-288.46 -79.19,-81.81 -211.07,-85.24 -294.66,-7.65 -22.41,20.79 -38.95,45.46 -49.75,71.66 81.12,-45.2 182.22,-36.18 244.73,28.48z"></path> <path class="fil0" d="M3745.76 1224.91c-32.14,0 -58.19,-25.53 -58.19,-57.01 0,-31.47 26.05,-57.04 58.19,-57.04 32.16,0 58.2,25.57 58.2,57.04 0,31.48 -26.03,57.01 -58.2,57.01z"></path> <g> <path class="fil0" d="M4586.77 1157.33c0,0 41.93,-89.98 128.29,-78.36 86.36,11.61 142.15,74.75 183.91,77.22 -41.56,5.1 -93.89,71.56 -179.47,88.52 -85.58,16.95 -132.3,-70.27 -132.3,-70.27 77.52,32.62 147.69,-12.51 176.44,-14.03 -28.8,0.28 -101.26,-40.46 -176.87,-3.09z"></path> <path class="fil0" d="M4147.18 1057.26c-27.86,0 -50.43,-22.58 -50.43,-50.41 0,-27.83 22.57,-50.45 50.43,-50.45 27.87,0 50.43,22.61 50.43,50.45 0,27.83 -22.56,50.41 -50.43,50.41z"></path> <path class="fil0" d="M4142.73 1368.45c-27.86,0 -50.43,-22.58 -50.43,-50.41 0,-27.83 22.57,-50.45 50.43,-50.45 27.87,0 50.43,22.61 50.43,50.45 0,27.83 -22.56,50.41 -50.43,50.41z"></path> <path class="fil0" d="M4365.61 1306.77c0,0 98.07,-16.06 140.21,79.45 42.13,95.5 -51.69,144.43 -91.41,108.78 -33.92,-30.47 -13.71,-68.97 14.39,-66.39 28.09,2.59 30.62,57.79 -5.83,44.68 26.24,19.3 67.49,-5.47 67.05,-41.14 -0.56,-45.66 -43.24,-110.59 -124.41,-125.39z"></path> <path class="fil0" d="M4338.44 1049.16c0,0 98.07,16.06 140.21,-79.45 42.13,-95.5 -51.69,-144.43 -91.41,-108.78 -33.92,30.47 -13.71,68.97 14.39,66.38 28.09,-2.59 30.62,-57.78 -5.83,-44.68 26.24,-19.3 67.49,5.47 67.05,41.14 -0.56,45.66 -43.24,110.59 -124.41,125.39z"></path> <path class="fil0" d="M4415.74 1278.12c0,0 122.47,-71.9 215.18,-19.88 92.76,52 80.14,155.09 6.54,145.53 -79.62,-10.36 -87.03,-131.69 -221.72,-125.65z"></path> <path class="fil0" d="M4415.74 1061.4c0,0 122.47,71.9 215.18,19.88 92.76,-52 80.14,-155.09 6.54,-145.53 -79.62,10.36 -87.03,131.69 -221.72,125.65z"></path> <g> <path class="fil0" d="M4297.62 1218.15c0,0 178.79,-13.07 257.17,-41.69 78.38,-28.62 -255.05,-50.72 -255.05,-50.72 0,0 -18.63,15.57 -46.75,45.7l44.63 46.7z"></path> <path class="fil0" d="M4447.79 1258.3c0,0 -43.21,18.68 -69.33,14.95 -26.13,-3.73 -66.9,-4.32 -85.29,-38.73 -18.39,-34.41 -47.04,-52.59 -71.92,-45.13 -24.88,7.47 -63.34,29.09 -69.57,51.48 -6.22,22.4 38.57,-19.91 59.72,-9.95 21.15,9.95 28.61,13.68 26.13,28.61 -2.49,14.93 -38.57,27.37 -38.57,27.37 0,0 23.64,42.3 95.8,37.32 72.16,-4.97 153.03,-65.94 153.03,-65.94z"></path> <path class="fil0" d="M4450.46 1083.2c0,0 -43.21,-18.69 -69.34,-14.95 -26.13,3.73 -66.9,4.32 -85.29,38.73 -18.39,34.4 -47.04,52.59 -71.92,45.13 -24.88,-7.46 -63.35,-29.09 -69.57,-51.48 -6.22,-22.4 38.57,19.91 59.72,9.95 21.15,-9.95 28.61,-13.69 26.13,-28.62 -2.49,-14.93 -38.57,-27.37 -38.57,-27.37 0,0 23.64,-42.3 95.8,-37.33 72.16,4.98 153.03,65.94 153.03,65.94z"></path> </g> </g> <g> <path class="fil0" d="M3320.76 1208.71c0,0 26.69,49.27 91.98,43.15 76.1,-6.9 102.76,-88.56 162.6,-91.67 -59.85,-3.11 -86.5,-84.77 -162.6,-91.67 -65.29,-6.12 -91.98,43.15 -91.98,43.15l0 97.04z"></path> <path class="fil0" d="M3469.91 1274.8c0,0 -69.06,32.66 -115.61,-0.47 -46.52,-33.24 -34.26,-88.56 4.39,-79.51 41.78,9.81 39.24,76.21 111.22,79.99z"></path> <path class="fil0" d="M3464.48 1044.64c0,0 -69.06,-32.66 -115.61,0.47 -46.52,33.24 -34.26,88.56 4.39,79.51 41.78,-9.81 39.24,-76.21 111.22,-79.99z"></path> </g> </g> </g> <circle class="fil0" cx="2582.86" cy="274.45" r="59.27"></circle> <circle class="fil0" cx="2576.95" cy="2047.2" r="59.27"></circle> <path class="fil0" d="M2758.38 929.94l-11.05 -3.73c-4.12,-1.32 -8.28,-1.97 -12.48,-2.57 -2.05,-0.3 -7.42,-0.56 -9.37,-0.27 -2.2,0.34 -4.55,0.09 -6.77,0.49 -3.26,0.58 -6.98,1.35 -10.16,2.47l-7.11 2.83c-1.13,0.46 -2.1,1.03 -3.22,1.62l-4.63 2.89c-0.64,0.41 -0.78,0.47 -1.44,0.97 -0.62,0.47 -0.75,0.62 -1.34,1.08 -0.56,0.44 -1.04,0.74 -1.54,1.15 -1.66,1.36 -3.8,3.22 -5.07,4.88 -1.41,1.85 -3.19,3.47 -4.52,5.43 -5.87,8.66 -10.01,18.86 -10.26,29.52 -0.07,3.01 -0.81,6.15 -0.81,9.13 -2.11,1.01 -4.89,1.75 -7.16,2.52 -3.32,1.12 -7.18,2.84 -10.1,4.68 -3.19,2.01 -6.35,4.16 -8.91,6.94l-4 4.6c-1.08,1.33 -1.94,2.98 -2.77,4.48l-0.91 1.79c-2.08,4.15 -4.05,10.93 -4.05,15.57l0 7.83c0.09,5.73 0.58,11.46 2.76,16.82 2.25,5.53 4.84,10.81 9.13,15.06l4.29 3.77c1.39,1.15 8.91,5.7 10.42,5.7l239.98 -0.28c6.57,-0.54 9.56,-0.34 16.08,-2.47 8.57,-2.8 16.16,-8.15 21.75,-15.07 4.15,-5.13 8.45,-13.43 9.74,-19.83 0.41,-2.05 0.97,-4.16 1.33,-6.19 1.4,-7.77 1.57,-16.46 0.38,-24.23l-1.38 -6.14c-0.31,-1.02 -0.59,-1.78 -0.99,-2.77 -2.43,-6.01 -6,-11.26 -10.67,-15.67 -0.21,-0.2 -0.22,-0.21 -0.42,-0.38l-0.29 -0.25c-7.79,-6.63 -16.71,-11.03 -26.75,-13.56 -2.19,-0.55 -4.01,-0.79 -6.16,-1.37 -10.87,-2.88 -8.32,-4.55 -10.33,-12.51 -0.98,-3.88 -2.26,-7.59 -3.74,-11.31 -0.39,-0.99 -0.6,-1.77 -1.05,-2.71 -0.48,-0.98 -0.75,-1.64 -1.17,-2.59 -3.01,-6.76 -7.2,-12.63 -11.71,-18.39 -5.76,-7.37 -13.34,-12.52 -21.96,-16.2 -3.72,-1.59 -7.07,-3.1 -11.14,-3.91 -0.89,-0.18 -2.05,-0.38 -3.13,-0.64 -6,-1.42 -24.93,-1.26 -30.65,-0.22 -8.87,1.6 -16.73,3.91 -23.95,9.37 -4.26,3.22 -7.98,6.54 -11.74,10.3 -1.93,1.93 -3.45,3.72 -5.37,5.65 -1.01,1 -1.83,1.81 -2.83,2.82 -1.06,1.08 -1.46,2.03 -2.75,2.89z"></path> <path class="fil0" d="M2302.53 806.38l-11.27 -3.8c-4.2,-1.35 -8.45,-2 -12.73,-2.62 -2.09,-0.3 -7.56,-0.57 -9.55,-0.27 -2.25,0.34 -4.64,0.09 -6.9,0.5 -3.33,0.6 -7.12,1.38 -10.36,2.52l-7.25 2.89c-1.15,0.47 -2.14,1.05 -3.28,1.65l-4.73 2.95c-0.65,0.42 -0.8,0.48 -1.48,0.99 -0.63,0.48 -0.76,0.63 -1.36,1.1 -0.57,0.45 -1.06,0.76 -1.57,1.17 -1.7,1.38 -3.88,3.29 -5.17,4.97 -1.44,1.89 -3.26,3.54 -4.61,5.53 -5.99,8.83 -10.2,19.23 -10.46,30.1 -0.07,3.07 -0.83,6.27 -0.83,9.31 -2.15,1.03 -4.99,1.79 -7.3,2.57 -3.39,1.14 -7.32,2.89 -10.3,4.78 -3.25,2.05 -6.47,4.25 -9.09,7.08l-4.07 4.7c-1.1,1.35 -1.98,3.04 -2.83,4.57l-0.92 1.82c-2.12,4.23 -4.13,11.14 -4.13,15.88l0 7.98c0.09,5.85 0.59,11.68 2.82,17.15 2.29,5.63 4.94,11.02 9.31,15.36l4.38 3.85c1.42,1.17 9.09,5.81 10.63,5.81l244.72 -0.29c6.7,-0.55 9.74,-0.34 16.39,-2.52 8.73,-2.86 16.48,-8.31 22.18,-15.36 4.23,-5.23 8.61,-13.7 9.93,-20.22 0.42,-2.09 0.99,-4.24 1.36,-6.31 1.42,-7.92 1.6,-16.79 0.38,-24.71l-1.41 -6.26c-0.32,-1.04 -0.61,-1.81 -1.01,-2.82 -2.47,-6.13 -6.12,-11.49 -10.88,-15.98 -0.21,-0.2 -0.23,-0.21 -0.43,-0.39l-0.3 -0.25c-7.95,-6.76 -17.05,-11.25 -27.28,-13.83 -2.23,-0.56 -4.08,-0.81 -6.28,-1.39 -11.08,-2.94 -8.49,-4.64 -10.54,-12.76 -1,-3.96 -2.3,-7.75 -3.81,-11.53 -0.4,-1.01 -0.61,-1.8 -1.08,-2.76 -0.49,-1 -0.76,-1.67 -1.2,-2.64 -3.07,-6.9 -7.35,-12.88 -11.94,-18.76 -5.87,-7.51 -13.61,-12.77 -22.39,-16.53 -3.8,-1.62 -7.21,-3.16 -11.36,-3.98 -0.91,-0.18 -2.09,-0.39 -3.19,-0.65 -6.11,-1.45 -25.42,-1.29 -31.26,-0.23 -9.04,1.63 -17.06,3.99 -24.43,9.56 -4.34,3.28 -8.14,6.67 -11.97,10.5 -1.97,1.97 -3.52,3.79 -5.48,5.75 -1.02,1.03 -1.87,1.85 -2.88,2.87 -1.09,1.1 -1.49,2.07 -2.8,2.95z"></path> <path class="fil0" d="M2817.51 882.91c14.61,0 27.94,3.09 40.92,9.33l2.97 1.6c2.94,1.45 5.48,3.21 8.13,5.04l1.87 1.36c0.28,0.23 0.48,0.39 0.77,0.58 1.68,1.15 3.14,2.67 4.69,3.91 10.66,8.51 19.71,25.37 24.26,37.28l1.15 3.15c0.38,1.03 0.84,2.22 0.95,3.35 0.14,1.6 0.14,2.36 0.91,3.39 0.57,0.76 1.78,1.39 2.68,1.89 3.93,2.13 8.52,3.34 12.71,4.76 10.25,3.45 19.86,10.11 27.41,17.74l4.45 5.23c1.58,1.97 3.12,4.27 4.26,6.49 0.53,1.04 1.14,1.92 1.57,2.99 0.44,1.1 0.84,1.91 1.34,2.96 0.48,1.02 0.76,2 1.2,3.11l2.07 6.8c2.16,8.32 2.59,18.4 1.12,26.91 -1.1,6.37 -2.29,12.44 -4.76,18.35 -0.94,2.24 -3.01,5.8 -3.07,8.48 2.68,1.42 21.46,0.81 25.26,0.81 4.09,0 13.58,-0.09 17.4,-0.6 2.76,-0.37 6.02,-1.4 8.55,-2.47 6.58,-2.77 14.31,-7.96 19.4,-13.12 1.25,-1.27 2.61,-2.11 3.72,-3.54 0.73,-0.95 1.07,-1.15 1.79,-1.97 4.84,-5.46 7.85,-11.9 10.18,-18.84 1.91,-5.67 2.11,-11.82 2.11,-18.04 0,-9.63 -5.11,-23.57 -11.22,-30.97 -1.77,-2.14 -3.38,-4.52 -5.52,-6.31 -3.17,-2.65 -6.19,-5.24 -9.76,-7.45 -9.24,-5.71 -15.45,-5.61 -20.81,-8.22 -2.6,-1.27 -2.39,-1.63 -2.7,-5.09 -0.1,-1.09 -0.42,-2.19 -0.5,-3.26 -0.1,-1.28 0.09,-2.7 -0.05,-3.98l-0.75 -6.51c-0.68,-6.21 -2.56,-12.35 -5.05,-18.06 -0.82,-1.89 -1.68,-3.5 -2.53,-5.26 -1.54,-3.23 -3.8,-6.49 -5.96,-9.36l-11.27 -11.84c-4.43,-3.61 -9.2,-6.54 -14.36,-9.02 -11.25,-5.4 -23.53,-6.12 -36.38,-5.02 -3.06,0.26 -5.21,0.87 -7.99,1.42 -4.25,0.84 -13.75,4.5 -14.58,4.5 -2.93,0 -4.68,-2.8 -6.49,-5.07 -0.58,-0.73 -1.05,-1.4 -1.61,-2.15 -5.89,-7.85 -9.57,-12.02 -17.64,-18.64 -2.7,-2.22 -5.56,-4.12 -8.45,-6.06l-3.31 -2.06c-8.72,-5.79 -24.94,-10.09 -35.33,-10.09 -14.75,0 -21.44,0.33 -35.11,4.94 -3.76,1.27 -7.42,2.87 -10.89,4.7 -0.48,0.25 -0.83,0.48 -1.39,0.76 -10.22,5.1 -19.72,13.65 -26.85,22.33 -7.76,9.44 -15.17,23.8 -17.83,35.92 -0.73,3.34 -1.96,8.29 2.6,8.73 5.78,0.55 13.37,2.14 18.68,3.89 3.8,1.26 3.76,1.49 6.08,-0.84 5.09,-5.1 8.43,-8.56 13.84,-13.03 0.71,-0.59 1.78,-1.34 2.5,-1.8 6.66,-4.26 13.45,-8.06 21.12,-10.33 7.65,-2.26 15.41,-3.67 23.48,-3.67z"></path> <path class="fil0" d="M2920.73 1013.52c-0.17,0.92 0.79,-0.16 0.33,-0.13 -0.62,0.04 -0.2,-0.56 -0.33,0.13z"></path> <path class="fil0" d="M2019.1 1169.08l203.94 -127.46 133.95 85.97 81.97 -17.99 101.96 61.98c0,0 153.94,-39.99 165.94,-33.99 12,6 111.96,29.99 111.96,29.99l161.79 -74.02 186.09 64.02 -22.37 39.64 -1101.39 11.57 -22.36 1.63 -1.5 -41.32z"></path> </g> </svg> 