<?xml version="1.0" encoding="UTF-8"?> <!-- Creator: CorelDRAW 2019 (64-Bit) --> <svg xmlns="http://www.w3.org/2000/svg" xmlns:xlink="http://www.w3.org/1999/xlink" xmlns:xodm="http://www.corel.com/coreldraw/odm/2003" xml:space="preserve" width="20.4805cm" height="9.17755cm" style="shape-rendering:geometricPrecision; text-rendering:geometricPrecision; image-rendering:optimizeQuality; fill-rule:evenodd; clip-rule:evenodd" viewBox="0 0 24210.83 10849.17"> <defs> <style type="text/css"> <![CDATA[ .fil0 {fill:#FCF0E4} ]]> </style> </defs> <g id="Слой_x0020_1"> <metadata id="CorelCorpID_0Corel-Layer"></metadata> <g id="_2028778144336"> <path class="fil0" d="M12717.51 2416.16c8.65,-44.2 18.6,-143.64 -72.32,-214.9 -111.5,-87.37 -256.91,-101.91 -302.97,-128.59 -46.03,-26.7 -237.37,-75.18 -239.97,-132.14 -2.57,57.18 -193.91,105.6 -239.99,132.33 -46.01,26.67 -191.44,41.23 -302.92,128.57 -91.63,71.83 -80.83,172.27 -72.17,215.93 -405.88,81.47 -783.36,241.68 -1115.86,463.9 -24.93,-37.2 -88.28,-115.03 -203.3,-101.1 -140.64,17.07 -253.71,109.61 -305.13,123.29 -51.46,13.68 -221.04,114.7 -263.12,76.3 38.57,42.23 -62.46,211.77 -76.14,263.22 -13.64,51.45 -106.23,164.58 -123.29,305.21 -14.06,115.91 65.22,179.34 102.03,203.87 -221.58,332.89 -380.97,710.68 -461.71,1116.78 -44.18,-8.65 -143.64,-18.58 -214.9,72.35 -87.36,111.5 -101.9,256.91 -128.58,302.96 -26.72,46.04 -75.2,237.39 -132.15,239.99 57.18,2.58 105.6,193.91 132.34,239.97 26.66,46.01 41.22,191.45 128.56,302.92 71.83,91.64 172.27,80.85 215.93,72.17 81.46,405.89 241.7,783.36 463.9,1115.88 -37.21,24.96 -115.03,88.29 -101.08,203.29 17.06,140.63 109.61,253.71 123.29,305.13 13.67,51.46 114.7,221.03 76.3,263.12 42.21,-38.59 211.76,62.45 263.2,76.14 51.45,13.64 164.58,106.22 305.21,123.27 115.9,14.06 179.32,-65.15 203.87,-101.97 332.9,221.58 710.69,380.96 1116.79,461.67 -8.64,44.18 -18.57,143.64 72.34,214.88 111.51,87.37 256.91,101.91 302.97,128.59 46.03,26.7 237.37,75.18 239.97,132.14 2.58,-57.18 193.91,-105.6 239.99,-132.33 46,-26.67 191.44,-41.23 302.92,-128.57 91.58,-71.79 80.86,-172.17 72.17,-215.88 405.89,-81.46 783.39,-241.67 1115.89,-463.92 24.97,37.24 88.32,115.01 203.27,101.07 140.64,-17.07 253.71,-109.62 305.13,-123.29 51.46,-13.68 221.04,-114.7 263.12,-76.31 -38.57,-42.21 62.46,-211.75 76.14,-263.2 13.64,-51.44 106.23,-164.58 123.29,-305.19 14.06,-115.87 -65.09,-179.3 -101.98,-203.87 221.62,-332.9 380.99,-710.7 461.7,-1116.81 44.18,8.64 143.64,18.57 214.87,-72.32 87.36,-111.51 101.9,-256.91 128.59,-302.97 26.69,-46.03 75.18,-237.39 132.14,-239.97 -57.18,-2.59 -105.6,-193.92 -132.33,-239.99 -26.68,-46.01 -41.23,-191.44 -128.57,-302.92 -71.79,-91.59 -172.17,-80.87 -215.88,-72.19 -81.5,-405.88 -241.69,-783.38 -463.93,-1115.87 37.2,-24.94 115.01,-88.29 101.08,-203.27 -17.07,-140.64 -109.62,-253.71 -123.3,-305.15 -13.67,-51.46 -114.7,-221.03 -76.3,-263.12 -42.21,38.59 -211.76,-62.45 -263.2,-76.14 -51.45,-13.64 -164.58,-106.23 -305.21,-123.27 -115.9,-14.07 -179.35,65.15 -203.9,101.97 -332.91,-221.55 -710.66,-380.98 -1116.78,-461.65zm-1219.45 -0.95l0 0c196.53,-38.72 399.55,-59.2 607.4,-59.2 205.63,0 406.6,20.1 601.15,58.02 8.68,-43.6 37.07,-140.63 149.26,-171.92 136.45,-38.04 276.38,4.14 329.14,-2.91 52.76,-7 248.08,21.42 272.31,-30.37 -19.36,53.6 138.87,171.6 171.2,213.84 32.31,42.33 161.1,111.43 230.7,234.81 56.84,100.85 9.2,189.11 -15.62,226.44 337.45,226.33 628.41,516.63 855.39,853.61 36.84,-24.69 125.7,-73.42 227.29,-16.1 123.39,69.53 192.48,198.3 234.76,230.67 42.31,32.28 160.27,190.57 214.09,171.06 -51.67,24.19 -23.19,219.49 -30.24,272.29 -7.02,52.74 35.16,192.64 -2.9,329.1 -31,111.29 -126.73,140.15 -170.83,149.02 38.72,196.51 59.2,399.55 59.2,607.4 0,205.63 -20.08,406.61 -58.01,601.15 43.6,8.68 140.63,37.13 171.88,149.27 38.04,136.45 -4.15,276.38 2.91,329.13 7,52.77 -21.42,248.1 30.37,272.32 -53.6,-19.38 -171.6,138.87 -213.84,171.2 -42.33,32.31 -111.44,161.09 -234.81,230.7 -100.8,56.83 -189.1,9.21 -226.45,-15.6 -226.34,337.44 -516.6,628.39 -853.6,855.37 24.68,36.86 73.41,125.7 16.1,227.29 -69.53,123.39 -198.3,192.46 -230.67,234.75 -32.3,42.31 -190.58,160.29 -171.07,214.09 -24.17,-51.67 -219.49,-23.18 -272.28,-30.24 -52.74,-7.02 -192.65,35.16 -329.06,-2.91 -111.32,-31 -140.19,-126.69 -149.07,-170.81 -196.51,38.7 -399.53,59.2 -607.3,59.2 -205.7,0 -406.66,-20.08 -601.24,-58.04 -8.68,43.61 -37.13,140.65 -149.27,171.91 -136.45,38.04 -276.38,-4.14 -329.14,2.9 -52.76,7.01 -248.08,-21.43 -272.31,30.38 19.36,-53.6 -138.87,-171.6 -171.2,-213.84 -32.31,-42.33 -161.1,-111.43 -230.7,-234.81 -56.83,-100.84 -9.2,-189.13 15.62,-226.44 -337.43,-226.37 -628.41,-516.63 -855.35,-853.62 -36.86,24.67 -125.72,73.43 -227.33,16.12 -123.39,-69.55 -192.48,-198.32 -234.76,-230.68 -42.31,-32.31 -160.29,-190.57 -214.09,-171.06 51.67,-24.17 23.19,-219.49 30.24,-272.29 7.02,-52.72 -35.16,-192.64 2.91,-329.08 31.01,-111.3 126.77,-140.2 170.85,-149.04 -38.7,-196.52 -59.21,-399.52 -59.21,-607.3 0,-205.69 20.1,-406.69 58.07,-601.24 -43.6,-8.67 -140.67,-37.06 -171.97,-149.27 -38.04,-136.45 4.14,-276.37 -2.9,-329.13 -7.01,-52.76 21.43,-248.1 -30.37,-272.32 53.59,19.38 171.59,-138.87 213.83,-171.19 42.33,-32.31 111.43,-161.1 234.81,-230.7 100.85,-56.84 189.18,-9.2 226.49,15.59 226.34,-337.43 516.61,-628.39 853.61,-855.37 -24.67,-36.81 -73.48,-125.65 -16.15,-227.29 69.53,-123.39 198.3,-192.46 230.67,-234.75 32.32,-42.31 190.58,-160.29 171.07,-214.09 24.17,51.67 219.49,23.18 272.28,30.24 52.74,7.02 192.64,-35.16 329.1,2.9 111.3,31.01 140.2,126.78 149.03,170.85z"></path> <path class="fil0" d="M13146.21 3039.91c0,0 39.55,-226.9 -105.13,-353.92 -144.67,-127.02 -342.49,-145.95 -405.17,-154.26 -62.63,-8.38 -290.33,-41.88 -342.35,-54.7 -52,-12.85 -164.54,-46.42 -170.65,-121.06 -6.14,74.81 -118.68,108.39 -170.67,121.25 -52.03,12.85 -279.71,46.32 -342.35,54.67 -62.7,8.35 -260.51,27.26 -405.18,154.29 -144.68,127.01 -105.09,353.86 -105.09,353.86l0.5 0c309.9,-127.79 649.35,-198.45 1005.33,-198.45 355.78,0 695.09,70.61 1004.84,198.3l35.91 0zm-2030.94 -21.02l0 0 -25.3 25.36c-641.04,267.5 -1154,780.63 -1421.45,1421.66l-0.25 0.3c0,0 -188.4,-132.42 -175.93,-324.59 12.51,-192.12 139,-345.33 177.4,-395.58 38.38,-50.17 175.69,-234.88 203.41,-280.75 27.7,-45.83 83.54,-149.17 34.94,-206.38 57.11,48.42 160.45,-7.42 206.32,-35.1 45.8,-27.7 230.47,-165.02 280.72,-203.43 50.21,-38.41 203.48,-164.94 395.57,-177.39 192.13,-12.48 324.56,175.91 324.56,175.91zm-1450.87 1421.23l0 0c0,0 -226.92,-39.55 -353.92,105.13 -127.03,144.66 -145.95,342.49 -154.27,405.16 -8.38,62.63 -41.88,290.35 -54.7,342.35 -12.85,52 -46.42,164.54 -121.06,170.65 74.81,6.15 108.4,118.7 121.26,170.68 12.85,52.03 46.3,279.71 54.67,342.35 8.33,62.7 27.25,260.51 154.28,405.18 127.01,144.68 353.86,105.09 353.86,105.09l0 -0.48c-127.79,-309.87 -198.43,-649.3 -198.43,-1005.26 0,-355.81 70.59,-695.11 198.3,-1004.88l0 -35.96zm-21.03 2030.94l0 0 25.32 25.29c267.48,641.08 780.67,1154.07 1421.77,1421.53l0.21 0.18c0,0 -132.42,188.4 -324.58,175.93 -192.13,-12.51 -345.35,-138.98 -395.58,-177.37 -50.18,-38.42 -234.88,-175.71 -280.76,-203.43 -45.84,-27.7 -149.17,-83.53 -206.37,-34.94 48.41,-57.11 -7.44,-160.45 -35.11,-206.32 -27.69,-45.81 -165.02,-230.48 -203.43,-280.72 -38.41,-50.22 -164.93,-203.48 -177.38,-395.56 -12.5,-192.16 175.9,-324.57 175.9,-324.57zm1421.23 1450.87l0 0c0,0 -39.55,226.91 105.13,353.93 144.67,127.02 342.49,145.94 405.17,154.27 62.63,8.36 290.33,41.86 342.35,54.66 52,12.85 164.54,46.45 170.65,121.07 6.14,-74.81 118.68,-108.39 170.67,-121.25 52.03,-12.85 279.72,-46.32 342.35,-54.67 62.71,-8.35 260.51,-27.25 405.18,-154.29 144.68,-127.01 105.09,-353.86 105.09,-353.86l-0.31 0c-309.93,127.81 -649.46,198.49 -1005.42,198.49 -355.86,0 -695.18,-70.62 -1004.97,-198.35l-35.88 0zm2030.94 21.02l0 0 25.19 -25.2c641.15,-267.54 1154.22,-780.76 1421.66,-1421.9l0.15 -0.19c0,0 188.4,132.42 175.94,324.58 -12.52,192.12 -139.01,345.35 -177.38,395.58 -38.42,50.18 -175.73,234.88 -203.45,280.76 -27.7,45.84 -83.53,149.19 -34.94,206.43 -57.11,-48.48 -160.44,7.38 -206.32,35.05 -45.8,27.69 -230.47,165 -280.72,203.45 -50.21,38.38 -203.48,164.91 -395.56,177.37 -192.15,12.48 -324.57,-175.91 -324.57,-175.91zm1450.87 -1421.23l0 0c0,0 226.92,39.57 353.92,-105.13 127.04,-144.66 145.95,-342.48 154.27,-405.16 8.38,-62.63 41.88,-290.33 54.7,-342.35 12.85,-52 46.42,-164.53 121.05,-170.65 -74.79,-6.14 -108.39,-118.68 -121.25,-170.67 -12.85,-52.03 -46.32,-279.72 -54.67,-342.35 -8.33,-62.71 -27.24,-260.51 -154.28,-405.18 -127.01,-144.68 -353.86,-105.09 -353.86,-105.09l0 0.34c127.84,309.93 198.49,649.46 198.49,1005.47 0,355.84 -70.62,695.16 -198.36,1004.97l0 35.78zm21.03 -2030.93l0 0 -25.24 -25.22c-267.54,-641.08 -780.67,-1154.14 -1421.82,-1421.56l-0.25 -0.22c0,0 132.42,-188.4 324.59,-175.94 192.12,12.52 345.34,139 395.57,177.42 50.18,38.38 234.88,175.69 280.76,203.41 45.84,27.7 149.19,83.54 206.43,34.94 -48.48,57.11 7.38,160.45 35.05,206.31 27.69,45.81 165.02,230.48 203.46,280.74 38.38,50.21 164.92,203.47 177.36,395.57 12.5,192.13 -175.9,324.56 -175.9,324.56z"></path> </g> <path class="fil0" d="M12774.07 9636.52c0,0 273.61,276.98 29.13,605.65 -244.48,328.68 -695.6,505.21 -697.22,600.42 -0.12,7.52 -0.41,8.39 -0.83,3.65 -0.11,-0.34 -0.18,-1.3 -0.25,-3.06 -0.14,-1.94 -0.28,-4.42 -0.44,-7.22 -13.7,-96.12 -455.75,-272.28 -696.85,-596.41 -244.49,-328.68 29.13,-605.66 29.13,-605.66 0,0 49.04,174.83 318.66,245.16 201.08,52.46 312.72,76.33 356.49,85.07 50.87,-10.47 159.9,-34.53 343.52,-82.43 269.62,-70.34 318.66,-245.16 318.66,-245.16z"></path> <path class="fil0" d="M12774.07 1212.65c0,0 273.61,-276.98 29.13,-605.65 -244.48,-328.68 -695.6,-505.21 -697.22,-600.42 -0.12,-7.52 -0.41,-8.39 -0.83,-3.65 -0.11,0.34 -0.18,1.3 -0.25,3.06 -0.14,1.94 -0.28,4.42 -0.44,7.22 -13.7,96.12 -455.75,272.28 -696.85,596.41 -244.49,328.68 29.13,605.66 29.13,605.66 0,0 49.04,-174.83 318.66,-245.16 201.08,-52.46 312.72,-76.33 356.49,-85.07 50.87,10.47 159.9,34.53 343.52,82.43 269.62,70.34 318.66,245.16 318.66,245.16z"></path> <g id="_2028778146512"> <g> <path class="fil0" d="M932.88 5664.49c130.6,0 236.43,-105.85 236.43,-236.35 0,-130.5 -105.83,-236.51 -236.43,-236.51 -130.66,0 -236.42,106.01 -236.42,236.51 0,130.5 105.75,236.35 236.42,236.35z"></path> <path class="fil0" d="M7185.31 5555.26c65.28,0 118.18,-52.91 118.18,-118.14 0,-65.23 -52.9,-118.21 -118.18,-118.21 -65.31,0 -118.18,52.98 -118.18,118.21 0,65.23 52.87,118.14 118.18,118.14z"></path> <path class="fil0" d="M541.88 5546.26c65.28,0 118.18,-52.91 118.18,-118.14 0,-65.23 -52.9,-118.21 -118.18,-118.21 -65.31,0 -118.18,52.98 -118.18,118.21 0,65.23 52.87,118.14 118.18,118.14z"></path> <path class="fil0" d="M118.18 5546.26c65.28,0 118.18,-52.91 118.18,-118.14 0,-65.23 -52.9,-118.21 -118.18,-118.21 -65.31,0 -118.18,52.98 -118.18,118.21 0,65.23 52.87,118.14 118.18,118.14z"></path> <path class="fil0" d="M4990.31 5039.4c-207.82,291.26 -311.29,411.74 -484.62,441.72 17.6,-0.02 17.6,0.15 0,0.15 173.3,30.3 276.8,150.51 484.62,441.88 207.54,291.07 610.84,286.4 610.84,286.4 0,0 73.52,-63.21 245.44,-236.5 -519.66,-3.19 -551.84,-421.95 -556.82,-491.78 4.99,-69.98 25.32,-468.41 545.49,-471.05 -152.96,-149.33 -248.63,-248.65 -248.63,-248.65 0,0 -388.77,-13.39 -596.31,277.83z"></path> <path class="fil0" d="M5867.49 5034.8c-207.82,291.26 -311.29,411.74 -484.61,441.72 17.6,-0.02 17.6,0.15 0,0.15 173.29,30.3 276.79,150.51 484.61,441.88 207.55,291.07 610.85,286.4 610.85,286.4 0,0 73.51,-63.21 245.44,-236.5 -519.66,-3.19 -551.85,-421.95 -556.82,-491.78 4.98,-69.98 25.32,-468.41 545.48,-471.05 -152.95,-149.33 -248.62,-248.65 -248.62,-248.65 0,0 -388.77,-13.39 -596.32,277.83z"></path> <g> <path class="fil0" d="M8679.78 4329.45c-1382.99,-264.65 -1522.49,707.25 -2267.64,698.6 -901.79,-10.32 -932.19,-1105.69 -358.08,-1358.19 515.3,-226.59 779.47,330.68 623.05,540.25 -186.27,250.44 -548.01,100 -495.53,-141.76 52.63,-241.56 225,-162.91 225,-162.91 0,0 -359.42,-159.25 -482.73,198.94 -123.32,358.28 343.94,674.52 764.91,494.93 278.57,-118.86 1248.93,-966.77 1991.03,-269.86z"></path> <path class="fil0" d="M8679.75 6665.66c-1385.75,250.93 -1516.03,-722.15 -2261.18,-721.32 -901.7,1.18 -942.62,1096.32 -370.33,1354.43 512.55,231.94 782.14,-322.88 627.58,-533.69 -184.15,-252.09 -546.92,-105.58 -496.57,136.69 50.11,242.14 222.76,164.99 222.76,164.99 0,0 -360.66,155.82 -480.35,-203.53 -119.95,-359.45 349.98,-671.18 769.2,-487.43 277.46,122.03 1240.08,979.63 1988.89,289.86z"></path> </g> <g> <path class="fil0" d="M9804.79 2908.83c0,0 -626.75,-943.98 168.46,-1829.67 795.03,-885.54 1743.4,-139.87 1559.14,439.99 -157.66,495.35 -652.51,465.83 -757.42,161.67 -104.77,-304.08 457.03,-589.12 491.64,-148.88 77.61,-363.26 -373.2,-675.75 -741.84,-503.97 -471.88,219.87 -946.62,967.84 -719.97,1880.86z"></path> <path class="fil0" d="M9792.27 8053.05c0,0 -626.75,943.98 168.46,1829.67 795.03,885.54 1743.4,139.87 1559.14,-439.99 -157.66,-495.35 -652.51,-465.83 -757.42,-161.67 -104.77,304.08 457.03,589.12 491.64,148.88 77.61,363.26 -373.2,675.75 -741.84,503.97 -471.88,-219.87 -946.62,-967.84 -719.97,-1880.86z"></path> </g> <path class="fil0" d="M8717.08 7775.19c-293.68,-302.46 -311.67,-768.31 -74.85,-1128.53 -128.59,42.97 -250.79,112.07 -355.84,209.77 -391.93,363.82 -408.31,969.06 -36.62,1352.38 371.28,383.57 989.58,399.61 1381.46,35.84 105.07,-97.46 182.58,-213.15 233.22,-335.94 -380.33,211.89 -854.31,169.64 -1147.38,-133.52z"></path> <path class="fil0" d="M8742.47 3186.66c-293.68,302.46 -311.66,768.31 -74.85,1128.53 -128.59,-42.97 -250.79,-112.07 -355.84,-209.77 -391.93,-363.82 -408.31,-969.06 -36.61,-1352.38 371.26,-383.57 989.57,-399.61 1381.45,-35.84 105.08,97.46 182.59,213.14 233.22,335.94 -380.33,-211.89 -854.31,-169.64 -1147.38,133.52z"></path> <path class="fil0" d="M6649.69 5742.7c150.7,0 272.83,-119.7 272.83,-267.27 0,-147.55 -122.13,-267.44 -272.83,-267.44 -150.79,0 -272.84,119.88 -272.84,267.44 0,147.57 122.04,267.27 272.84,267.27z"></path> <g> <path class="fil0" d="M2706.81 5425.9c0,0 -196.6,-421.85 -601.46,-367.35 -404.9,54.43 -666.43,350.45 -862.22,362.04 194.84,23.9 440.17,335.5 841.43,415.03 401.23,79.48 620.25,-329.46 620.25,-329.46 -363.43,152.91 -692.42,-58.66 -827.22,-65.79 135,1.31 474.71,-189.7 829.23,-14.47z"></path> <path class="fil0" d="M4767.74 4956.73c130.6,0 236.43,-105.85 236.43,-236.35 0,-130.5 -105.83,-236.51 -236.43,-236.51 -130.66,0 -236.42,106.01 -236.42,236.51 0,130.5 105.75,236.35 236.42,236.35z"></path> <path class="fil0" d="M4788.59 6415.65c130.6,0 236.43,-105.85 236.43,-236.35 0,-130.5 -105.83,-236.51 -236.43,-236.51 -130.66,0 -236.42,106.01 -236.42,236.51 0,130.5 105.75,236.35 236.42,236.35z"></path> <path class="fil0" d="M3743.67 6126.51c0,0 -459.79,-75.31 -657.33,372.5 -197.5,447.71 242.34,677.12 428.54,510.01 159.01,-142.85 64.28,-323.34 -67.46,-311.23 -131.69,12.13 -143.55,270.91 27.32,209.45 -123.04,90.5 -316.39,-25.64 -314.33,-192.85 2.64,-214.05 202.73,-518.46 583.27,-587.88z"></path> <path class="fil0" d="M3871.07 4918.76c0,0 -459.79,75.31 -657.33,-372.5 -197.51,-447.71 242.34,-677.12 428.54,-510 159.01,142.84 64.28,323.33 -67.46,311.22 -131.7,-12.13 -143.55,-270.9 27.32,-209.45 -123.04,-90.5 -316.39,25.64 -314.33,192.85 2.62,214.05 202.73,518.46 583.27,587.88z"></path> <path class="fil0" d="M3508.68 5992.16c0,0 -574.17,-337.06 -1008.83,-93.2 -434.86,243.79 -375.72,727.1 -30.64,682.3 373.26,-48.56 408.02,-617.42 1039.47,-589.1z"></path> <path class="fil0" d="M3508.68 4976.13c0,0 -574.17,337.06 -1008.83,93.2 -434.86,-243.79 -375.72,-727.1 -30.64,-682.3 373.26,48.56 408.02,617.42 1039.47,589.1z"></path> <g> <path class="fil0" d="M4062.42 5711.03c0,0 -838.22,-61.28 -1205.7,-195.43 -367.48,-134.16 1195.74,-237.79 1195.74,-237.79 0,0 87.32,72.97 219.18,214.26l-209.22 218.96z"></path> <path class="fil0" d="M3358.41 5899.28c0,0 202.57,87.6 325.05,70.11 122.49,-17.5 313.65,-20.26 399.87,-181.55 86.23,-161.3 220.52,-246.57 337.17,-211.58 116.65,35 296.98,136.36 326.15,241.36 29.16,105 -180.83,-93.33 -279.99,-46.66 -99.16,46.66 -134.15,64.15 -122.49,134.15 11.67,69.99 180.82,128.33 180.82,128.33 0,0 -110.83,198.32 -449.13,174.98 -338.32,-23.32 -717.45,-309.14 -717.45,-309.14z"></path> <path class="fil0" d="M3345.89 5078.33c0,0 202.57,-87.61 325.07,-70.11 122.48,17.48 313.63,20.26 399.86,181.55 86.23,161.29 220.53,246.57 337.17,211.57 116.65,-34.99 296.99,-136.36 326.15,-241.35 29.16,-105 -180.82,93.33 -279.99,46.66 -99.16,-46.66 -134.15,-64.17 -122.49,-134.16 11.67,-69.99 180.83,-128.32 180.83,-128.32 0,0 -110.83,-198.32 -449.14,-174.99 -338.32,23.34 -717.45,309.15 -717.45,309.15z"></path> </g> </g> <g> <path class="fil0" d="M8642.22 5666.79c0,0 -125.13,230.99 -431.21,202.29 -356.77,-32.33 -481.76,-415.19 -762.33,-429.76 280.57,-14.58 405.56,-397.44 762.33,-429.77 306.08,-28.7 431.21,202.29 431.21,202.29l0 454.95z"></path> <path class="fil0" d="M7942.97 5976.59c0,0 323.77,153.13 542.01,-2.22 218.11,-155.83 160.61,-415.22 -20.57,-372.78 -195.87,45.99 -183.98,357.28 -521.44,375z"></path> <path class="fil0" d="M7968.43 4897.57c0,0 323.77,-153.13 542.02,2.22 218.09,155.83 160.61,415.22 -20.58,372.78 -195.87,-45.99 -183.98,-357.28 -521.44,-375z"></path> </g> </g> <g> <path class="fil0" d="M23277.95 5664.48c-130.6,0 -236.43,-105.85 -236.43,-236.35 0,-130.5 105.83,-236.51 236.43,-236.51 130.66,0 236.42,106.01 236.42,236.51 0,130.5 -105.75,236.35 -236.42,236.35z"></path> <path class="fil0" d="M17025.52 5555.25c-65.28,0 -118.18,-52.91 -118.18,-118.14 0,-65.23 52.9,-118.21 118.18,-118.21 65.31,0 118.18,52.98 118.18,118.21 0,65.23 -52.87,118.14 -118.18,118.14z"></path> <path class="fil0" d="M23668.94 5546.24c-65.28,0 -118.18,-52.91 -118.18,-118.14 0,-65.23 52.9,-118.21 118.18,-118.21 65.31,0 118.18,52.98 118.18,118.21 0,65.23 -52.87,118.14 -118.18,118.14z"></path> <path class="fil0" d="M24092.65 5546.24c-65.28,0 -118.18,-52.91 -118.18,-118.14 0,-65.23 52.9,-118.21 118.18,-118.21 65.31,0 118.18,52.98 118.18,118.21 0,65.23 -52.87,118.14 -118.18,118.14z"></path> <path class="fil0" d="M19220.52 5039.39c207.82,291.26 311.29,411.74 484.62,441.72 -17.6,-0.02 -17.6,0.15 0,0.15 -173.3,30.3 -276.8,150.51 -484.62,441.88 -207.54,291.07 -610.84,286.4 -610.84,286.4 0,0 -73.52,-63.21 -245.44,-236.5 519.66,-3.19 551.84,-421.95 556.82,-491.78 -4.99,-69.98 -25.32,-468.41 -545.49,-471.05 152.96,-149.33 248.63,-248.65 248.63,-248.65 0,0 388.77,-13.39 596.31,277.83z"></path> <path class="fil0" d="M18343.33 5034.79c207.82,291.26 311.29,411.74 484.61,441.72 -17.6,-0.02 -17.6,0.15 0,0.15 -173.29,30.3 -276.79,150.51 -484.61,441.88 -207.55,291.07 -610.85,286.4 -610.85,286.4 0,0 -73.51,-63.21 -245.44,-236.5 519.66,-3.19 551.85,-421.95 556.82,-491.78 -4.98,-69.98 -25.32,-468.41 -545.48,-471.05 152.95,-149.33 248.62,-248.65 248.62,-248.65 0,0 388.77,-13.39 596.32,277.83z"></path> <g> <path class="fil0" d="M15531.04 4329.44c1382.99,-264.65 1522.49,707.25 2267.64,698.6 901.79,-10.32 932.19,-1105.69 358.08,-1358.19 -515.3,-226.59 -779.47,330.68 -623.05,540.25 186.27,250.44 548.01,100 495.53,-141.76 -52.63,-241.56 -225,-162.91 -225,-162.91 0,0 359.42,-159.25 482.73,198.94 123.32,358.28 -343.94,674.52 -764.91,494.93 -278.57,-118.86 -1248.93,-966.77 -1991.03,-269.86z"></path> <path class="fil0" d="M15531.08 6665.65c1385.75,250.93 1516.03,-722.15 2261.18,-721.32 901.7,1.18 942.62,1096.32 370.33,1354.43 -512.55,231.94 -782.14,-322.88 -627.58,-533.69 184.15,-252.09 546.92,-105.58 496.57,136.69 -50.11,242.14 -222.76,164.99 -222.76,164.99 0,0 360.66,155.82 480.35,-203.53 119.95,-359.45 -349.98,-671.18 -769.2,-487.43 -277.46,122.03 -1240.08,979.63 -1988.89,289.86z"></path> </g> <g> <path class="fil0" d="M14406.03 2908.81c0,0 626.75,-943.98 -168.46,-1829.67 -795.03,-885.54 -1743.4,-139.87 -1559.14,439.99 157.66,495.35 652.51,465.83 757.42,161.67 104.77,-304.08 -457.03,-589.12 -491.64,-148.88 -77.61,-363.26 373.2,-675.75 741.84,-503.97 471.88,219.87 946.62,967.84 719.97,1880.86z"></path> <path class="fil0" d="M14418.55 8053.04c0,0 626.75,943.98 -168.46,1829.67 -795.03,885.54 -1743.4,139.87 -1559.14,-439.99 157.66,-495.35 652.51,-465.83 757.42,-161.67 104.77,304.08 -457.03,589.12 -491.64,148.88 -77.61,363.26 373.2,675.75 741.84,503.97 471.88,-219.87 946.62,-967.84 719.97,-1880.86z"></path> </g> <path class="fil0" d="M15493.75 7775.17c293.68,-302.46 311.67,-768.31 74.85,-1128.53 128.59,42.97 250.79,112.07 355.84,209.77 391.93,363.82 408.31,969.06 36.62,1352.38 -371.28,383.57 -989.58,399.61 -1381.46,35.84 -105.07,-97.46 -182.58,-213.15 -233.22,-335.94 380.33,211.89 854.31,169.64 1147.38,-133.52z"></path> <path class="fil0" d="M15468.35 3186.65c293.68,302.46 311.66,768.31 74.85,1128.53 128.59,-42.97 250.79,-112.07 355.84,-209.77 391.93,-363.82 408.31,-969.06 36.61,-1352.38 -371.26,-383.57 -989.57,-399.61 -1381.45,-35.84 -105.08,97.46 -182.59,213.14 -233.22,335.94 380.33,-211.89 854.31,-169.64 1147.38,133.52z"></path> <path class="fil0" d="M17561.13 5742.69c-150.7,0 -272.83,-119.7 -272.83,-267.27 0,-147.55 122.13,-267.44 272.83,-267.44 150.79,0 272.84,119.88 272.84,267.44 0,147.57 -122.04,267.27 -272.84,267.27z"></path> <g> <path class="fil0" d="M21504.02 5425.89c0,0 196.6,-421.85 601.46,-367.35 404.9,54.43 666.43,350.45 862.22,362.04 -194.84,23.9 -440.17,335.5 -841.43,415.03 -401.23,79.48 -620.25,-329.46 -620.25,-329.46 363.43,152.91 692.42,-58.66 827.22,-65.79 -135,1.31 -474.71,-189.7 -829.23,-14.47z"></path> <path class="fil0" d="M19443.08 4956.72c-130.6,0 -236.43,-105.85 -236.43,-236.35 0,-130.5 105.83,-236.51 236.43,-236.51 130.66,0 236.42,106.01 236.42,236.51 0,130.5 -105.75,236.35 -236.42,236.35z"></path> <path class="fil0" d="M19422.24 6415.64c-130.6,0 -236.43,-105.85 -236.43,-236.35 0,-130.5 105.83,-236.51 236.43,-236.51 130.66,0 236.42,106.01 236.42,236.51 0,130.5 -105.75,236.35 -236.42,236.35z"></path> <path class="fil0" d="M20467.16 6126.5c0,0 459.79,-75.31 657.33,372.5 197.5,447.71 -242.34,677.12 -428.54,510.01 -159.01,-142.85 -64.28,-323.34 67.46,-311.23 131.69,12.13 143.55,270.91 -27.32,209.45 123.04,90.5 316.39,-25.64 314.33,-192.85 -2.64,-214.05 -202.73,-518.46 -583.27,-587.88z"></path> <path class="fil0" d="M20339.76 4918.75c0,0 459.79,75.31 657.33,-372.5 197.51,-447.71 -242.34,-677.12 -428.54,-510 -159.01,142.84 -64.28,323.33 67.46,311.22 131.7,-12.13 143.55,-270.9 -27.32,-209.45 123.04,-90.5 316.39,25.64 314.33,192.85 -2.62,214.05 -202.73,518.46 -583.27,587.88z"></path> <path class="fil0" d="M20702.15 5992.15c0,0 574.17,-337.06 1008.83,-93.2 434.86,243.79 375.72,727.1 30.64,682.3 -373.26,-48.56 -408.02,-617.42 -1039.47,-589.1z"></path> <path class="fil0" d="M20702.15 4976.12c0,0 574.17,337.06 1008.83,93.2 434.86,-243.79 375.72,-727.1 30.64,-682.3 -373.26,48.56 -408.02,617.42 -1039.47,589.1z"></path> <g> <path class="fil0" d="M20148.41 5711.02c0,0 838.22,-61.28 1205.7,-195.43 367.48,-134.16 -1195.74,-237.79 -1195.74,-237.79 0,0 -87.32,72.97 -219.18,214.26l209.22 218.96z"></path> <path class="fil0" d="M20852.42 5899.27c0,0 -202.57,87.6 -325.05,70.11 -122.49,-17.5 -313.65,-20.26 -399.87,-181.55 -86.23,-161.3 -220.52,-246.57 -337.17,-211.58 -116.65,35 -296.98,136.36 -326.15,241.36 -29.16,105 180.83,-93.33 279.99,-46.66 99.16,46.66 134.15,64.15 122.49,134.15 -11.67,69.99 -180.82,128.33 -180.82,128.33 0,0 110.83,198.32 449.13,174.98 338.32,-23.32 717.45,-309.14 717.45,-309.14z"></path> <path class="fil0" d="M20864.94 5078.32c0,0 -202.57,-87.61 -325.07,-70.11 -122.48,17.48 -313.63,20.26 -399.86,181.55 -86.23,161.29 -220.53,246.57 -337.17,211.57 -116.65,-34.99 -296.99,-136.36 -326.15,-241.35 -29.16,-105 180.82,93.33 279.99,46.66 99.16,-46.66 134.15,-64.17 122.49,-134.16 -11.67,-69.99 -180.83,-128.32 -180.83,-128.32 0,0 110.83,-198.32 449.14,-174.99 338.32,23.34 717.45,309.15 717.45,309.15z"></path> </g> </g> <g> <path class="fil0" d="M15568.61 5666.78c0,0 125.13,230.99 431.21,202.29 356.77,-32.33 481.76,-415.19 762.33,-429.76 -280.57,-14.58 -405.56,-397.44 -762.33,-429.77 -306.08,-28.7 -431.21,202.29 -431.21,202.29l0 454.95z"></path> <path class="fil0" d="M16267.86 5976.58c0,0 -323.77,153.13 -542.01,-2.22 -218.11,-155.83 -160.61,-415.22 20.57,-372.78 195.87,45.99 183.98,357.28 521.44,375z"></path> <path class="fil0" d="M16242.4 4897.56c0,0 -323.77,-153.13 -542.02,2.22 -218.09,155.83 -160.61,415.22 20.58,372.78 195.87,-45.99 183.98,-357.28 521.44,-375z"></path> </g> </g> </g> <g id="_1994149842624"> <path class="fil0" d="M12078.08 5254.1c0,0 -461.38,-283.48 -367.89,-799.67 93.42,-516.27 448.68,-830.87 477.42,-1081.67 -10.59,310.35 -21.93,642 -27.57,813.1 -5.89,171.13 -253.13,596.53 -81.96,1068.24z"></path> <path class="fil0" d="M12169.08 5257.19c0,0 479.58,-251.43 421.26,-772.94 -58.15,-521.27 -391.27,-859.26 -402.86,-1111.37 -10.46,310.23 -21.8,641.88 -27.63,813.15 -5.78,170.87 212.27,612.14 9.23,1071.16z"></path> <path class="fil0" d="M12146.18 6154.4c0,0 -21.56,-690.21 535.31,-1195.96 556.54,-505.66 971.63,-371.59 1203.81,-588.54 -456.6,1310.88 -1320.96,944.38 -1739.12,1784.5z"></path> <path class="fil0" d="M12084.88 6157.54c0,0 68.33,-687.16 -453.01,-1229.27 -520.96,-542.22 -944.2,-436.61 -1161.22,-668.89 366.81,1338.75 1253.9,1031.76 1614.23,1898.17z"></path> <path class="fil0" d="M13612.18 6769.11c0,0 -93.4,-529.72 -473.41,-662.22 -380.15,-132.1 -648.29,163.63 -438.74,348.67 226.46,200.07 597.37,-84.56 912.15,313.55z"></path> <path class="fil0" d="M10469.89 6530.28c0,0 257.26,-472.37 659.69,-476.94 402.42,-4.14 562.39,361.61 304.83,470.26 -278.39,117.5 -539.33,-270.44 -964.52,6.68z"></path> <path class="fil0" d="M12862.31 4461.14c0,0 -165.98,-78.42 -117.97,-343.59 48.01,-265.19 521.04,-252.49 535.79,-381.32 -5.44,159.42 90.43,334.63 -4.48,587.16 -70.8,160.53 -322.12,215.04 -413.35,137.76z"></path> <path class="fil0" d="M11519.36 4442.83c0,0 165.98,-78.42 117.97,-343.59 -48.01,-265.19 -521.04,-252.49 -535.79,-381.32 5.44,159.42 -90.43,334.63 4.48,587.16 70.8,160.53 322.11,215.06 413.35,137.76z"></path> <path class="fil0" d="M12417.65 5982.28c0,0 312.25,-445.06 901.88,-500.84 589.39,-55.87 787.64,224.56 1036.35,197.48 -906.55,610.4 -1278.14,-28.57 -1938.23,303.36z"></path> <path class="fil0" d="M11750.02 5971.04c0,0 -310.27,-464.61 -914.6,-535.65 -604.16,-71.29 -814.45,212.12 -1069.41,178.42 916.96,648.35 1313.74,0.78 1984.01,357.23z"></path> <ellipse class="fil0" cx="12133.54" cy="6782.81" rx="148.02" ry="152.38"></ellipse> <ellipse class="fil0" cx="12139" cy="5395.78" rx="148.02" ry="76.19"></ellipse> <ellipse class="fil0" cx="12126.42" cy="6157.54" rx="406.54" ry="418.53"></ellipse> <path class="fil0" d="M12126.43 7536.23c150.7,0 272.83,-119.7 272.83,-267.27 0,-147.55 -122.13,-267.44 -272.83,-267.44 -150.79,0 -272.84,119.88 -272.84,267.44 0,147.57 122.04,267.27 272.84,267.27z"></path> <rect class="fil0" x="12077.99" y="5407.97" width="96.06" height="472.12"></rect> </g> <circle class="fil0" cx="12109.12" cy="1286.7" r="277.85"></circle> <circle class="fil0" cx="12081.43" cy="9597.81" r="277.85"></circle> </g> </svg> 