<?xml version="1.0" encoding="UTF-8"?> <!-- Creator: CorelDRAW 2019 (64-Bit) --> <svg xmlns="http://www.w3.org/2000/svg" xmlns:xlink="http://www.w3.org/1999/xlink" xmlns:xodm="http://www.corel.com/coreldraw/odm/2003" xml:space="preserve" width="23.2409cm" height="8.08444cm" style="shape-rendering:geometricPrecision; text-rendering:geometricPrecision; image-rendering:optimizeQuality; fill-rule:evenodd; clip-rule:evenodd" viewBox="0 0 26870.06 9346.84"> <defs> <style type="text/css"> <![CDATA[ .fil0 {fill:#FCF0E4} .fil1 {fill:#FCF0E4;fill-rule:nonzero} ]]> </style> </defs> <g id="Слой_x0020_1"> <metadata id="CorelCorpID_0Corel-Layer"></metadata> <g id="_2028792715664"> <g> <path class="fil0" d="M13373.11 9346.84c212.04,-64.64 851.9,-1141.64 395.45,-1369.28 -81.09,-40.43 -186.68,-44.63 -254.86,17.61 -68.19,62.22 -69.91,129.13 -113.82,155.55 -43.96,26.43 -80.17,-110.7 -123.44,-151.13 -43.29,-40.48 -161.97,-59.56 -215.3,-44.06 -578.34,168.16 55.16,1254.45 311.98,1391.31z"></path> <path class="fil0" d="M14973.18 9074.41c177.13,-133.27 410.05,-1364.16 -96.72,-1421.94 -90.02,-10.27 -190.7,21.91 -233.47,103.71 -42.79,81.8 -21.53,145.26 -53.75,185.1 -32.27,39.86 -113.2,-76.61 -167.69,-99.8 -54.52,-23.23 -172.58,-0.58 -217.39,32.23 -485.94,355.83 480.89,1159.93 769.03,1200.7z"></path> <path class="fil0" d="M16383.57 8271.16c120.86,-185.82 -81.25,-1422.15 -577.22,-1303.12 -88.11,21.16 -171.7,85.82 -183.92,177.32 -12.24,91.5 29.45,143.85 12.79,192.31 -16.68,48.5 -132.58,-33.27 -191.71,-36.43 -59.17,-3.18 -162.35,58.49 -193.24,104.64 -334.95,500.58 848.6,925.51 1133.31,865.28z"></path> <path class="fil0" d="M17434.17 7033.96c50.04,-215.95 -562.75,-1308.58 -988.09,-1027.1 -75.57,50 -132,139.36 -112.19,229.53 19.8,90.16 76.88,125.1 77.81,176.32 0.9,51.29 -135.98,14.08 -192.61,31.34 -56.69,17.26 -132.55,110.48 -145.8,164.43 -143.54,584.94 1113.98,579.45 1360.9,425.48z"></path> <path class="fil0" d="M17461.68 2360.55c-162,-151.31 -1414.63,-166.95 -1383.53,342.15 5.53,90.43 54.67,184 142.67,211.92 87.98,27.94 146.79,-4.02 191.61,20.8 44.87,24.85 -55.77,124.78 -69.16,182.48 -13.41,57.72 29.4,170.04 69.51,208.48 434.81,416.78 1058.79,-675 1048.91,-965.83z"></path> <path class="fil0" d="M16425.72 1111.07c-203.98,-86.78 -1386.42,326.96 -1183.08,794.72 36.13,83.09 114.32,154.21 206.55,150.35 92.24,-3.84 136.56,-53.98 187.17,-45.99 50.66,8 -9.73,136.33 -2.57,195.12 7.15,58.83 85.77,149.72 136.6,172.13 551.14,242.94 764.08,-996.42 655.33,-1266.32z"></path> <path class="fil0" d="M15024.89 291.26c-221.37,-11.77 -1190.99,781.43 -839.92,1151.44 62.36,65.73 160.17,105.8 245.52,70.63 85.35,-35.15 109.86,-97.43 160.14,-107.23 50.35,-9.8 37.48,131.45 64.33,184.24 26.83,52.82 131.81,111.35 187.23,115.01 600.99,39.79 377.21,-1197.65 182.71,-1414.09z"></path> <path class="fil0" d="M13428.14 0c-212.04,64.65 -851.89,1141.64 -395.45,1369.27 81.09,40.44 186.71,44.65 254.86,-17.6 68.19,-62.22 69.91,-129.13 113.82,-155.54 43.96,-26.44 80.18,110.7 123.45,151.13 43.29,40.47 161.94,59.55 215.29,44.04 578.34,-168.15 -55.16,-1254.44 -311.98,-1391.3z"></path> <path class="fil0" d="M11828.09 272.44c-177.13,133.27 -410.04,1364.16 96.71,1421.94 90.02,10.27 190.7,-21.91 233.47,-103.71 42.79,-81.8 21.53,-145.26 53.75,-185.09 32.28,-39.88 113.21,76.61 167.71,99.79 54.5,23.23 172.56,0.59 217.36,-32.23 485.97,-355.83 -480.89,-1159.93 -769,-1200.7z"></path> <path class="fil0" d="M10417.7 1075.68c-120.86,185.82 81.24,1422.14 577.21,1303.11 88.11,-21.13 171.72,-85.81 183.93,-177.31 12.23,-91.5 -29.46,-143.85 -12.79,-192.3 16.68,-48.51 132.58,33.26 191.71,36.41 59.17,3.19 162.35,-58.47 193.23,-104.63 334.96,-500.58 -848.6,-925.51 -1133.3,-865.28z"></path> <path class="fil0" d="M9367.09 2312.88c-50.03,215.95 562.75,1308.58 988.09,1027.1 75.55,-50 132.02,-139.36 112.19,-229.52 -19.79,-90.17 -76.88,-125.11 -77.8,-176.34 -0.91,-51.29 135.98,-14.08 192.61,-31.35 56.69,-17.24 132.56,-110.47 145.78,-164.42 143.56,-584.94 -1113.95,-579.45 -1360.88,-425.48z"></path> <path class="fil0" d="M9339.57 6986.31c162,151.31 1414.64,166.94 1383.54,-342.17 -5.53,-90.42 -54.69,-184 -142.67,-211.91 -87.98,-27.94 -146.79,4.02 -191.61,-20.8 -44.87,-24.85 55.78,-124.78 69.14,-182.48 13.42,-57.72 -29.38,-170.04 -69.47,-208.47 -434.82,-416.79 -1058.82,674.98 -1048.93,965.83z"></path> <path class="fil0" d="M10375.54 8235.78c203.98,86.77 1386.42,-326.96 1183.07,-794.74 -36.12,-83.08 -114.31,-154.2 -206.54,-150.33 -92.24,3.84 -136.56,53.99 -187.18,45.99 -50.66,-8 9.75,-136.33 2.57,-195.12 -7.13,-58.83 -85.75,-149.73 -136.59,-172.13 -551.14,-242.93 -764.09,996.42 -655.33,1266.33z"></path> <path class="fil0" d="M11776.36 9055.59c221.37,11.77 1190.98,-781.42 839.92,-1151.44 -62.36,-65.73 -160.16,-105.81 -245.51,-70.63 -85.36,35.15 -109.87,97.43 -160.15,107.23 -50.35,9.8 -37.47,-131.45 -64.32,-184.24 -26.83,-52.82 -131.81,-111.36 -187.24,-115.03 -600.98,-39.78 -377.21,1197.67 -182.71,1414.1z"></path> <path class="fil0" d="M12462.09 561.36c0,0 225.23,144.5 282.47,288.67 12.52,31.53 32.9,50.08 33.34,27.82 1.84,-94.25 50.51,-269.36 171.34,-393.75 -86.97,-196.37 -269.63,-259.94 -288.33,-255.37 -18.68,4.56 -170.16,138.77 -198.82,332.64z"></path> <path class="fil0" d="M11112.3 1130.35c0,0 261.07,58.74 364.18,174.65 22.53,25.34 48.04,35.82 40.84,14.74 -30.51,-89.2 -44.66,-270.39 26.35,-428.62 -148.9,-154.79 -342.27,-152.03 -358.29,-141.36 -16,10.68 -112.44,188.61 -73.07,380.59z"></path> <path class="fil0" d="M10038.51 2126.67c0,0 265.43,-34.08 401.95,39.56 29.85,16.11 57.39,17.23 43.43,-0.13 -59.2,-73.38 -134.46,-238.8 -121.85,-411.78 -192.85,-94.53 -373.63,-25.81 -385.02,-10.29 -11.4,15.5 -41.15,215.69 61.5,382.63z"></path> <path class="fil0" d="M9323.48 3415.25c0,0 242.65,-112.84 395.06,-83.98 33.33,6.3 59.91,-0.96 41.34,-13.26 -78.62,-52.03 -200.44,-186.9 -240.79,-355.56 -212.41,-31.71 -363.91,88.52 -370.06,106.75 -6.17,18.23 26.08,218.03 174.45,346.06z"></path> <path class="fil0" d="M10308.81 7542.17c0,0 12.52,-267.3 108.75,-388.95 21.05,-26.61 26.93,-53.54 7.42,-42.79 -82.55,45.54 -258.53,90.94 -426.68,48.49 -126.59,173.5 -90.3,363.46 -77,377.38 13.28,13.92 205.27,77.98 387.51,5.87z"></path> <path class="fil0" d="M11476.47 8426.63c0,0 -79.67,-255.46 -30.83,-402.69 10.67,-32.21 6.98,-59.52 -7.68,-42.75 -61.98,71.03 -211.83,173.89 -384.36,191.49 -59.6,206.34 39.47,372.43 56.73,380.98 17.24,8.52 219.55,3.05 366.14,-127.03z"></path> <path class="fil0" d="M12876.19 8858.38c0,0 -162.23,-212.81 -166.71,-367.85 -0.98,-33.91 -13.79,-58.33 -21.83,-37.54 -33.96,87.94 -139.58,235.84 -295.69,311.4 14.56,214.27 164.46,336.46 183.6,338.59 19.13,2.1 207.38,-72.22 300.62,-244.6z"></path> <path class="fil0" d="M14339.17 8785.36c0,0 -225.23,-144.48 -282.46,-288.65 -12.52,-31.53 -32.9,-50.08 -33.35,-27.82 -1.83,94.26 -50.5,269.36 -171.35,393.75 86.98,196.37 269.63,259.93 288.34,255.37 18.68,-4.56 170.16,-138.78 198.82,-332.66z"></path> <path class="fil0" d="M15688.95 8216.38c0,0 -261.06,-58.74 -364.15,-174.64 -22.54,-25.34 -48.06,-35.81 -40.85,-14.73 30.52,89.2 44.66,270.39 -26.35,428.61 148.89,154.79 342.27,152.03 358.28,141.35 16.01,-10.67 112.44,-188.6 73.07,-380.59z"></path> <path class="fil0" d="M16762.73 7220.06c0,0 -265.41,34.08 -401.91,-39.55 -29.86,-16.11 -57.4,-17.22 -43.44,0.13 59.2,73.37 134.45,238.8 121.84,411.78 192.86,94.53 373.63,25.79 385.03,10.29 11.4,-15.5 41.15,-215.7 -61.52,-382.64z"></path> <path class="fil0" d="M17998.28 5512.06c-26.86,-220.04 -976.38,-1037.21 -1279.8,-627.22 -53.9,72.84 -76.38,176.11 -26.92,254.05 49.44,77.96 115.01,91.27 133.42,139.1 18.39,47.88 -122.96,59.73 -170.28,95.34 -47.38,35.6 -86.78,149.14 -80.77,204.37 65.17,598.75 1244.97,163.5 1424.35,-65.63z"></path> <path class="fil0" d="M18007.83 3889c-100.48,-197.59 -1272.23,-640.7 -1417.14,-151.68 -25.72,86.87 -11.53,191.61 61.6,247.94 73.12,56.35 139.3,46.42 172.95,85.07 33.66,38.7 -95.11,98.19 -127.41,147.83 -32.34,49.66 -30.52,169.84 -6,219.68 266.04,540.35 1225.82,-272.17 1316,-548.84z"></path> <path class="fil0" d="M8802.99 3834.8c26.85,220.04 976.37,1037.2 1279.8,627.2 53.9,-72.81 76.39,-176.09 26.92,-254.04 -49.44,-77.96 -115.03,-91.27 -133.41,-139.1 -18.41,-47.88 122.95,-59.73 170.27,-95.34 47.37,-35.6 86.79,-149.14 80.76,-204.36 -65.16,-598.76 -1244.96,-163.51 -1424.33,65.63z"></path> <path class="fil0" d="M8793.44 5457.85c100.48,197.6 1272.23,640.72 1417.13,151.68 25.74,-86.87 11.54,-191.61 -61.59,-247.94 -73.12,-56.35 -139.3,-46.42 -172.95,-85.08 -33.66,-38.68 95.11,-98.17 127.4,-147.83 32.35,-49.65 30.55,-169.83 6,-219.65 -266.03,-540.37 -1225.81,272.15 -1315.99,548.81z"></path> <path class="fil0" d="M9188.13 4883.61c0,0 181.4,-196.72 333.32,-228.05 33.24,-6.86 55.04,-23.71 33.18,-28 -92.49,-18.17 -256.49,-96.52 -358.01,-237.13 -208.49,51.55 -302.8,220.4 -301.56,239.61 1.25,19.19 107.13,191.67 293.07,253.57z"></path> <path class="fil0" d="M9514.08 6311.7c0,0 103.19,-246.91 235.22,-328.31 28.89,-17.8 43.62,-41.1 21.61,-37.67 -93.15,14.57 -274.04,-2.96 -417.52,-100.37 -178.3,119.75 -209.17,310.66 -201.44,328.29 7.73,17.62 166.22,143.48 362.13,138.06z"></path> <path class="fil0" d="M17430.99 5916.56c0,0 -237.74,122.81 -391.21,100.3 -33.56,-4.91 -59.83,3.46 -40.77,14.97 80.72,48.71 208.01,178.42 255.32,345.27 213.55,22.87 359.92,-103.55 365.33,-122.02 5.4,-18.45 -35.1,-216.76 -188.68,-338.52z"></path> <path class="fil0" d="M17613.13 4463.13c0,0 -181.4,196.71 -333.32,228.04 -33.22,6.87 -55.03,23.72 -33.18,28.01 92.5,18.17 256.5,96.52 358.01,237.13 208.5,-51.55 302.81,-220.4 301.57,-239.61 -1.25,-19.18 -107.13,-191.68 -293.08,-253.57z"></path> <path class="fil0" d="M17287.17 3035.05c0,0 -103.19,246.9 -235.21,328.29 -28.88,17.82 -43.61,41.11 -21.61,37.68 93.14,-14.57 274.04,2.96 417.52,100.37 178.29,-119.74 209.17,-310.67 201.44,-328.3 -7.73,-17.61 -166.22,-143.48 -362.14,-138.03z"></path> <path class="fil0" d="M16492.46 1804.58c0,0 -12.52,267.29 -108.76,388.94 -21.04,26.6 -26.9,53.54 -7.41,42.79 82.54,-45.55 258.53,-90.94 426.68,-48.48 126.58,-173.52 90.3,-363.48 77,-377.4 -13.3,-13.9 -205.27,-77.98 -387.51,-5.85z"></path> <path class="fil0" d="M15324.8 920.12c0,0 79.66,255.45 30.83,402.68 -10.66,32.2 -6.97,59.52 7.67,42.74 61.99,-71.02 211.83,-173.87 384.37,-191.49 59.6,-206.33 -39.47,-372.42 -56.73,-380.96 -17.24,-8.52 -219.56,-3.06 -366.14,127.04z"></path> <path class="fil0" d="M13925.07 488.36c0,0 162.23,212.81 166.71,367.85 0.99,33.91 13.79,58.32 21.83,37.54 33.94,-87.94 139.59,-235.84 295.69,-311.4 -14.57,-214.27 -164.46,-336.48 -183.6,-338.59 -19.11,-2.1 -207.37,72.21 -300.62,244.6z"></path> </g> <path class="fil1" d="M16434.65 4673.43c0,837.81 -339.59,1596.31 -888.64,2145.36 -549.05,549.05 -1307.55,888.64 -2145.37,888.64 -837.81,0 -1596.31,-339.6 -2145.37,-888.64 -549.06,-549.06 -888.65,-1307.56 -888.65,-2145.36 0,-837.82 339.6,-1596.32 888.65,-2145.38 549.05,-549.05 1307.56,-888.65 2145.37,-888.65 837.82,0 1596.32,339.6 2145.37,888.65 549.06,549.05 888.64,1307.56 888.64,2145.38zm-1004.92 2029.08c519.29,-519.27 840.47,-1236.68 840.47,-2029.08 0,-792.42 -321.18,-1509.82 -840.47,-2029.11 -519.29,-519.29 -1236.68,-840.48 -2029.09,-840.48 -792.42,0 -1509.81,321.19 -2029.09,840.48 -519.29,519.29 -840.48,1236.69 -840.48,2029.11 0,792.4 321.19,1509.8 840.48,2029.08 519.29,519.29 1236.68,840.47 2029.09,840.47 792.42,0 1509.81,-321.18 2029.09,-840.47z"></path> <g> <circle class="fil0" cx="6958.45" cy="4661.21" r="354.97"></circle> <g> <path class="fil0" d="M8048.43 3642.53c-1245.57,-238.34 -1371.21,636.98 -2042.33,629.19 -812.17,-9.3 -839.56,-995.83 -322.5,-1223.23 464.1,-204.08 702.02,297.81 561.14,486.57 -167.76,225.55 -493.55,90.05 -446.3,-127.69 47.4,-217.55 202.65,-146.72 202.65,-146.72 0,0 -323.71,-143.43 -434.76,179.17 -111.07,322.69 309.77,607.5 688.9,445.75 250.89,-107.05 1124.84,-870.71 1793.19,-243.05z"></path> <path class="fil0" d="M8048.4 5746.62c-1248.07,226 -1365.39,-650.41 -2036.52,-649.65 -812.1,1.06 -848.95,987.39 -333.53,1219.84 461.63,208.91 704.43,-290.8 565.22,-480.65 -165.86,-227.06 -492.58,-95.09 -447.23,123.1 45.14,218.09 200.63,148.6 200.63,148.6 0,0 -324.82,140.35 -432.62,-183.31 -108.03,-323.73 315.21,-604.49 692.77,-439 249.89,109.92 1116.87,882.29 1791.28,261.07z"></path> </g> <path class="fil0" d="M9158.5 6634.4c0,0 -393.01,1118.02 -1633.44,1012.36 -1240.18,-105.6 -1215.36,-1367.13 -615.21,-1578.73 512.83,-180.54 800.02,251.12 612.24,530.36 -187.81,279.08 -779.76,-10.26 -434.09,-316.57 -352.13,164.13 -328.89,737.35 46.79,936.81 480.89,255.35 1404.41,180.3 2023.71,-584.24z"></path> <path class="fil0" d="M9158.5 2712.47c0,0 -393.01,-1118.02 -1633.44,-1012.36 -1240.18,105.6 -1215.36,1367.13 -615.21,1578.73 512.83,180.54 800.02,-251.12 612.24,-530.36 -187.81,-279.08 -779.76,10.26 -434.09,316.57 -352.13,-164.13 -328.89,-737.35 46.79,-936.81 480.89,-255.35 1404.41,-180.3 2023.71,584.24z"></path> <path class="fil0" d="M8521.47 2973.14c-264.49,272.41 -280.7,691.98 -67.42,1016.41 -115.81,-38.7 -225.88,-100.93 -320.47,-188.93 -352.98,-327.67 -367.75,-872.78 -32.99,-1218.02 334.38,-345.46 891.25,-359.91 1244.19,-32.28 94.63,87.78 164.45,191.97 210.05,302.55 -342.54,-190.82 -769.42,-152.77 -1033.37,120.26z"></path> <path class="fil0" d="M8402.03 6444.72c-264.5,-272.41 -280.7,-691.97 -67.42,-1016.41 -115.82,38.71 -225.88,100.93 -320.49,188.94 -352.98,327.67 -367.74,872.77 -32.97,1218.02 334.37,345.45 891.24,359.9 1244.19,32.27 94.63,-87.78 164.45,-191.97 210.05,-302.55 -342.54,190.83 -769.43,152.77 -1033.37,-120.26z"></path> <path class="fil0" d="M840.19 4811.49c117.63,0 212.94,-95.34 212.94,-212.86 0,-117.53 -95.31,-213.01 -212.94,-213.01 -117.68,0 -212.93,95.48 -212.93,213.01 0,117.52 95.24,212.86 212.93,212.86z"></path> <path class="fil0" d="M5298.57 4803.95c78.85,0 142.74,-63.91 142.74,-142.7 0,-78.78 -63.89,-142.78 -142.74,-142.78 -78.9,0 -142.74,64 -142.74,142.78 0,78.79 63.84,142.7 142.74,142.7z"></path> <path class="fil0" d="M488.04 4705c58.8,0 106.44,-47.66 106.44,-106.4 0,-58.74 -47.63,-106.47 -106.44,-106.47 -58.83,0 -106.44,47.73 -106.44,106.47 0,58.74 47.61,106.4 106.44,106.4z"></path> <path class="fil0" d="M106.44 4705c58.79,0 106.44,-47.66 106.44,-106.4 0,-58.74 -47.65,-106.47 -106.44,-106.47 -58.83,0 -106.44,47.73 -106.44,106.47 0,58.74 47.61,106.4 106.44,106.4z"></path> <path class="fil0" d="M4563.98 4101.23c-271.35,380.29 -406.46,537.61 -632.76,576.76 22.98,-0.02 22.98,0.2 0,0.2 226.27,39.56 361.41,196.53 632.76,576.98 270.99,380.04 797.58,373.96 797.58,373.96 0,0 95.98,-82.55 320.46,-308.81 -678.52,-4.17 -720.54,-550.95 -727.05,-642.13 6.51,-91.37 33.07,-611.62 712.24,-615.05 -199.71,-194.97 -324.62,-324.67 -324.62,-324.67 0,0 -507.62,-17.49 -778.61,362.77z"></path> <path class="fil0" d="M6234.7 4902.01c135.73,0 245.72,-107.81 245.72,-240.71 0,-132.91 -109.98,-240.87 -245.72,-240.87 -135.81,0 -245.73,107.96 -245.73,240.87 0,132.9 109.92,240.71 245.73,240.71z"></path> <path class="fil0" d="M5715.8 4830.6c95.5,0 172.87,-75.84 172.87,-169.33 0,-93.5 -77.37,-169.46 -172.87,-169.46 -95.53,0 -172.86,75.96 -172.86,169.46 0,93.49 77.32,169.33 172.86,169.33z"></path> <g> <path class="fil0" d="M2437.86 4617.9c0,0 -177.06,-379.93 -541.7,-330.86 -364.66,49.02 -600.22,315.63 -776.55,326.07 175.48,21.53 396.44,302.17 757.82,373.8 361.37,71.58 558.62,-296.74 558.62,-296.74 -327.31,137.72 -623.62,-52.82 -745.02,-59.24 121.59,1.18 427.56,-170.86 746.84,-13.03z"></path> <path class="fil0" d="M4294.03 4195.35c117.63,0 212.93,-95.34 212.93,-212.87 0,-117.53 -95.3,-213.01 -212.93,-213.01 -117.68,0 -212.94,95.48 -212.94,213.01 0,117.53 95.26,212.87 212.94,212.87z"></path> <path class="fil0" d="M4312.8 5509.31c117.63,0 212.94,-95.34 212.94,-212.87 0,-117.52 -95.31,-213 -212.94,-213 -117.67,0 -212.93,95.48 -212.93,213 0,117.53 95.26,212.87 212.93,212.87z"></path> <path class="fil0" d="M3371.7 5248.9c0,0 -414.11,-67.83 -592.02,335.49 -177.89,403.23 218.26,609.84 385.96,459.33 143.21,-128.65 57.9,-291.21 -60.76,-280.31 -118.61,10.94 -129.29,243.99 24.6,188.65 -110.82,81.51 -284.96,-23.09 -283.1,-173.69 2.37,-192.79 182.57,-466.96 525.31,-529.47z"></path> <path class="fil0" d="M3486.44 4161.14c0,0 -414.11,67.84 -592.02,-335.48 -177.87,-403.23 218.27,-609.85 385.96,-459.34 143.21,128.66 57.9,291.21 -60.76,280.31 -118.61,-10.93 -129.29,-243.99 24.6,-188.64 -110.82,-81.52 -284.95,23.09 -283.1,173.69 2.37,192.78 182.58,466.95 525.31,529.46z"></path> <path class="fil0" d="M3160.07 5127.89c0,0 -517.12,-303.57 -908.6,-83.94 -391.66,219.56 -338.38,654.86 -27.6,614.51 336.17,-43.75 367.47,-556.07 936.19,-530.57z"></path> <path class="fil0" d="M3160.07 4212.81c0,0 -517.12,303.58 -908.6,83.95 -391.66,-219.58 -338.38,-654.86 -27.6,-614.51 336.17,43.74 367.47,556.07 936.19,530.56z"></path> <g> <path class="fil0" d="M3658.78 4874.7c0,0 -754.94,-55.18 -1085.9,-176.01 -330.97,-120.83 1076.92,-214.15 1076.92,-214.15 0,0 78.65,65.72 197.41,192.97l-188.43 197.19z"></path> <path class="fil0" d="M3024.71 5044.25c0,0 182.45,78.9 292.76,63.14 110.32,-15.75 282.48,-18.24 360.14,-163.51 77.66,-145.27 198.6,-222.07 303.67,-190.55 105.06,31.52 267.46,122.81 293.73,217.37 26.27,94.56 -162.86,-84.05 -252.16,-42.03 -89.31,42.03 -120.83,57.78 -110.32,120.83 10.5,63.04 162.86,115.57 162.86,115.57 0,0 -99.82,178.63 -404.51,157.61 -304.7,-21.02 -646.17,-278.42 -646.17,-278.42z"></path> <path class="fil0" d="M3013.44 4304.86c0,0 182.45,-78.91 292.76,-63.15 110.32,15.75 282.47,18.24 360.13,163.51 77.66,145.27 198.62,222.07 303.67,190.55 105.07,-31.52 267.48,-122.81 293.74,-217.37 26.27,-94.56 -162.86,84.05 -252.16,42.03 -89.31,-42.03 -120.83,-57.78 -110.33,-120.83 10.51,-63.04 162.86,-115.57 162.86,-115.57 0,0 -99.81,-178.63 -404.5,-157.61 -304.7,21.02 -646.17,278.44 -646.17,278.44z"></path> </g> </g> <g> <path class="fil0" d="M8805.81 4081.51c0,0 -336.8,-246.42 -736.46,-26.23 -399.67,220.19 -614.33,626.48 -730.1,627.94 -9.15,0.1 -10.21,0.37 -4.45,0.75 0.43,0.09 1.58,0.16 3.72,0.22 2.36,0.13 5.38,0.25 8.79,0.39 116.88,12.34 331.09,410.47 725.23,627.62 399.67,220.19 736.47,-26.24 736.47,-26.24 -971.77,-104.34 -981.12,-1101.12 -3.2,-1204.44z"></path> <circle class="fil0" transform="matrix(1.21946E-14 -0.460443 0.460443 1.21946E-14 8494.44 4665.03)" r="543.48"></circle> </g> </g> <g> <circle class="fil0" cx="19911.6" cy="4661.2" r="354.97"></circle> <g> <path class="fil0" d="M18821.62 3642.52c1245.57,-238.34 1371.22,636.98 2042.34,629.19 812.17,-9.3 839.56,-995.83 322.5,-1223.23 -464.1,-204.08 -702.02,297.81 -561.15,486.57 167.77,225.55 493.56,90.05 446.3,-127.69 -47.39,-217.55 -202.64,-146.72 -202.64,-146.72 0,0 323.71,-143.42 434.76,179.17 111.07,322.69 -309.77,607.5 -688.9,445.75 -250.89,-107.05 -1124.84,-870.71 -1793.2,-243.05z"></path> <path class="fil0" d="M18821.64 5746.61c1248.08,226 1365.4,-650.41 2036.53,-649.65 812.1,1.06 848.95,987.39 333.53,1219.84 -461.63,208.91 -704.43,-290.8 -565.22,-480.65 165.86,-227.06 492.58,-95.09 447.22,123.1 -45.12,218.09 -200.62,148.6 -200.62,148.6 0,0 324.82,140.35 432.62,-183.31 108.03,-323.73 -315.21,-604.48 -692.77,-439 -249.89,109.92 -1116.87,882.29 -1791.3,261.07z"></path> </g> <path class="fil0" d="M17711.56 6634.38c0,0 393.01,1118.02 1633.44,1012.36 1240.17,-105.6 1215.36,-1367.13 615.21,-1578.73 -512.83,-180.54 -800.02,251.12 -612.24,530.36 187.81,279.08 779.76,-10.26 434.09,-316.57 352.13,164.13 328.89,737.35 -46.8,936.81 -480.88,255.35 -1404.4,180.3 -2023.69,-584.24z"></path> <path class="fil0" d="M17711.56 2712.46c0,0 393.01,-1118.02 1633.44,-1012.36 1240.17,105.6 1215.36,1367.13 615.21,1578.73 -512.83,180.54 -800.02,-251.12 -612.24,-530.36 187.81,-279.08 779.76,10.26 434.09,316.57 352.13,-164.13 328.89,-737.35 -46.8,-936.81 -480.88,-255.35 -1404.4,-180.3 -2023.69,584.24z"></path> <path class="fil0" d="M18348.59 2973.13c264.49,272.41 280.7,691.98 67.42,1016.41 115.81,-38.7 225.88,-100.93 320.47,-188.93 352.98,-327.67 367.75,-872.78 32.99,-1218.02 -334.38,-345.46 -891.25,-359.9 -1244.19,-32.28 -94.64,87.78 -164.45,191.97 -210.05,302.57 342.53,-190.83 769.42,-152.79 1033.37,120.25z"></path> <path class="fil0" d="M18468.03 6444.71c264.5,-272.41 280.7,-691.97 67.42,-1016.4 115.82,38.7 225.88,100.92 320.49,188.93 352.98,327.67 367.74,872.77 32.97,1218.02 -334.37,345.45 -891.24,359.9 -1244.19,32.27 -94.63,-87.78 -164.45,-191.97 -210.05,-302.55 342.54,190.83 769.42,152.77 1033.37,-120.26z"></path> <path class="fil0" d="M26029.87 4811.48c-117.63,0 -212.94,-95.34 -212.94,-212.86 0,-117.53 95.31,-213.01 212.94,-213.01 117.68,0 212.93,95.48 212.93,213.01 0,117.52 -95.24,212.86 -212.93,212.86z"></path> <path class="fil0" d="M21571.49 4803.94c-78.85,0 -142.74,-63.91 -142.74,-142.7 0,-78.78 63.89,-142.78 142.74,-142.78 78.9,0 142.74,64 142.74,142.78 0,78.79 -63.84,142.7 -142.74,142.7z"></path> <path class="fil0" d="M26382.02 4704.99c-58.8,0 -106.44,-47.66 -106.44,-106.4 0,-58.74 47.63,-106.47 106.44,-106.47 58.83,0 106.44,47.73 106.44,106.47 0,58.74 -47.61,106.4 -106.44,106.4z"></path> <path class="fil0" d="M26763.62 4704.99c-58.79,0 -106.44,-47.66 -106.44,-106.4 0,-58.74 47.65,-106.47 106.44,-106.47 58.83,0 106.44,47.73 106.44,106.47 0,58.74 -47.61,106.4 -106.44,106.4z"></path> <path class="fil0" d="M22306.08 4101.22c271.35,380.29 406.46,537.61 632.76,576.76 -22.98,-0.02 -22.98,0.2 0,0.2 -226.27,39.56 -361.41,196.53 -632.76,576.98 -270.99,380.04 -797.58,373.96 -797.58,373.96 0,0 -95.98,-82.55 -320.46,-308.81 678.52,-4.17 720.54,-550.95 727.05,-642.13 -6.51,-91.37 -33.07,-611.62 -712.24,-615.05 199.71,-194.97 324.62,-324.67 324.62,-324.67 0,0 507.62,-17.48 778.61,362.77z"></path> <path class="fil0" d="M20635.36 4901.99c-135.73,0 -245.72,-107.81 -245.72,-240.71 0,-132.91 109.98,-240.87 245.72,-240.87 135.8,0 245.73,107.96 245.73,240.87 0,132.9 -109.93,240.71 -245.73,240.71z"></path> <path class="fil0" d="M21154.25 4830.6c-95.49,0 -172.86,-75.84 -172.86,-169.34 0,-93.5 77.37,-169.46 172.86,-169.46 95.54,0 172.87,75.96 172.87,169.46 0,93.5 -77.32,169.34 -172.87,169.34z"></path> <g> <path class="fil0" d="M24432.19 4617.89c0,0 177.06,-379.93 541.7,-330.86 364.66,49.02 600.22,315.63 776.54,326.07 -175.48,21.53 -396.43,302.17 -757.81,373.8 -361.37,71.58 -558.63,-296.73 -558.63,-296.73 327.32,137.71 623.63,-52.84 745.02,-59.25 -121.58,1.18 -427.55,-170.86 -746.83,-13.03z"></path> <path class="fil0" d="M22576.03 4195.34c-117.63,0 -212.94,-95.34 -212.94,-212.87 0,-117.53 95.31,-213.01 212.94,-213.01 117.68,0 212.93,95.48 212.93,213.01 0,117.53 -95.24,212.87 -212.93,212.87z"></path> <path class="fil0" d="M22557.25 5509.3c-117.62,0 -212.93,-95.34 -212.93,-212.87 0,-117.52 95.31,-213 212.93,-213 117.68,0 212.94,95.48 212.94,213 0,117.53 -95.26,212.87 -212.94,212.87z"></path> <path class="fil0" d="M23498.36 5248.89c0,0 414.11,-67.83 592.02,335.49 177.89,403.23 -218.26,609.84 -385.96,459.33 -143.21,-128.65 -57.9,-291.2 60.76,-280.31 118.61,10.94 129.29,243.99 -24.6,188.65 110.82,81.51 284.96,-23.09 283.1,-173.69 -2.37,-192.79 -182.58,-466.95 -525.31,-529.47z"></path> <path class="fil0" d="M23383.62 4161.13c0,0 414.11,67.84 592.02,-335.48 177.87,-403.23 -218.27,-609.85 -385.96,-459.34 -143.21,128.66 -57.9,291.21 60.76,280.31 118.61,-10.93 129.28,-243.99 -24.6,-188.64 110.82,-81.52 284.95,23.09 283.1,173.69 -2.37,192.78 -182.58,466.95 -525.31,529.46z"></path> <path class="fil0" d="M23709.99 5127.88c0,0 517.12,-303.57 908.6,-83.94 391.66,219.58 338.38,654.86 27.6,614.51 -336.17,-43.75 -367.47,-556.07 -936.19,-530.57z"></path> <path class="fil0" d="M23709.99 4212.81c0,0 517.12,303.57 908.6,83.94 391.66,-219.58 338.38,-654.86 27.6,-614.51 -336.17,43.74 -367.47,556.07 -936.19,530.57z"></path> <g> <path class="fil0" d="M23211.27 4874.69c0,0 754.94,-55.18 1085.9,-176.01 330.97,-120.83 -1076.92,-214.15 -1076.92,-214.15 0,0 -78.66,65.73 -197.41,192.97l188.43 197.19z"></path> <path class="fil0" d="M23845.34 5044.24c0,0 -182.45,78.9 -292.76,63.14 -110.32,-15.75 -282.48,-18.24 -360.14,-163.51 -77.66,-145.27 -198.62,-222.07 -303.67,-190.55 -105.06,31.52 -267.46,122.81 -293.73,217.37 -26.27,94.56 162.86,-84.05 252.16,-42.03 89.31,42.03 120.83,57.78 110.32,120.83 -10.5,63.04 -162.86,115.58 -162.86,115.58 0,0 99.82,178.61 404.51,157.6 304.7,-21.01 646.17,-278.42 646.17,-278.42z"></path> <path class="fil0" d="M23856.62 4304.85c0,0 -182.45,-78.91 -292.76,-63.15 -110.32,15.75 -282.48,18.24 -360.14,163.51 -77.65,145.27 -198.6,222.07 -303.67,190.55 -105.06,-31.52 -267.46,-122.81 -293.73,-217.37 -26.27,-94.56 162.86,84.05 252.16,42.03 89.31,-42.03 120.83,-57.78 110.33,-120.83 -10.51,-63.03 -162.86,-115.57 -162.86,-115.57 0,0 99.81,-178.61 404.5,-157.61 304.7,21.02 646.17,278.44 646.17,278.44z"></path> </g> </g> <g> <path class="fil0" d="M18064.25 4081.5c0,0 336.8,-246.42 736.46,-26.23 399.67,220.19 614.33,626.48 730.1,627.94 9.15,0.1 10.21,0.37 4.45,0.75 -0.43,0.09 -1.58,0.16 -3.72,0.22 -2.36,0.13 -5.39,0.25 -8.79,0.39 -116.89,12.35 -331.09,410.47 -725.23,627.62 -399.67,220.19 -736.47,-26.23 -736.47,-26.23 971.77,-104.35 981.12,-1101.13 3.2,-1204.46z"></path> <circle class="fil0" transform="matrix(-1.21946E-14 -0.460443 -0.460443 1.21946E-14 18375.6 4665.02)" r="543.48"></circle> </g> </g> <g> <path class="fil0" d="M12907 5661.85c94.05,1.16 443.5,-69.24 597.52,-54.92 142.48,13.25 336.82,66.5 423.83,67.55 36.92,317.44 -265.14,521.08 -361.45,838.55 -87.84,0 -175.68,0 -263.52,0 -104.18,-325.67 -410.9,-540.99 -396.39,-851.18z"></path> <path class="fil0" d="M13373.43 2338.11c-135.52,121.77 -315.1,841.19 -430.35,1011.86 -366.42,542.72 -538.45,1087.56 -303.7,1791.93 164.62,493.92 327.35,334.76 768.4,333.48 429.12,-1.25 596.12,168.53 769.07,-334.67 102.84,-299.21 125.85,-663.34 62.03,-996.66 -74.77,-390.5 -624.14,-1465 -865.45,-1805.94z"></path> <path class="fil0" d="M11326.92 3810.99l-107.78 -50.04 83.99 -16.38c433.81,-89.47 431.46,55.52 690.27,147.74 -111.03,-412.67 -833.97,-238.31 -1107.55,-77.96 168.79,126.55 336.57,95.8 571.31,299.04 564.46,488.68 371.99,1352.21 1162.31,1406.14 -233.6,-473.69 -282.66,-1626.16 -1292.57,-1708.54z"></path> <path class="fil0" d="M15550.62 3774.26c-175.57,95.08 -366.6,82.45 -573.79,222.77 -540.62,366.14 -570.45,933.02 -805.28,1541.8 580.79,-114.88 604.86,-423.29 818.22,-929.66 317.61,-753.75 638.89,-550.81 913.67,-790.89 -329.98,-143.1 -956.66,-345.27 -1106.61,81.1 177.34,-106.3 454.76,-205.67 753.79,-125.12z"></path> <path class="fil0" d="M12116.34 2955.11l-37.6 -156.96 92.5 49.83c479.94,219.92 372.5,237.67 595.36,395.55 65.53,46.42 11.97,30.95 102.22,53.44 59.87,-169.82 41.22,-178.68 -338.58,-417.59 -166.25,-104.59 -368.42,-227.57 -562.08,-296.11 -20.95,786.77 66.19,1314.33 422.67,1906.07 62.31,-350.8 152.05,-526.77 0.92,-829.45 -97.57,-195.4 -284.73,-439.75 -275.42,-704.78z"></path> <path class="fil0" d="M14002.42 3258.75l109.16 -86.9c61.94,-59.37 95.05,-96.77 170.31,-147.19 106.05,-71.03 292.09,-163.17 424.39,-211.22 -30.92,432.64 -109.9,477.39 -279.86,794.54 -191.29,356.93 -77.76,487.55 -26.09,883.06 347.99,-511.67 433.6,-1201.97 429.97,-1913.09 -264.27,75.73 -561.24,288.68 -779.65,448.67 -120.79,88.47 -166.86,89.75 -48.23,232.12z"></path> <path class="fil0" d="M12116.34 2955.11c11.26,-176.28 -13.89,-66.7 54.91,-107.13l-92.5 -49.83 37.6 156.96z"></path> <polygon class="fil0" points="11326.92,3810.99 11303.14,3744.57 11219.14,3760.95 "></polygon> </g> <rect class="fil0" x="13303.39" y="6513.03" width="278.33" height="884.3"></rect> </g> </g> </svg> 