<?xml version="1.0" encoding="UTF-8"?> <!-- Creator: CorelDRAW 2019 (64-Bit) --> <svg xmlns="http://www.w3.org/2000/svg" xmlns:xlink="http://www.w3.org/1999/xlink" xmlns:xodm="http://www.corel.com/coreldraw/odm/2003" xml:space="preserve" width="23.9276cm" height="6.87189cm" style="shape-rendering:geometricPrecision; text-rendering:geometricPrecision; image-rendering:optimizeQuality; fill-rule:evenodd; clip-rule:evenodd" viewBox="0 0 34653.62 9952.37"> <defs> <style type="text/css"> <![CDATA[ .fil0 {fill:#FCF0E4} ]]> </style> </defs> <g id="Слой_x0020_1"> <metadata id="CorelCorpID_0Corel-Layer"></metadata> <g id="CVET10.cdr"> <path class="fil0" d="M16056.17 289.74c-106.68,237.21 -100.21,405.1 -119.76,681.51 -4.08,233.32 268.87,943.04 517.37,719.57 173.94,-150.62 81.8,-658.99 1.32,-858.9 -73.5,-182.54 -256.29,-338.33 -398.93,-542.19z"></path> <path class="fil0" d="M13883.19 1552.92c26.21,258.76 115.76,400.93 237.05,650.09 113.11,204.09 704.35,682.25 807.83,364.49 75.32,-217.41 -258.66,-611.62 -428.31,-744.5 -154.94,-121.32 -391.12,-164.86 -616.57,-270.07z"></path> <path class="fil0" d="M12632.91 3733.36c152.08,211 300.72,289.34 530.34,444.46 199.99,120.21 951.11,238.68 881.84,-88.26 -43.46,-225.95 -529.81,-400.35 -743.18,-430.59 -194.82,-27.62 -421.14,52.78 -669,74.38z"></path> <path class="fil0" d="M12640.35 6246.81c237.21,106.69 405.1,100.21 681.53,119.76 233.3,4.08 943.03,-268.86 719.56,-517.37 -150.62,-173.94 -658.99,-81.8 -858.9,-1.32 -182.54,73.51 -338.33,256.29 -542.19,398.93z"></path> <path class="fil0" d="M13903.53 8419.79c258.76,-26.21 400.93,-115.76 650.09,-237.04 204.09,-113.12 682.25,-704.37 364.49,-807.83 -217.41,-75.34 -611.62,258.65 -744.5,428.31 -121.32,154.92 -164.86,391.11 -270.07,616.56z"></path> <path class="fil0" d="M16083.97 9670.07c211,-152.08 289.34,-300.72 444.47,-530.33 120.19,-200.01 238.68,-951.12 -88.27,-881.85 -225.95,43.48 -400.35,529.81 -430.59,743.18 -27.62,194.84 52.78,421.14 74.38,669z"></path> <path class="fil0" d="M18597.41 9662.63c106.69,-237.21 100.22,-405.1 119.76,-681.51 4.08,-233.32 -268.86,-943.03 -517.37,-719.57 -173.94,150.62 -81.8,658.99 -1.32,858.91 73.51,182.53 256.29,338.32 398.93,542.18z"></path> <path class="fil0" d="M20770.42 8399.45c-26.23,-258.76 -115.77,-400.93 -237.05,-650.09 -113.11,-204.09 -704.35,-682.25 -807.83,-364.49 -75.34,217.41 258.65,611.62 428.31,744.5 154.92,121.34 391.11,164.86 616.57,270.07z"></path> <path class="fil0" d="M22020.68 6219.01c-152.08,-211 -300.72,-289.34 -530.33,-444.46 -200.01,-120.21 -951.12,-238.68 -881.85,88.26 43.48,225.95 529.82,400.35 743.18,430.6 194.84,27.6 421.14,-52.79 669,-74.4z"></path> <path class="fil0" d="M22013.24 3705.56c-237.21,-106.68 -405.1,-100.21 -681.51,-119.76 -233.32,-4.08 -943.03,268.86 -719.57,517.37 150.62,173.94 659.01,81.8 858.91,1.32 182.53,-73.51 338.33,-256.29 542.18,-398.93z"></path> <path class="fil0" d="M20750.07 1532.58c-258.78,26.21 -400.93,115.76 -650.1,237.05 -204.09,113.11 -682.25,704.35 -364.49,807.83 217.41,75.32 611.62,-258.66 744.5,-428.31 121.34,-154.94 164.86,-391.12 270.09,-616.57z"></path> <path class="fil0" d="M18569.62 282.3c-211,152.08 -289.32,300.72 -444.46,530.33 -120.19,200.01 -238.68,951.12 88.26,881.85 225.95,-43.46 400.35,-529.81 430.6,-743.18 27.6,-194.84 -52.79,-421.14 -74.4,-669z"></path> <path class="fil0" d="M17299.86 0c-368.19,569.14 -445.68,1026.14 -640.72,1758.65 -91.02,416.38 -88.26,2369.69 635.1,2324.78 771.05,-47.94 658.56,-1862.3 599.73,-2357.57 -64.13,-540.8 -387.14,-1081.82 -594.11,-1725.86z"></path> <path class="fil0" d="M14815.38 680.15c-34.3,676.98 127.1,1111.51 324.44,1843.39 129.36,406.11 1108.42,2096.35 1712.41,1695.77 643.77,-427.04 -360.84,-1942.08 -659.4,-2341.58 -325.95,-436.28 -876.19,-743.31 -1377.45,-1197.58z"></path> <path class="fil0" d="M13003.84 2511.42c308.79,603.44 665.81,899.04 1202.66,1434.2 315.09,287.02 2008.09,1261.29 2330.88,612.39 343.99,-691.72 -1283.53,-1501.48 -1741.85,-1698.17 -500.41,-214.85 -1130.45,-205.64 -1791.69,-348.41z"></path> <path class="fil0" d="M12350.62 5003.12c569.13,368.19 1026.13,445.68 1758.64,640.73 416.38,91.01 2369.69,88.24 2324.78,-635.11 -47.94,-771.05 -1862.3,-658.54 -2357.57,-599.73 -540.8,64.13 -1081.82,387.14 -1725.85,594.11z"></path> <path class="fil0" d="M13030.76 7487.6c677,34.3 1111.51,-127.1 1843.39,-324.44 406.11,-129.36 2096.35,-1108.42 1695.78,-1712.41 -427.05,-643.77 -1942.09,360.84 -2341.6,659.41 -436.26,325.93 -743.31,876.18 -1197.58,1377.44z"></path> <path class="fil0" d="M14862.03 9299.14c603.44,-308.79 899.04,-665.81 1434.21,-1202.66 287,-315.09 1261.27,-2008.09 612.37,-2330.88 -691.71,-343.99 -1501.48,1283.53 -1698.17,1741.85 -214.85,500.42 -205.63,1130.46 -348.41,1791.69z"></path> <path class="fil0" d="M17353.72 9952.37c368.19,-569.14 445.68,-1026.14 640.73,-1758.65 91.01,-416.38 88.26,-2369.69 -635.11,-2324.78 -771.03,47.94 -658.54,1862.3 -599.73,2357.57 64.14,540.8 387.15,1081.82 594.11,1725.86z"></path> <path class="fil0" d="M19838.21 9272.22c34.3,-676.98 -127.1,-1111.51 -324.44,-1843.39 -129.36,-406.11 -1108.41,-2096.35 -1712.41,-1695.77 -643.76,427.04 360.84,1942.08 659.41,2341.58 325.93,436.28 876.18,743.31 1377.44,1197.58z"></path> <path class="fil0" d="M21649.75 7440.95c-308.79,-603.44 -665.81,-899.04 -1202.66,-1434.2 -315.09,-287.02 -2008.09,-1261.29 -2330.88,-612.39 -343.99,691.72 1283.53,1501.48 1741.85,1698.17 500.42,214.85 1130.46,205.64 1791.69,348.41z"></path> <path class="fil0" d="M22302.98 4949.25c-569.14,-368.19 -1026.14,-445.68 -1758.65,-640.73 -416.38,-91.01 -2369.69,-88.24 -2324.78,635.11 47.95,771.05 1862.3,658.54 2357.57,599.73 540.8,-64.13 1081.82,-387.14 1725.86,-594.11z"></path> <path class="fil0" d="M21622.83 2464.77c-676.98,-34.3 -1111.51,127.1 -1843.39,324.44 -406.1,129.36 -2096.35,1108.42 -1695.77,1712.41 427.04,643.77 1942.08,-360.84 2341.58,-659.41 436.28,-325.93 743.31,-876.18 1197.58,-1377.44z"></path> <path class="fil0" d="M19791.57 653.23c-603.45,308.79 -899.06,665.81 -1434.21,1202.66 -287.02,315.09 -1261.29,2008.09 -612.39,2330.88 691.72,343.99 1501.48,-1283.53 1698.17,-1741.85 214.85,-500.42 205.64,-1130.46 348.43,-1791.69z"></path> <ellipse class="fil0" cx="17327.01" cy="4976.12" rx="457.69" ry="469.88"></ellipse> </g> <g id="_2028726498368"> <g> <circle class="fil0" cx="9465.46" cy="4959.58" r="482.85"></circle> <g> <path class="fil0" d="M10948.14 3573.89c-1694.33,-324.22 -1865.24,866.47 -2778.15,855.87 -1104.8,-12.64 -1142.05,-1354.61 -438.7,-1663.95 631.3,-277.6 954.95,405.13 763.31,661.88 -228.2,306.82 -671.38,122.51 -607.09,-173.68 64.48,-295.94 275.65,-199.59 275.65,-199.59 0,0 -440.33,-195.1 -591.4,243.73 -151.08,438.94 421.37,826.37 937.1,606.35 341.29,-145.62 1530.1,-1184.41 2439.27,-330.61z"></path> <path class="fil0" d="M10948.1 6436.04c-1697.72,307.42 -1857.32,-884.72 -2770.23,-883.71 -1104.7,1.45 -1154.82,1343.13 -453.7,1659.34 627.94,284.15 958.22,-395.57 768.86,-653.84 -225.61,-308.84 -670.04,-129.35 -608.36,167.46 61.39,296.65 272.91,202.14 272.91,202.14 0,0 -441.85,190.9 -588.49,-249.35 -146.96,-440.38 428.78,-822.29 942.36,-597.17 339.92,149.51 1519.25,1200.17 2436.65,355.12z"></path> </g> <path class="fil0" d="M12458.14 7643.68c0,0 -534.6,1520.82 -2221.94,1377.09 -1686.99,-143.65 -1653.23,-1859.68 -836.86,-2147.51 697.59,-245.6 1088.26,341.59 832.81,721.44 -255.46,379.64 -1060.69,-13.95 -590.48,-430.63 -479,223.27 -447.39,1003 63.65,1274.34 654.14,347.34 1910.39,245.25 2752.8,-794.73z"></path> <path class="fil0" d="M12458.14 2308.73c0,0 -534.6,-1520.82 -2221.94,-1377.09 -1686.99,143.65 -1653.23,1859.68 -836.86,2147.51 697.59,245.6 1088.26,-341.59 832.81,-721.44 -255.46,-379.64 -1060.69,13.95 -590.48,430.63 -479,-223.27 -447.39,-1003 63.65,-1274.34 654.14,-347.34 1910.39,-245.25 2752.8,794.73z"></path> <path class="fil0" d="M11591.6 2663.33c-359.79,370.56 -381.82,941.28 -91.7,1382.59 -157.54,-52.64 -307.25,-137.3 -435.94,-257 -480.16,-445.72 -500.23,-1187.22 -44.85,-1656.84 454.84,-469.92 1212.35,-489.57 1692.45,-43.91 128.74,119.4 223.7,261.12 285.73,411.57 -465.95,-259.59 -1046.64,-207.83 -1405.68,163.58z"></path> <path class="fil0" d="M11429.12 7385.65c-359.79,-370.56 -381.82,-941.28 -91.7,-1382.59 -157.54,52.64 -307.25,137.3 -435.94,257 -480.16,445.72 -500.23,1187.22 -44.85,1656.84 454.84,469.92 1212.35,489.57 1692.45,43.91 128.74,-119.4 223.7,-261.12 285.73,-411.57 -465.95,259.59 -1046.64,207.83 -1405.68,-163.58z"></path> <path class="fil0" d="M1142.89 5164c160.01,0 289.65,-129.68 289.65,-289.55 0,-159.87 -129.65,-289.76 -289.65,-289.76 -160.08,0 -289.64,129.88 -289.64,289.76 0,159.87 129.56,289.55 289.64,289.55z"></path> <path class="fil0" d="M7207.55 5153.75c107.26,0 194.17,-86.94 194.17,-194.11 0,-107.17 -86.91,-194.23 -194.17,-194.23 -107.32,0 -194.17,87.06 -194.17,194.23 0,107.17 86.85,194.11 194.17,194.11z"></path> <path class="fil0" d="M663.87 5019.15c79.97,0 144.78,-64.82 144.78,-144.74 0,-79.92 -64.81,-144.83 -144.78,-144.83 -80.02,0 -144.78,64.91 -144.78,144.83 0,79.92 64.77,144.74 144.78,144.74z"></path> <path class="fil0" d="M144.78 5019.15c79.97,0 144.78,-64.82 144.78,-144.74 0,-79.92 -64.81,-144.83 -144.78,-144.83 -80.02,0 -144.78,64.91 -144.78,144.83 0,79.92 64.77,144.74 144.78,144.74z"></path> <path class="fil0" d="M6251.74 4197.86c-369.11,517.29 -552.89,731.29 -860.72,784.54 31.25,-0.04 31.25,0.26 0,0.26 307.79,53.83 491.62,267.35 860.72,784.86 368.63,516.95 1084.94,508.68 1084.94,508.68 0,0 130.56,-112.28 435.93,-420.06 -922.98,-5.68 -980.15,-749.45 -989,-873.48 8.85,-124.28 44.97,-831.96 968.85,-836.64 -271.67,-265.22 -441.59,-441.64 -441.59,-441.64 0,0 -690.51,-23.8 -1059.14,493.47z"></path> <path class="fil0" d="M8480.95 5287.12c184.63,0 334.25,-146.65 334.25,-327.44 0,-180.77 -149.62,-327.64 -334.25,-327.64 -184.74,0 -334.26,146.87 -334.26,327.64 0,180.79 149.52,327.44 334.26,327.44z"></path> <path class="fil0" d="M7775.11 5190c129.9,0 235.14,-103.16 235.14,-230.35 0,-127.17 -105.25,-230.49 -235.14,-230.49 -129.97,0 -235.14,103.32 -235.14,230.49 0,127.19 105.17,230.35 235.14,230.35z"></path> <g> <path class="fil0" d="M3316.18 4900.67c0,0 -240.86,-516.82 -736.87,-450.05 -496.05,66.68 -816.46,429.34 -1056.33,443.55 238.7,29.28 539.26,411.03 1030.85,508.46 491.56,97.37 759.88,-403.63 759.88,-403.63 -445.24,187.33 -848.3,-71.86 -1013.44,-80.6 165.39,1.61 581.58,-232.4 1015.91,-17.73z"></path> <path class="fil0" d="M5841.09 4325.87c160.01,0 289.65,-129.68 289.65,-289.55 0,-159.87 -129.65,-289.76 -289.65,-289.76 -160.08,0 -289.64,129.88 -289.64,289.76 0,159.87 129.56,289.55 289.64,289.55z"></path> <path class="fil0" d="M5866.62 6113.23c160.01,0 289.65,-129.68 289.65,-289.55 0,-159.87 -129.65,-289.76 -289.65,-289.76 -160.08,0 -289.64,129.88 -289.64,289.76 0,159.87 129.56,289.55 289.64,289.55z"></path> <path class="fil0" d="M4586.46 5759c0,0 -563.31,-92.27 -805.31,456.37 -241.96,548.5 296.9,829.56 525.01,624.83 194.81,-175.01 78.76,-396.13 -82.65,-381.3 -161.34,14.86 -175.86,331.9 33.47,256.6 -150.74,110.88 -387.62,-31.41 -385.1,-236.27 3.23,-262.24 248.36,-635.18 714.58,-720.23z"></path> <path class="fil0" d="M4742.54 4279.36c0,0 -563.31,92.27 -805.31,-456.37 -241.98,-548.5 296.9,-829.56 525.01,-624.81 194.81,174.99 78.76,396.12 -82.65,381.29 -161.35,-14.86 -175.86,-331.89 33.47,-256.6 -150.74,-110.88 -387.62,31.41 -385.1,236.27 3.22,262.24 248.36,635.18 714.58,720.23z"></path> <path class="fil0" d="M4298.57 5594.4c0,0 -703.43,-412.95 -1235.94,-114.18 -532.76,298.68 -460.3,890.79 -37.54,835.9 457.29,-59.5 499.87,-756.42 1273.48,-721.72z"></path> <path class="fil0" d="M4298.57 4349.64c0,0 -703.43,412.95 -1235.94,114.18 -532.76,-298.68 -460.3,-890.79 -37.54,-835.9 457.29,59.5 499.87,756.42 1273.48,721.72z"></path> <g> <path class="fil0" d="M4976.97 5249.99c0,0 -1026.93,-75.08 -1477.14,-239.43 -450.21,-164.36 1464.93,-291.32 1464.93,-291.32 0,0 106.98,89.4 268.52,262.5l-256.32 268.25z"></path> <path class="fil0" d="M4114.47 5480.61c0,0 248.18,107.32 398.23,85.9 150.07,-21.43 384.26,-24.82 489.89,-222.43 105.64,-197.62 270.16,-302.08 413.08,-259.21 142.92,42.88 363.84,167.06 399.58,295.69 35.73,128.64 -221.54,-114.34 -343.02,-57.16 -121.48,57.16 -164.35,78.6 -150.07,164.35 14.29,85.75 221.53,157.22 221.53,157.22 0,0 -135.78,242.96 -550.24,214.37 -414.48,-28.57 -878.97,-378.74 -878.97,-378.74z"></path> <path class="fil0" d="M4099.13 4474.84c0,0 248.18,-107.33 398.25,-85.9 150.06,21.42 384.24,24.82 489.88,222.43 105.64,197.6 270.18,302.08 413.08,259.2 142.92,-42.87 363.85,-167.06 399.58,-295.68 35.73,-128.64 -221.53,114.34 -343.02,57.16 -121.48,-57.16 -164.35,-78.61 -150.07,-164.36 14.29,-85.75 221.54,-157.21 221.54,-157.21 0,0 -135.78,-242.96 -550.26,-214.39 -414.48,28.59 -878.97,378.75 -878.97,378.75z"></path> </g> </g> <g> <path class="fil0" d="M11978.39 4171.03c0,0 -458.15,-335.2 -1001.78,-35.69 -543.68,299.52 -835.67,852.19 -993.15,854.18 -12.44,0.14 -13.89,0.51 -6.04,1.01 0.56,0.13 2.14,0.22 5.07,0.3 3.2,0.17 7.31,0.35 11.93,0.54 158.99,16.79 450.38,558.35 986.52,853.73 543.67,299.53 1001.81,-35.69 1001.81,-35.69 -1321.88,-141.95 -1334.61,-1497.85 -4.36,-1638.39z"></path> <circle class="fil0" transform="matrix(1.32423E-14 -0.5 0.5 1.32423E-14 11554.8 4964.78)" r="680.8"></circle> </g> </g> <g> <circle class="fil0" cx="25188.16" cy="4959.57" r="482.85"></circle> <g> <path class="fil0" d="M23705.47 3573.87c1694.33,-324.22 1865.24,866.47 2778.15,855.87 1104.8,-12.64 1142.05,-1354.61 438.7,-1663.95 -631.3,-277.6 -954.95,405.13 -763.31,661.88 228.2,306.82 671.38,122.51 607.09,-173.68 -64.48,-295.94 -275.65,-199.59 -275.65,-199.59 0,0 440.33,-195.1 591.4,243.73 151.08,438.94 -421.37,826.37 -937.1,606.35 -341.29,-145.62 -1530.1,-1184.41 -2439.27,-330.61z"></path> <path class="fil0" d="M23705.52 6436.02c1697.72,307.42 1857.32,-884.72 2770.23,-883.71 1104.7,1.45 1154.82,1343.13 453.7,1659.34 -627.94,284.15 -958.22,-395.57 -768.86,-653.84 225.61,-308.84 670.04,-129.35 608.36,167.46 -61.39,296.65 -272.91,202.14 -272.91,202.14 0,0 441.85,190.9 588.49,-249.35 146.96,-440.38 -428.78,-822.29 -942.36,-597.17 -339.92,149.51 -1519.25,1200.17 -2436.65,355.12z"></path> </g> <path class="fil0" d="M22195.47 7643.66c0,0 534.6,1520.82 2221.94,1377.09 1686.99,-143.65 1653.23,-1859.68 836.86,-2147.51 -697.59,-245.6 -1088.26,341.59 -832.81,721.44 255.46,379.64 1060.69,-13.95 590.48,-430.63 479,223.27 447.39,1003 -63.65,1274.34 -654.14,347.34 -1910.39,245.25 -2752.8,-794.73z"></path> <path class="fil0" d="M22195.47 2308.72c0,0 534.6,-1520.82 2221.94,-1377.09 1686.99,143.65 1653.23,1859.68 836.86,2147.51 -697.59,245.6 -1088.26,-341.59 -832.81,-721.44 255.46,-379.64 1060.69,13.95 590.48,430.63 479,-223.27 447.39,-1003 -63.65,-1274.34 -654.14,-347.34 -1910.39,-245.25 -2752.8,794.73z"></path> <path class="fil0" d="M23062.02 2663.32c359.79,370.56 381.82,941.28 91.7,1382.59 157.54,-52.64 307.25,-137.3 435.94,-257 480.16,-445.72 500.23,-1187.22 44.85,-1656.84 -454.84,-469.92 -1212.35,-489.57 -1692.45,-43.91 -128.74,119.4 -223.7,261.12 -285.73,411.57 465.95,-259.59 1046.64,-207.83 1405.68,163.58z"></path> <path class="fil0" d="M23224.5 7385.64c359.79,-370.56 381.82,-941.28 91.7,-1382.59 157.54,52.64 307.25,137.3 435.94,257 480.16,445.72 500.23,1187.22 44.85,1656.84 -454.84,469.92 -1212.35,489.57 -1692.45,43.91 -128.74,-119.4 -223.7,-261.12 -285.73,-411.57 465.95,259.59 1046.64,207.83 1405.68,-163.58z"></path> <path class="fil0" d="M33510.73 5163.99c-160.01,0 -289.65,-129.68 -289.65,-289.55 0,-159.87 129.65,-289.76 289.65,-289.76 160.08,0 289.64,129.88 289.64,289.76 0,159.87 -129.56,289.55 -289.64,289.55z"></path> <path class="fil0" d="M27446.07 5153.74c-107.26,0 -194.17,-86.94 -194.17,-194.11 0,-107.17 86.91,-194.23 194.17,-194.23 107.32,0 194.17,87.06 194.17,194.23 0,107.17 -86.85,194.11 -194.17,194.11z"></path> <path class="fil0" d="M33989.74 5019.13c-79.97,0 -144.78,-64.82 -144.78,-144.74 0,-79.92 64.81,-144.83 144.78,-144.83 80.02,0 144.78,64.91 144.78,144.83 0,79.92 -64.77,144.74 -144.78,144.74z"></path> <path class="fil0" d="M34508.83 5019.13c-79.97,0 -144.78,-64.82 -144.78,-144.74 0,-79.92 64.81,-144.83 144.78,-144.83 80.02,0 144.78,64.91 144.78,144.83 0,79.92 -64.77,144.74 -144.78,144.74z"></path> <path class="fil0" d="M28445.32 4197.85c369.11,517.29 552.89,731.29 860.72,784.54 -31.25,-0.04 -31.25,0.26 0,0.26 -307.79,53.83 -491.62,267.35 -860.72,784.86 -368.63,516.95 -1084.94,508.68 -1084.94,508.68 0,0 -130.56,-112.28 -435.93,-420.06 922.98,-5.68 980.15,-749.45 989,-873.48 -8.85,-124.28 -44.97,-831.96 -968.85,-836.64 271.67,-265.22 441.59,-441.64 441.59,-441.64 0,0 690.51,-23.8 1059.14,493.47z"></path> <path class="fil0" d="M26172.66 5287.11c-184.63,0 -334.25,-146.65 -334.25,-327.44 0,-180.77 149.62,-327.64 334.25,-327.64 184.74,0 334.26,146.87 334.26,327.64 0,180.79 -149.52,327.44 -334.26,327.44z"></path> <path class="fil0" d="M26878.51 5189.99c-129.9,0 -235.14,-103.16 -235.14,-230.35 0,-127.17 105.25,-230.49 235.14,-230.49 129.97,0 235.14,103.32 235.14,230.49 0,127.19 -105.17,230.35 -235.14,230.35z"></path> <g> <path class="fil0" d="M31337.43 4900.65c0,0 240.86,-516.82 736.87,-450.05 496.05,66.68 816.46,429.34 1056.33,443.55 -238.7,29.28 -539.26,411.03 -1030.85,508.46 -491.56,97.37 -759.88,-403.63 -759.88,-403.63 445.24,187.33 848.3,-71.86 1013.44,-80.6 -165.39,1.61 -581.58,-232.4 -1015.91,-17.73z"></path> <path class="fil0" d="M28812.53 4325.86c-160.01,0 -289.65,-129.68 -289.65,-289.55 0,-159.87 129.65,-289.76 289.65,-289.76 160.08,0 289.64,129.88 289.64,289.76 0,159.87 -129.56,289.55 -289.64,289.55z"></path> <path class="fil0" d="M28787 6113.22c-160.01,0 -289.65,-129.68 -289.65,-289.55 0,-159.87 129.65,-289.76 289.65,-289.76 160.08,0 289.64,129.88 289.64,289.76 0,159.87 -129.56,289.55 -289.64,289.55z"></path> <path class="fil0" d="M30067.15 5758.98c0,0 563.31,-92.27 805.31,456.37 241.96,548.5 -296.9,829.56 -525.01,624.83 -194.81,-175.01 -78.76,-396.13 82.65,-381.3 161.34,14.86 175.86,331.9 -33.47,256.6 150.74,110.88 387.62,-31.41 385.1,-236.27 -3.23,-262.24 -248.36,-635.18 -714.58,-720.23z"></path> <path class="fil0" d="M29911.07 4279.34c0,0 563.31,92.27 805.31,-456.37 241.98,-548.5 -296.9,-829.56 -525.01,-624.81 -194.81,174.99 -78.76,396.12 82.65,381.29 161.35,-14.86 175.86,-331.89 -33.47,-256.6 150.74,-110.88 387.62,31.41 385.1,236.27 -3.22,262.24 -248.36,635.18 -714.58,720.23z"></path> <path class="fil0" d="M30355.04 5594.39c0,0 703.43,-412.95 1235.94,-114.18 532.76,298.68 460.3,890.79 37.54,835.9 -457.29,-59.5 -499.87,-756.42 -1273.48,-721.72z"></path> <path class="fil0" d="M30355.04 4349.63c0,0 703.43,412.95 1235.94,114.18 532.76,-298.68 460.3,-890.79 37.54,-835.9 -457.29,59.5 -499.87,756.42 -1273.48,721.72z"></path> <g> <path class="fil0" d="M29676.64 5249.97c0,0 1026.93,-75.08 1477.14,-239.43 450.21,-164.36 -1464.93,-291.32 -1464.93,-291.32 0,0 -106.98,89.4 -268.52,262.5l256.32 268.25z"></path> <path class="fil0" d="M30539.15 5480.6c0,0 -248.18,107.32 -398.23,85.9 -150.07,-21.43 -384.26,-24.82 -489.89,-222.43 -105.64,-197.62 -270.16,-302.08 -413.08,-259.21 -142.92,42.88 -363.84,167.06 -399.58,295.69 -35.73,128.64 221.54,-114.34 343.02,-57.16 121.48,57.16 164.35,78.6 150.07,164.35 -14.29,85.75 -221.53,157.22 -221.53,157.22 0,0 135.78,242.96 550.24,214.37 414.48,-28.57 878.97,-378.74 878.97,-378.74z"></path> <path class="fil0" d="M30554.48 4474.83c0,0 -248.18,-107.33 -398.25,-85.9 -150.06,21.42 -384.24,24.82 -489.88,222.43 -105.64,197.6 -270.18,302.08 -413.08,259.2 -142.92,-42.87 -363.85,-167.06 -399.58,-295.68 -35.73,-128.64 221.53,114.34 343.02,57.16 121.48,-57.16 164.35,-78.61 150.07,-164.36 -14.29,-85.75 -221.54,-157.21 -221.54,-157.21 0,0 135.78,-242.96 550.26,-214.39 414.48,28.59 878.97,378.75 878.97,378.75z"></path> </g> </g> <g> <path class="fil0" d="M22675.23 4171.01c0,0 458.15,-335.2 1001.78,-35.69 543.68,299.52 835.67,852.19 993.15,854.18 12.44,0.14 13.89,0.51 6.04,1.01 -0.56,0.13 -2.14,0.22 -5.07,0.3 -3.2,0.17 -7.31,0.35 -11.93,0.54 -158.99,16.79 -450.38,558.35 -986.52,853.73 -543.67,299.53 -1001.81,-35.69 -1001.81,-35.69 1321.88,-141.95 1334.61,-1497.85 4.36,-1638.39z"></path> <circle class="fil0" transform="matrix(-1.32423E-14 -0.5 -0.5 1.32423E-14 23098.8 4964.77)" r="680.8"></circle> </g> </g> </g> </g> </svg> 